<svg width="229" height="100" viewBox="0 0 229 100" fill="none" xmlns="http://www.w3.org/2000/svg">
<path d="M15.264 86.48C12.576 86.48 10.24 86 8.256 85.04C6.272 84.08 4.736 82.592 3.648 80.576C2.56 78.56 2.016 75.984 2.016 72.848C2.016 69.616 2.624 66.992 3.84 64.976C5.056 62.928 6.704 61.424 8.784 60.464C10.896 59.472 13.296 58.976 15.984 58.976C17.616 58.976 19.152 59.152 20.592 59.504C22.064 59.856 23.424 60.352 24.672 60.992L21.984 67.76C20.896 67.28 19.872 66.896 18.912 66.608C17.984 66.32 17.008 66.176 15.984 66.176C15.056 66.176 14.24 66.416 13.536 66.896C12.832 67.376 12.288 68.112 11.904 69.104C11.52 70.064 11.328 71.296 11.328 72.8C11.328 74.336 11.52 75.568 11.904 76.496C12.32 77.424 12.88 78.112 13.584 78.56C14.288 78.976 15.104 79.184 16.032 79.184C17.344 79.184 18.656 78.976 19.968 78.56C21.312 78.144 22.576 77.568 23.76 76.832V84.128C22.672 84.832 21.44 85.408 20.064 85.856C18.688 86.272 17.088 86.48 15.264 86.48Z" fill="#04AFD2"/>
<path d="M15.264 83.98C12.576 83.98 10.24 83.5 8.256 82.54C6.272 81.58 4.736 80.092 3.648 78.076C2.56 76.06 2.016 73.484 2.016 70.348C2.016 67.116 2.624 64.492 3.84 62.476C5.056 60.428 6.704 58.924 8.784 57.964C10.896 56.972 13.296 56.476 15.984 56.476C17.616 56.476 19.152 56.652 20.592 57.004C22.064 57.356 23.424 57.852 24.672 58.492L21.984 65.26C20.896 64.78 19.872 64.396 18.912 64.108C17.984 63.82 17.008 63.676 15.984 63.676C15.056 63.676 14.24 63.916 13.536 64.396C12.832 64.876 12.288 65.612 11.904 66.604C11.52 67.564 11.328 68.796 11.328 70.3C11.328 71.836 11.52 73.068 11.904 73.996C12.32 74.924 12.88 75.612 13.584 76.06C14.288 76.476 15.104 76.684 16.032 76.684C17.344 76.684 18.656 76.476 19.968 76.06C21.312 75.644 22.576 75.068 23.76 74.332V81.628C22.672 82.332 21.44 82.908 20.064 83.356C18.688 83.772 17.088 83.98 15.264 83.98Z" fill="#0472A7"/>
<path d="M15.264 81.48C12.576 81.48 10.24 81 8.256 80.04C6.272 79.08 4.736 77.592 3.648 75.576C2.56 73.56 2.016 70.984 2.016 67.848C2.016 64.616 2.624 61.992 3.84 59.976C5.056 57.928 6.704 56.424 8.784 55.464C10.896 54.472 13.296 53.976 15.984 53.976C17.616 53.976 19.152 54.152 20.592 54.504C22.064 54.856 23.424 55.352 24.672 55.992L21.984 62.76C20.896 62.28 19.872 61.896 18.912 61.608C17.984 61.32 17.008 61.176 15.984 61.176C15.056 61.176 14.24 61.416 13.536 61.896C12.832 62.376 12.288 63.112 11.904 64.104C11.52 65.064 11.328 66.296 11.328 67.8C11.328 69.336 11.52 70.568 11.904 71.496C12.32 72.424 12.88 73.112 13.584 73.56C14.288 73.976 15.104 74.184 16.032 74.184C17.344 74.184 18.656 73.976 19.968 73.56C21.312 73.144 22.576 72.568 23.76 71.832V79.128C22.672 79.832 21.44 80.408 20.064 80.856C18.688 81.272 17.088 81.48 15.264 81.48Z" fill="#063BA0"/>
<path d="M15.264 78.98C12.576 78.98 10.24 78.5 8.256 77.54C6.272 76.58 4.736 75.092 3.648 73.076C2.56 71.06 2.016 68.484 2.016 65.348C2.016 62.116 2.624 59.492 3.84 57.476C5.056 55.428 6.704 53.924 8.784 52.964C10.896 51.972 13.296 51.476 15.984 51.476C17.616 51.476 19.152 51.652 20.592 52.004C22.064 52.356 23.424 52.852 24.672 53.492L21.984 60.26C20.896 59.78 19.872 59.396 18.912 59.108C17.984 58.82 17.008 58.676 15.984 58.676C15.056 58.676 14.24 58.916 13.536 59.396C12.832 59.876 12.288 60.612 11.904 61.604C11.52 62.564 11.328 63.796 11.328 65.3C11.328 66.836 11.52 68.068 11.904 68.996C12.32 69.924 12.88 70.612 13.584 71.06C14.288 71.476 15.104 71.684 16.032 71.684C17.344 71.684 18.656 71.476 19.968 71.06C21.312 70.644 22.576 70.068 23.76 69.332V76.628C22.672 77.332 21.44 77.908 20.064 78.356C18.688 78.772 17.088 78.98 15.264 78.98Z" fill="#082990"/>
<path d="M15.264 76.48C12.576 76.48 10.24 76 8.256 75.04C6.272 74.08 4.736 72.592 3.648 70.576C2.56 68.56 2.016 65.984 2.016 62.848C2.016 59.616 2.624 56.992 3.84 54.976C5.056 52.928 6.704 51.424 8.784 50.464C10.896 49.472 13.296 48.976 15.984 48.976C17.616 48.976 19.152 49.152 20.592 49.504C22.064 49.856 23.424 50.352 24.672 50.992L21.984 57.76C20.896 57.28 19.872 56.896 18.912 56.608C17.984 56.32 17.008 56.176 15.984 56.176C15.056 56.176 14.24 56.416 13.536 56.896C12.832 57.376 12.288 58.112 11.904 59.104C11.52 60.064 11.328 61.296 11.328 62.8C11.328 64.336 11.52 65.568 11.904 66.496C12.32 67.424 12.88 68.112 13.584 68.56C14.288 68.976 15.104 69.184 16.032 69.184C17.344 69.184 18.656 68.976 19.968 68.56C21.312 68.144 22.576 67.568 23.76 66.832V74.128C22.672 74.832 21.44 75.408 20.064 75.856C18.688 76.272 17.088 76.48 15.264 76.48Z" fill="#1B0186"/>
<path d="M15.264 73.98C12.576 73.98 10.24 73.5 8.256 72.54C6.272 71.58 4.736 70.092 3.648 68.076C2.56 66.06 2.016 63.484 2.016 60.348C2.016 57.116 2.624 54.492 3.84 52.476C5.056 50.428 6.704 48.924 8.784 47.964C10.896 46.972 13.296 46.476 15.984 46.476C17.616 46.476 19.152 46.652 20.592 47.004C22.064 47.356 23.424 47.852 24.672 48.492L21.984 55.26C20.896 54.78 19.872 54.396 18.912 54.108C17.984 53.82 17.008 53.676 15.984 53.676C15.056 53.676 14.24 53.916 13.536 54.396C12.832 54.876 12.288 55.612 11.904 56.604C11.52 57.564 11.328 58.796 11.328 60.3C11.328 61.836 11.52 63.068 11.904 63.996C12.32 64.924 12.88 65.612 13.584 66.06C14.288 66.476 15.104 66.684 16.032 66.684C17.344 66.684 18.656 66.476 19.968 66.06C21.312 65.644 22.576 65.068 23.76 64.332V71.628C22.672 72.332 21.44 72.908 20.064 73.356C18.688 73.772 17.088 73.98 15.264 73.98Z" fill="#6002BE"/>
<path d="M15.264 71.48C12.576 71.48 10.24 71 8.256 70.04C6.272 69.08 4.736 67.592 3.648 65.576C2.56 63.56 2.016 60.984 2.016 57.848C2.016 54.616 2.624 51.992 3.84 49.976C5.056 47.928 6.704 46.424 8.784 45.464C10.896 44.472 13.296 43.976 15.984 43.976C17.616 43.976 19.152 44.152 20.592 44.504C22.064 44.856 23.424 45.352 24.672 45.992L21.984 52.76C20.896 52.28 19.872 51.896 18.912 51.608C17.984 51.32 17.008 51.176 15.984 51.176C15.056 51.176 14.24 51.416 13.536 51.896C12.832 52.376 12.288 53.112 11.904 54.104C11.52 55.064 11.328 56.296 11.328 57.8C11.328 59.336 11.52 60.568 11.904 61.496C12.32 62.424 12.88 63.112 13.584 63.56C14.288 63.976 15.104 64.184 16.032 64.184C17.344 64.184 18.656 63.976 19.968 63.56C21.312 63.144 22.576 62.568 23.76 61.832V69.128C22.672 69.832 21.44 70.408 20.064 70.856C18.688 71.272 17.088 71.48 15.264 71.48Z" fill="#9402C6"/>
<path d="M15.264 68.98C12.576 68.98 10.24 68.5 8.256 67.54C6.272 66.58 4.736 65.092 3.648 63.076C2.56 61.06 2.016 58.484 2.016 55.348C2.016 52.116 2.624 49.492 3.84 47.476C5.056 45.428 6.704 43.924 8.784 42.964C10.896 41.972 13.296 41.476 15.984 41.476C17.616 41.476 19.152 41.652 20.592 42.004C22.064 42.356 23.424 42.852 24.672 43.492L21.984 50.26C20.896 49.78 19.872 49.396 18.912 49.108C17.984 48.82 17.008 48.676 15.984 48.676C15.056 48.676 14.24 48.916 13.536 49.396C12.832 49.876 12.288 50.612 11.904 51.604C11.52 52.564 11.328 53.796 11.328 55.3C11.328 56.836 11.52 58.068 11.904 58.996C12.32 59.924 12.88 60.612 13.584 61.06C14.288 61.476 15.104 61.684 16.032 61.684C17.344 61.684 18.656 61.476 19.968 61.06C21.312 60.644 22.576 60.068 23.76 59.332V66.628C22.672 67.332 21.44 67.908 20.064 68.356C18.688 68.772 17.088 68.98 15.264 68.98Z" fill="#CD0099"/>
<path d="M15.264 66.48C12.576 66.48 10.24 66 8.256 65.04C6.272 64.08 4.736 62.592 3.648 60.576C2.56 58.56 2.016 55.984 2.016 52.848C2.016 49.616 2.624 46.992 3.84 44.976C5.056 42.928 6.704 41.424 8.784 40.464C10.896 39.472 13.296 38.976 15.984 38.976C17.616 38.976 19.152 39.152 20.592 39.504C22.064 39.856 23.424 40.352 24.672 40.992L21.984 47.76C20.896 47.28 19.872 46.896 18.912 46.608C17.984 46.32 17.008 46.176 15.984 46.176C15.056 46.176 14.24 46.416 13.536 46.896C12.832 47.376 12.288 48.112 11.904 49.104C11.52 50.064 11.328 51.296 11.328 52.8C11.328 54.336 11.52 55.568 11.904 56.496C12.32 57.424 12.88 58.112 13.584 58.56C14.288 58.976 15.104 59.184 16.032 59.184C17.344 59.184 18.656 58.976 19.968 58.56C21.312 58.144 22.576 57.568 23.76 56.832V64.128C22.672 64.832 21.44 65.408 20.064 65.856C18.688 66.272 17.088 66.48 15.264 66.48Z" fill="#E50061"/>
<path d="M15.264 63.98C12.576 63.98 10.24 63.5 8.256 62.54C6.272 61.58 4.736 60.092 3.648 58.076C2.56 56.06 2.016 53.484 2.016 50.348C2.016 47.116 2.624 44.492 3.84 42.476C5.056 40.428 6.704 38.924 8.784 37.964C10.896 36.972 13.296 36.476 15.984 36.476C17.616 36.476 19.152 36.652 20.592 37.004C22.064 37.356 23.424 37.852 24.672 38.492L21.984 45.26C20.896 44.78 19.872 44.396 18.912 44.108C17.984 43.82 17.008 43.676 15.984 43.676C15.056 43.676 14.24 43.916 13.536 44.396C12.832 44.876 12.288 45.612 11.904 46.604C11.52 47.564 11.328 48.796 11.328 50.3C11.328 51.836 11.52 53.068 11.904 53.996C12.32 54.924 12.88 55.612 13.584 56.06C14.288 56.476 15.104 56.684 16.032 56.684C17.344 56.684 18.656 56.476 19.968 56.06C21.312 55.644 22.576 55.068 23.76 54.332V61.628C22.672 62.332 21.44 62.908 20.064 63.356C18.688 63.772 17.088 63.98 15.264 63.98Z" fill="#E1290A"/>
<path d="M15.264 61.48C12.576 61.48 10.24 61 8.256 60.04C6.272 59.08 4.736 57.592 3.648 55.576C2.56 53.56 2.016 50.984 2.016 47.848C2.016 44.616 2.624 41.992 3.84 39.976C5.056 37.928 6.704 36.424 8.784 35.464C10.896 34.472 13.296 33.976 15.984 33.976C17.616 33.976 19.152 34.152 20.592 34.504C22.064 34.856 23.424 35.352 24.672 35.992L21.984 42.76C20.896 42.28 19.872 41.896 18.912 41.608C17.984 41.32 17.008 41.176 15.984 41.176C15.056 41.176 14.24 41.416 13.536 41.896C12.832 42.376 12.288 43.112 11.904 44.104C11.52 45.064 11.328 46.296 11.328 47.8C11.328 49.336 11.52 50.568 11.904 51.496C12.32 52.424 12.88 53.112 13.584 53.56C14.288 53.976 15.104 54.184 16.032 54.184C17.344 54.184 18.656 53.976 19.968 53.56C21.312 53.144 22.576 52.568 23.76 51.832V59.128C22.672 59.832 21.44 60.408 20.064 60.856C18.688 61.272 17.088 61.48 15.264 61.48Z" fill="#E05307"/>
<path d="M15.264 58.98C12.576 58.98 10.24 58.5 8.256 57.54C6.272 56.58 4.736 55.092 3.648 53.076C2.56 51.06 2.016 48.484 2.016 45.348C2.016 42.116 2.624 39.492 3.84 37.476C5.056 35.428 6.704 33.924 8.784 32.964C10.896 31.972 13.296 31.476 15.984 31.476C17.616 31.476 19.152 31.652 20.592 32.004C22.064 32.356 23.424 32.852 24.672 33.492L21.984 40.26C20.896 39.78 19.872 39.396 18.912 39.108C17.984 38.82 17.008 38.676 15.984 38.676C15.056 38.676 14.24 38.916 13.536 39.396C12.832 39.876 12.288 40.612 11.904 41.604C11.52 42.564 11.328 43.796 11.328 45.3C11.328 46.836 11.52 48.068 11.904 48.996C12.32 49.924 12.88 50.612 13.584 51.06C14.288 51.476 15.104 51.684 16.032 51.684C17.344 51.684 18.656 51.476 19.968 51.06C21.312 50.644 22.576 50.068 23.76 49.332V56.628C22.672 57.332 21.44 57.908 20.064 58.356C18.688 58.772 17.088 58.98 15.264 58.98Z" fill="#E27706"/>
<path d="M15.264 56.48C12.576 56.48 10.24 56 8.256 55.04C6.272 54.08 4.736 52.592 3.648 50.576C2.56 48.56 2.016 45.984 2.016 42.848C2.016 39.616 2.624 36.992 3.84 34.976C5.056 32.928 6.704 31.424 8.784 30.464C10.896 29.472 13.296 28.976 15.984 28.976C17.616 28.976 19.152 29.152 20.592 29.504C22.064 29.856 23.424 30.352 24.672 30.992L21.984 37.76C20.896 37.28 19.872 36.896 18.912 36.608C17.984 36.32 17.008 36.176 15.984 36.176C15.056 36.176 14.24 36.416 13.536 36.896C12.832 37.376 12.288 38.112 11.904 39.104C11.52 40.064 11.328 41.296 11.328 42.8C11.328 44.336 11.52 45.568 11.904 46.496C12.32 47.424 12.88 48.112 13.584 48.56C14.288 48.976 15.104 49.184 16.032 49.184C17.344 49.184 18.656 48.976 19.968 48.56C21.312 48.144 22.576 47.568 23.76 46.832V54.128C22.672 54.832 21.44 55.408 20.064 55.856C18.688 56.272 17.088 56.48 15.264 56.48Z" fill="#E0B516"/>
<path d="M15.264 53.98C12.576 53.98 10.24 53.5 8.256 52.54C6.272 51.58 4.736 50.092 3.648 48.076C2.56 46.06 2.016 43.484 2.016 40.348C2.016 37.116 2.624 34.492 3.84 32.476C5.056 30.428 6.704 28.924 8.784 27.964C10.896 26.972 13.296 26.476 15.984 26.476C17.616 26.476 19.152 26.652 20.592 27.004C22.064 27.356 23.424 27.852 24.672 28.492L21.984 35.26C20.896 34.78 19.872 34.396 18.912 34.108C17.984 33.82 17.008 33.676 15.984 33.676C15.056 33.676 14.24 33.916 13.536 34.396C12.832 34.876 12.288 35.612 11.904 36.604C11.52 37.564 11.328 38.796 11.328 40.3C11.328 41.836 11.52 43.068 11.904 43.996C12.32 44.924 12.88 45.612 13.584 46.06C14.288 46.476 15.104 46.684 16.032 46.684C17.344 46.684 18.656 46.476 19.968 46.06C21.312 45.644 22.576 45.068 23.76 44.332V51.628C22.672 52.332 21.44 52.908 20.064 53.356C18.688 53.772 17.088 53.98 15.264 53.98Z" fill="#FBCB15"/>
<path d="M15.264 51.48C12.576 51.48 10.24 51 8.256 50.04C6.272 49.08 4.736 47.592 3.648 45.576C2.56 43.56 2.016 40.984 2.016 37.848C2.016 34.616 2.624 31.992 3.84 29.976C5.056 27.928 6.704 26.424 8.784 25.464C10.896 24.472 13.296 23.976 15.984 23.976C17.616 23.976 19.152 24.152 20.592 24.504C22.064 24.856 23.424 25.352 24.672 25.992L21.984 32.76C20.896 32.28 19.872 31.896 18.912 31.608C17.984 31.32 17.008 31.176 15.984 31.176C15.056 31.176 14.24 31.416 13.536 31.896C12.832 32.376 12.288 33.112 11.904 34.104C11.52 35.064 11.328 36.296 11.328 37.8C11.328 39.336 11.52 40.568 11.904 41.496C12.32 42.424 12.88 43.112 13.584 43.56C14.288 43.976 15.104 44.184 16.032 44.184C17.344 44.184 18.656 43.976 19.968 43.56C21.312 43.144 22.576 42.568 23.76 41.832V49.128C22.672 49.832 21.44 50.408 20.064 50.856C18.688 51.272 17.088 51.48 15.264 51.48Z" fill="white"/>
<path d="M54.512 72.656C54.512 74.864 54.208 76.832 53.6 78.56C52.992 80.288 52.112 81.744 50.96 82.928C49.808 84.08 48.416 84.96 46.784 85.568C45.152 86.176 43.296 86.48 41.216 86.48C39.296 86.48 37.52 86.176 35.888 85.568C34.288 84.96 32.896 84.08 31.712 82.928C30.56 81.744 29.648 80.288 28.976 78.56C28.336 76.832 28.016 74.864 28.016 72.656C28.016 69.712 28.544 67.232 29.6 65.216C30.688 63.168 32.224 61.616 34.208 60.56C36.192 59.504 38.576 58.976 41.36 58.976C43.92 58.976 46.176 59.504 48.128 60.56C50.112 61.616 51.664 63.168 52.784 65.216C53.936 67.232 54.512 69.712 54.512 72.656ZM37.328 72.656C37.328 74.16 37.456 75.44 37.712 76.496C37.968 77.552 38.384 78.352 38.96 78.896C39.568 79.408 40.352 79.664 41.312 79.664C42.272 79.664 43.024 79.408 43.568 78.896C44.144 78.352 44.56 77.552 44.816 76.496C45.072 75.44 45.2 74.16 45.2 72.656C45.2 71.152 45.072 69.888 44.816 68.864C44.56 67.84 44.144 67.072 43.568 66.56C42.992 66.048 42.224 65.792 41.264 65.792C39.888 65.792 38.88 66.368 38.24 67.52C37.632 68.672 37.328 70.384 37.328 72.656Z" fill="#04AFD2"/>
<path d="M54.512 70.156C54.512 72.364 54.208 74.332 53.6 76.06C52.992 77.788 52.112 79.244 50.96 80.428C49.808 81.58 48.416 82.46 46.784 83.068C45.152 83.676 43.296 83.98 41.216 83.98C39.296 83.98 37.52 83.676 35.888 83.068C34.288 82.46 32.896 81.58 31.712 80.428C30.56 79.244 29.648 77.788 28.976 76.06C28.336 74.332 28.016 72.364 28.016 70.156C28.016 67.212 28.544 64.732 29.6 62.716C30.688 60.668 32.224 59.116 34.208 58.06C36.192 57.004 38.576 56.476 41.36 56.476C43.92 56.476 46.176 57.004 48.128 58.06C50.112 59.116 51.664 60.668 52.784 62.716C53.936 64.732 54.512 67.212 54.512 70.156ZM37.328 70.156C37.328 71.66 37.456 72.94 37.712 73.996C37.968 75.052 38.384 75.852 38.96 76.396C39.568 76.908 40.352 77.164 41.312 77.164C42.272 77.164 43.024 76.908 43.568 76.396C44.144 75.852 44.56 75.052 44.816 73.996C45.072 72.94 45.2 71.66 45.2 70.156C45.2 68.652 45.072 67.388 44.816 66.364C44.56 65.34 44.144 64.572 43.568 64.06C42.992 63.548 42.224 63.292 41.264 63.292C39.888 63.292 38.88 63.868 38.24 65.02C37.632 66.172 37.328 67.884 37.328 70.156Z" fill="#0472A7"/>
<path d="M54.512 67.656C54.512 69.864 54.208 71.832 53.6 73.56C52.992 75.288 52.112 76.744 50.96 77.928C49.808 79.08 48.416 79.96 46.784 80.568C45.152 81.176 43.296 81.48 41.216 81.48C39.296 81.48 37.52 81.176 35.888 80.568C34.288 79.96 32.896 79.08 31.712 77.928C30.56 76.744 29.648 75.288 28.976 73.56C28.336 71.832 28.016 69.864 28.016 67.656C28.016 64.712 28.544 62.232 29.6 60.216C30.688 58.168 32.224 56.616 34.208 55.56C36.192 54.504 38.576 53.976 41.36 53.976C43.92 53.976 46.176 54.504 48.128 55.56C50.112 56.616 51.664 58.168 52.784 60.216C53.936 62.232 54.512 64.712 54.512 67.656ZM37.328 67.656C37.328 69.16 37.456 70.44 37.712 71.496C37.968 72.552 38.384 73.352 38.96 73.896C39.568 74.408 40.352 74.664 41.312 74.664C42.272 74.664 43.024 74.408 43.568 73.896C44.144 73.352 44.56 72.552 44.816 71.496C45.072 70.44 45.2 69.16 45.2 67.656C45.2 66.152 45.072 64.888 44.816 63.864C44.56 62.84 44.144 62.072 43.568 61.56C42.992 61.048 42.224 60.792 41.264 60.792C39.888 60.792 38.88 61.368 38.24 62.52C37.632 63.672 37.328 65.384 37.328 67.656Z" fill="#063BA0"/>
<path d="M54.512 65.156C54.512 67.364 54.208 69.332 53.6 71.06C52.992 72.788 52.112 74.244 50.96 75.428C49.808 76.58 48.416 77.46 46.784 78.068C45.152 78.676 43.296 78.98 41.216 78.98C39.296 78.98 37.52 78.676 35.888 78.068C34.288 77.46 32.896 76.58 31.712 75.428C30.56 74.244 29.648 72.788 28.976 71.06C28.336 69.332 28.016 67.364 28.016 65.156C28.016 62.212 28.544 59.732 29.6 57.716C30.688 55.668 32.224 54.116 34.208 53.06C36.192 52.004 38.576 51.476 41.36 51.476C43.92 51.476 46.176 52.004 48.128 53.06C50.112 54.116 51.664 55.668 52.784 57.716C53.936 59.732 54.512 62.212 54.512 65.156ZM37.328 65.156C37.328 66.66 37.456 67.94 37.712 68.996C37.968 70.052 38.384 70.852 38.96 71.396C39.568 71.908 40.352 72.164 41.312 72.164C42.272 72.164 43.024 71.908 43.568 71.396C44.144 70.852 44.56 70.052 44.816 68.996C45.072 67.94 45.2 66.66 45.2 65.156C45.2 63.652 45.072 62.388 44.816 61.364C44.56 60.34 44.144 59.572 43.568 59.06C42.992 58.548 42.224 58.292 41.264 58.292C39.888 58.292 38.88 58.868 38.24 60.02C37.632 61.172 37.328 62.884 37.328 65.156Z" fill="#082990"/>
<path d="M54.512 62.656C54.512 64.864 54.208 66.832 53.6 68.56C52.992 70.288 52.112 71.744 50.96 72.928C49.808 74.08 48.416 74.96 46.784 75.568C45.152 76.176 43.296 76.48 41.216 76.48C39.296 76.48 37.52 76.176 35.888 75.568C34.288 74.96 32.896 74.08 31.712 72.928C30.56 71.744 29.648 70.288 28.976 68.56C28.336 66.832 28.016 64.864 28.016 62.656C28.016 59.712 28.544 57.232 29.6 55.216C30.688 53.168 32.224 51.616 34.208 50.56C36.192 49.504 38.576 48.976 41.36 48.976C43.92 48.976 46.176 49.504 48.128 50.56C50.112 51.616 51.664 53.168 52.784 55.216C53.936 57.232 54.512 59.712 54.512 62.656ZM37.328 62.656C37.328 64.16 37.456 65.44 37.712 66.496C37.968 67.552 38.384 68.352 38.96 68.896C39.568 69.408 40.352 69.664 41.312 69.664C42.272 69.664 43.024 69.408 43.568 68.896C44.144 68.352 44.56 67.552 44.816 66.496C45.072 65.44 45.2 64.16 45.2 62.656C45.2 61.152 45.072 59.888 44.816 58.864C44.56 57.84 44.144 57.072 43.568 56.56C42.992 56.048 42.224 55.792 41.264 55.792C39.888 55.792 38.88 56.368 38.24 57.52C37.632 58.672 37.328 60.384 37.328 62.656Z" fill="#1B0186"/>
<path d="M54.512 60.156C54.512 62.364 54.208 64.332 53.6 66.06C52.992 67.788 52.112 69.244 50.96 70.428C49.808 71.58 48.416 72.46 46.784 73.068C45.152 73.676 43.296 73.98 41.216 73.98C39.296 73.98 37.52 73.676 35.888 73.068C34.288 72.46 32.896 71.58 31.712 70.428C30.56 69.244 29.648 67.788 28.976 66.06C28.336 64.332 28.016 62.364 28.016 60.156C28.016 57.212 28.544 54.732 29.6 52.716C30.688 50.668 32.224 49.116 34.208 48.06C36.192 47.004 38.576 46.476 41.36 46.476C43.92 46.476 46.176 47.004 48.128 48.06C50.112 49.116 51.664 50.668 52.784 52.716C53.936 54.732 54.512 57.212 54.512 60.156ZM37.328 60.156C37.328 61.66 37.456 62.94 37.712 63.996C37.968 65.052 38.384 65.852 38.96 66.396C39.568 66.908 40.352 67.164 41.312 67.164C42.272 67.164 43.024 66.908 43.568 66.396C44.144 65.852 44.56 65.052 44.816 63.996C45.072 62.94 45.2 61.66 45.2 60.156C45.2 58.652 45.072 57.388 44.816 56.364C44.56 55.34 44.144 54.572 43.568 54.06C42.992 53.548 42.224 53.292 41.264 53.292C39.888 53.292 38.88 53.868 38.24 55.02C37.632 56.172 37.328 57.884 37.328 60.156Z" fill="#6002BE"/>
<path d="M54.512 57.656C54.512 59.864 54.208 61.832 53.6 63.56C52.992 65.288 52.112 66.744 50.96 67.928C49.808 69.08 48.416 69.96 46.784 70.568C45.152 71.176 43.296 71.48 41.216 71.48C39.296 71.48 37.52 71.176 35.888 70.568C34.288 69.96 32.896 69.08 31.712 67.928C30.56 66.744 29.648 65.288 28.976 63.56C28.336 61.832 28.016 59.864 28.016 57.656C28.016 54.712 28.544 52.232 29.6 50.216C30.688 48.168 32.224 46.616 34.208 45.56C36.192 44.504 38.576 43.976 41.36 43.976C43.92 43.976 46.176 44.504 48.128 45.56C50.112 46.616 51.664 48.168 52.784 50.216C53.936 52.232 54.512 54.712 54.512 57.656ZM37.328 57.656C37.328 59.16 37.456 60.44 37.712 61.496C37.968 62.552 38.384 63.352 38.96 63.896C39.568 64.408 40.352 64.664 41.312 64.664C42.272 64.664 43.024 64.408 43.568 63.896C44.144 63.352 44.56 62.552 44.816 61.496C45.072 60.44 45.2 59.16 45.2 57.656C45.2 56.152 45.072 54.888 44.816 53.864C44.56 52.84 44.144 52.072 43.568 51.56C42.992 51.048 42.224 50.792 41.264 50.792C39.888 50.792 38.88 51.368 38.24 52.52C37.632 53.672 37.328 55.384 37.328 57.656Z" fill="#9402C6"/>
<path d="M54.512 55.156C54.512 57.364 54.208 59.332 53.6 61.06C52.992 62.788 52.112 64.244 50.96 65.428C49.808 66.58 48.416 67.46 46.784 68.068C45.152 68.676 43.296 68.98 41.216 68.98C39.296 68.98 37.52 68.676 35.888 68.068C34.288 67.46 32.896 66.58 31.712 65.428C30.56 64.244 29.648 62.788 28.976 61.06C28.336 59.332 28.016 57.364 28.016 55.156C28.016 52.212 28.544 49.732 29.6 47.716C30.688 45.668 32.224 44.116 34.208 43.06C36.192 42.004 38.576 41.476 41.36 41.476C43.92 41.476 46.176 42.004 48.128 43.06C50.112 44.116 51.664 45.668 52.784 47.716C53.936 49.732 54.512 52.212 54.512 55.156ZM37.328 55.156C37.328 56.66 37.456 57.94 37.712 58.996C37.968 60.052 38.384 60.852 38.96 61.396C39.568 61.908 40.352 62.164 41.312 62.164C42.272 62.164 43.024 61.908 43.568 61.396C44.144 60.852 44.56 60.052 44.816 58.996C45.072 57.94 45.2 56.66 45.2 55.156C45.2 53.652 45.072 52.388 44.816 51.364C44.56 50.34 44.144 49.572 43.568 49.06C42.992 48.548 42.224 48.292 41.264 48.292C39.888 48.292 38.88 48.868 38.24 50.02C37.632 51.172 37.328 52.884 37.328 55.156Z" fill="#CD0099"/>
<path d="M54.512 52.656C54.512 54.864 54.208 56.832 53.6 58.56C52.992 60.288 52.112 61.744 50.96 62.928C49.808 64.08 48.416 64.96 46.784 65.568C45.152 66.176 43.296 66.48 41.216 66.48C39.296 66.48 37.52 66.176 35.888 65.568C34.288 64.96 32.896 64.08 31.712 62.928C30.56 61.744 29.648 60.288 28.976 58.56C28.336 56.832 28.016 54.864 28.016 52.656C28.016 49.712 28.544 47.232 29.6 45.216C30.688 43.168 32.224 41.616 34.208 40.56C36.192 39.504 38.576 38.976 41.36 38.976C43.92 38.976 46.176 39.504 48.128 40.56C50.112 41.616 51.664 43.168 52.784 45.216C53.936 47.232 54.512 49.712 54.512 52.656ZM37.328 52.656C37.328 54.16 37.456 55.44 37.712 56.496C37.968 57.552 38.384 58.352 38.96 58.896C39.568 59.408 40.352 59.664 41.312 59.664C42.272 59.664 43.024 59.408 43.568 58.896C44.144 58.352 44.56 57.552 44.816 56.496C45.072 55.44 45.2 54.16 45.2 52.656C45.2 51.152 45.072 49.888 44.816 48.864C44.56 47.84 44.144 47.072 43.568 46.56C42.992 46.048 42.224 45.792 41.264 45.792C39.888 45.792 38.88 46.368 38.24 47.52C37.632 48.672 37.328 50.384 37.328 52.656Z" fill="#E50061"/>
<path d="M54.512 50.156C54.512 52.364 54.208 54.332 53.6 56.06C52.992 57.788 52.112 59.244 50.96 60.428C49.808 61.58 48.416 62.46 46.784 63.068C45.152 63.676 43.296 63.98 41.216 63.98C39.296 63.98 37.52 63.676 35.888 63.068C34.288 62.46 32.896 61.58 31.712 60.428C30.56 59.244 29.648 57.788 28.976 56.06C28.336 54.332 28.016 52.364 28.016 50.156C28.016 47.212 28.544 44.732 29.6 42.716C30.688 40.668 32.224 39.116 34.208 38.06C36.192 37.004 38.576 36.476 41.36 36.476C43.92 36.476 46.176 37.004 48.128 38.06C50.112 39.116 51.664 40.668 52.784 42.716C53.936 44.732 54.512 47.212 54.512 50.156ZM37.328 50.156C37.328 51.66 37.456 52.94 37.712 53.996C37.968 55.052 38.384 55.852 38.96 56.396C39.568 56.908 40.352 57.164 41.312 57.164C42.272 57.164 43.024 56.908 43.568 56.396C44.144 55.852 44.56 55.052 44.816 53.996C45.072 52.94 45.2 51.66 45.2 50.156C45.2 48.652 45.072 47.388 44.816 46.364C44.56 45.34 44.144 44.572 43.568 44.06C42.992 43.548 42.224 43.292 41.264 43.292C39.888 43.292 38.88 43.868 38.24 45.02C37.632 46.172 37.328 47.884 37.328 50.156Z" fill="#E1290A"/>
<path d="M54.512 47.656C54.512 49.864 54.208 51.832 53.6 53.56C52.992 55.288 52.112 56.744 50.96 57.928C49.808 59.08 48.416 59.96 46.784 60.568C45.152 61.176 43.296 61.48 41.216 61.48C39.296 61.48 37.52 61.176 35.888 60.568C34.288 59.96 32.896 59.08 31.712 57.928C30.56 56.744 29.648 55.288 28.976 53.56C28.336 51.832 28.016 49.864 28.016 47.656C28.016 44.712 28.544 42.232 29.6 40.216C30.688 38.168 32.224 36.616 34.208 35.56C36.192 34.504 38.576 33.976 41.36 33.976C43.92 33.976 46.176 34.504 48.128 35.56C50.112 36.616 51.664 38.168 52.784 40.216C53.936 42.232 54.512 44.712 54.512 47.656ZM37.328 47.656C37.328 49.16 37.456 50.44 37.712 51.496C37.968 52.552 38.384 53.352 38.96 53.896C39.568 54.408 40.352 54.664 41.312 54.664C42.272 54.664 43.024 54.408 43.568 53.896C44.144 53.352 44.56 52.552 44.816 51.496C45.072 50.44 45.2 49.16 45.2 47.656C45.2 46.152 45.072 44.888 44.816 43.864C44.56 42.84 44.144 42.072 43.568 41.56C42.992 41.048 42.224 40.792 41.264 40.792C39.888 40.792 38.88 41.368 38.24 42.52C37.632 43.672 37.328 45.384 37.328 47.656Z" fill="#E05307"/>
<path d="M54.512 45.156C54.512 47.364 54.208 49.332 53.6 51.06C52.992 52.788 52.112 54.244 50.96 55.428C49.808 56.58 48.416 57.46 46.784 58.068C45.152 58.676 43.296 58.98 41.216 58.98C39.296 58.98 37.52 58.676 35.888 58.068C34.288 57.46 32.896 56.58 31.712 55.428C30.56 54.244 29.648 52.788 28.976 51.06C28.336 49.332 28.016 47.364 28.016 45.156C28.016 42.212 28.544 39.732 29.6 37.716C30.688 35.668 32.224 34.116 34.208 33.06C36.192 32.004 38.576 31.476 41.36 31.476C43.92 31.476 46.176 32.004 48.128 33.06C50.112 34.116 51.664 35.668 52.784 37.716C53.936 39.732 54.512 42.212 54.512 45.156ZM37.328 45.156C37.328 46.66 37.456 47.94 37.712 48.996C37.968 50.052 38.384 50.852 38.96 51.396C39.568 51.908 40.352 52.164 41.312 52.164C42.272 52.164 43.024 51.908 43.568 51.396C44.144 50.852 44.56 50.052 44.816 48.996C45.072 47.94 45.2 46.66 45.2 45.156C45.2 43.652 45.072 42.388 44.816 41.364C44.56 40.34 44.144 39.572 43.568 39.06C42.992 38.548 42.224 38.292 41.264 38.292C39.888 38.292 38.88 38.868 38.24 40.02C37.632 41.172 37.328 42.884 37.328 45.156Z" fill="#E27706"/>
<path d="M54.512 42.656C54.512 44.864 54.208 46.832 53.6 48.56C52.992 50.288 52.112 51.744 50.96 52.928C49.808 54.08 48.416 54.96 46.784 55.568C45.152 56.176 43.296 56.48 41.216 56.48C39.296 56.48 37.52 56.176 35.888 55.568C34.288 54.96 32.896 54.08 31.712 52.928C30.56 51.744 29.648 50.288 28.976 48.56C28.336 46.832 28.016 44.864 28.016 42.656C28.016 39.712 28.544 37.232 29.6 35.216C30.688 33.168 32.224 31.616 34.208 30.56C36.192 29.504 38.576 28.976 41.36 28.976C43.92 28.976 46.176 29.504 48.128 30.56C50.112 31.616 51.664 33.168 52.784 35.216C53.936 37.232 54.512 39.712 54.512 42.656ZM37.328 42.656C37.328 44.16 37.456 45.44 37.712 46.496C37.968 47.552 38.384 48.352 38.96 48.896C39.568 49.408 40.352 49.664 41.312 49.664C42.272 49.664 43.024 49.408 43.568 48.896C44.144 48.352 44.56 47.552 44.816 46.496C45.072 45.44 45.2 44.16 45.2 42.656C45.2 41.152 45.072 39.888 44.816 38.864C44.56 37.84 44.144 37.072 43.568 36.56C42.992 36.048 42.224 35.792 41.264 35.792C39.888 35.792 38.88 36.368 38.24 37.52C37.632 38.672 37.328 40.384 37.328 42.656Z" fill="#E0B516"/>
<path d="M54.512 40.156C54.512 42.364 54.208 44.332 53.6 46.06C52.992 47.788 52.112 49.244 50.96 50.428C49.808 51.58 48.416 52.46 46.784 53.068C45.152 53.676 43.296 53.98 41.216 53.98C39.296 53.98 37.52 53.676 35.888 53.068C34.288 52.46 32.896 51.58 31.712 50.428C30.56 49.244 29.648 47.788 28.976 46.06C28.336 44.332 28.016 42.364 28.016 40.156C28.016 37.212 28.544 34.732 29.6 32.716C30.688 30.668 32.224 29.116 34.208 28.06C36.192 27.004 38.576 26.476 41.36 26.476C43.92 26.476 46.176 27.004 48.128 28.06C50.112 29.116 51.664 30.668 52.784 32.716C53.936 34.732 54.512 37.212 54.512 40.156ZM37.328 40.156C37.328 41.66 37.456 42.94 37.712 43.996C37.968 45.052 38.384 45.852 38.96 46.396C39.568 46.908 40.352 47.164 41.312 47.164C42.272 47.164 43.024 46.908 43.568 46.396C44.144 45.852 44.56 45.052 44.816 43.996C45.072 42.94 45.2 41.66 45.2 40.156C45.2 38.652 45.072 37.388 44.816 36.364C44.56 35.34 44.144 34.572 43.568 34.06C42.992 33.548 42.224 33.292 41.264 33.292C39.888 33.292 38.88 33.868 38.24 35.02C37.632 36.172 37.328 37.884 37.328 40.156Z" fill="#FBCB15"/>
<path d="M54.512 37.656C54.512 39.864 54.208 41.832 53.6 43.56C52.992 45.288 52.112 46.744 50.96 47.928C49.808 49.08 48.416 49.96 46.784 50.568C45.152 51.176 43.296 51.48 41.216 51.48C39.296 51.48 37.52 51.176 35.888 50.568C34.288 49.96 32.896 49.08 31.712 47.928C30.56 46.744 29.648 45.288 28.976 43.56C28.336 41.832 28.016 39.864 28.016 37.656C28.016 34.712 28.544 32.232 29.6 30.216C30.688 28.168 32.224 26.616 34.208 25.56C36.192 24.504 38.576 23.976 41.36 23.976C43.92 23.976 46.176 24.504 48.128 25.56C50.112 26.616 51.664 28.168 52.784 30.216C53.936 32.232 54.512 34.712 54.512 37.656ZM37.328 37.656C37.328 39.16 37.456 40.44 37.712 41.496C37.968 42.552 38.384 43.352 38.96 43.896C39.568 44.408 40.352 44.664 41.312 44.664C42.272 44.664 43.024 44.408 43.568 43.896C44.144 43.352 44.56 42.552 44.816 41.496C45.072 40.44 45.2 39.16 45.2 37.656C45.2 36.152 45.072 34.888 44.816 33.864C44.56 32.84 44.144 32.072 43.568 31.56C42.992 31.048 42.224 30.792 41.264 30.792C39.888 30.792 38.88 31.368 38.24 32.52C37.632 33.672 37.328 35.384 37.328 37.656Z" fill="white"/>
<path d="M69.336 86H60.168V49.52H69.336V86Z" fill="#04AFD2"/>
<path d="M69.336 83.5H60.168V47.02H69.336V83.5Z" fill="#0472A7"/>
<path d="M69.336 81H60.168V44.52H69.336V81Z" fill="#063BA0"/>
<path d="M69.336 78.5H60.168V42.02H69.336V78.5Z" fill="#082990"/>
<path d="M69.336 76H60.168V39.52H69.336V76Z" fill="#1B0186"/>
<path d="M69.336 73.5H60.168V37.02H69.336V73.5Z" fill="#6002BE"/>
<path d="M69.336 71H60.168V34.52H69.336V71Z" fill="#9402C6"/>
<path d="M69.336 68.5H60.168V32.02H69.336V68.5Z" fill="#CD0099"/>
<path d="M69.336 66H60.168V29.52H69.336V66Z" fill="#E50061"/>
<path d="M69.336 63.5H60.168V27.02H69.336V63.5Z" fill="#E1290A"/>
<path d="M69.336 61H60.168V24.52H69.336V61Z" fill="#E05307"/>
<path d="M69.336 58.5H60.168V22.02H69.336V58.5Z" fill="#E27706"/>
<path d="M69.336 56H60.168V19.52H69.336V56Z" fill="#E0B516"/>
<path d="M69.336 53.5H60.168V17.02H69.336V53.5Z" fill="#FBCB15"/>
<path d="M69.336 51H60.168V14.52H69.336V51Z" fill="white"/>
<path d="M101.512 72.656C101.512 74.864 101.208 76.832 100.6 78.56C99.992 80.288 99.112 81.744 97.96 82.928C96.808 84.08 95.416 84.96 93.784 85.568C92.152 86.176 90.296 86.48 88.216 86.48C86.296 86.48 84.52 86.176 82.888 85.568C81.288 84.96 79.896 84.08 78.712 82.928C77.56 81.744 76.648 80.288 75.976 78.56C75.336 76.832 75.016 74.864 75.016 72.656C75.016 69.712 75.544 67.232 76.6 65.216C77.688 63.168 79.224 61.616 81.208 60.56C83.192 59.504 85.576 58.976 88.36 58.976C90.92 58.976 93.176 59.504 95.128 60.56C97.112 61.616 98.664 63.168 99.784 65.216C100.936 67.232 101.512 69.712 101.512 72.656ZM84.328 72.656C84.328 74.16 84.456 75.44 84.712 76.496C84.968 77.552 85.384 78.352 85.96 78.896C86.568 79.408 87.352 79.664 88.312 79.664C89.272 79.664 90.024 79.408 90.568 78.896C91.144 78.352 91.56 77.552 91.816 76.496C92.072 75.44 92.2 74.16 92.2 72.656C92.2 71.152 92.072 69.888 91.816 68.864C91.56 67.84 91.144 67.072 90.568 66.56C89.992 66.048 89.224 65.792 88.264 65.792C86.888 65.792 85.88 66.368 85.24 67.52C84.632 68.672 84.328 70.384 84.328 72.656Z" fill="#04AFD2"/>
<path d="M101.512 70.156C101.512 72.364 101.208 74.332 100.6 76.06C99.992 77.788 99.112 79.244 97.96 80.428C96.808 81.58 95.416 82.46 93.784 83.068C92.152 83.676 90.296 83.98 88.216 83.98C86.296 83.98 84.52 83.676 82.888 83.068C81.288 82.46 79.896 81.58 78.712 80.428C77.56 79.244 76.648 77.788 75.976 76.06C75.336 74.332 75.016 72.364 75.016 70.156C75.016 67.212 75.544 64.732 76.6 62.716C77.688 60.668 79.224 59.116 81.208 58.06C83.192 57.004 85.576 56.476 88.36 56.476C90.92 56.476 93.176 57.004 95.128 58.06C97.112 59.116 98.664 60.668 99.784 62.716C100.936 64.732 101.512 67.212 101.512 70.156ZM84.328 70.156C84.328 71.66 84.456 72.94 84.712 73.996C84.968 75.052 85.384 75.852 85.96 76.396C86.568 76.908 87.352 77.164 88.312 77.164C89.272 77.164 90.024 76.908 90.568 76.396C91.144 75.852 91.56 75.052 91.816 73.996C92.072 72.94 92.2 71.66 92.2 70.156C92.2 68.652 92.072 67.388 91.816 66.364C91.56 65.34 91.144 64.572 90.568 64.06C89.992 63.548 89.224 63.292 88.264 63.292C86.888 63.292 85.88 63.868 85.24 65.02C84.632 66.172 84.328 67.884 84.328 70.156Z" fill="#0472A7"/>
<path d="M101.512 67.656C101.512 69.864 101.208 71.832 100.6 73.56C99.992 75.288 99.112 76.744 97.96 77.928C96.808 79.08 95.416 79.96 93.784 80.568C92.152 81.176 90.296 81.48 88.216 81.48C86.296 81.48 84.52 81.176 82.888 80.568C81.288 79.96 79.896 79.08 78.712 77.928C77.56 76.744 76.648 75.288 75.976 73.56C75.336 71.832 75.016 69.864 75.016 67.656C75.016 64.712 75.544 62.232 76.6 60.216C77.688 58.168 79.224 56.616 81.208 55.56C83.192 54.504 85.576 53.976 88.36 53.976C90.92 53.976 93.176 54.504 95.128 55.56C97.112 56.616 98.664 58.168 99.784 60.216C100.936 62.232 101.512 64.712 101.512 67.656ZM84.328 67.656C84.328 69.16 84.456 70.44 84.712 71.496C84.968 72.552 85.384 73.352 85.96 73.896C86.568 74.408 87.352 74.664 88.312 74.664C89.272 74.664 90.024 74.408 90.568 73.896C91.144 73.352 91.56 72.552 91.816 71.496C92.072 70.44 92.2 69.16 92.2 67.656C92.2 66.152 92.072 64.888 91.816 63.864C91.56 62.84 91.144 62.072 90.568 61.56C89.992 61.048 89.224 60.792 88.264 60.792C86.888 60.792 85.88 61.368 85.24 62.52C84.632 63.672 84.328 65.384 84.328 67.656Z" fill="#063BA0"/>
<path d="M101.512 65.156C101.512 67.364 101.208 69.332 100.6 71.06C99.992 72.788 99.112 74.244 97.96 75.428C96.808 76.58 95.416 77.46 93.784 78.068C92.152 78.676 90.296 78.98 88.216 78.98C86.296 78.98 84.52 78.676 82.888 78.068C81.288 77.46 79.896 76.58 78.712 75.428C77.56 74.244 76.648 72.788 75.976 71.06C75.336 69.332 75.016 67.364 75.016 65.156C75.016 62.212 75.544 59.732 76.6 57.716C77.688 55.668 79.224 54.116 81.208 53.06C83.192 52.004 85.576 51.476 88.36 51.476C90.92 51.476 93.176 52.004 95.128 53.06C97.112 54.116 98.664 55.668 99.784 57.716C100.936 59.732 101.512 62.212 101.512 65.156ZM84.328 65.156C84.328 66.66 84.456 67.94 84.712 68.996C84.968 70.052 85.384 70.852 85.96 71.396C86.568 71.908 87.352 72.164 88.312 72.164C89.272 72.164 90.024 71.908 90.568 71.396C91.144 70.852 91.56 70.052 91.816 68.996C92.072 67.94 92.2 66.66 92.2 65.156C92.2 63.652 92.072 62.388 91.816 61.364C91.56 60.34 91.144 59.572 90.568 59.06C89.992 58.548 89.224 58.292 88.264 58.292C86.888 58.292 85.88 58.868 85.24 60.02C84.632 61.172 84.328 62.884 84.328 65.156Z" fill="#082990"/>
<path d="M101.512 62.656C101.512 64.864 101.208 66.832 100.6 68.56C99.992 70.288 99.112 71.744 97.96 72.928C96.808 74.08 95.416 74.96 93.784 75.568C92.152 76.176 90.296 76.48 88.216 76.48C86.296 76.48 84.52 76.176 82.888 75.568C81.288 74.96 79.896 74.08 78.712 72.928C77.56 71.744 76.648 70.288 75.976 68.56C75.336 66.832 75.016 64.864 75.016 62.656C75.016 59.712 75.544 57.232 76.6 55.216C77.688 53.168 79.224 51.616 81.208 50.56C83.192 49.504 85.576 48.976 88.36 48.976C90.92 48.976 93.176 49.504 95.128 50.56C97.112 51.616 98.664 53.168 99.784 55.216C100.936 57.232 101.512 59.712 101.512 62.656ZM84.328 62.656C84.328 64.16 84.456 65.44 84.712 66.496C84.968 67.552 85.384 68.352 85.96 68.896C86.568 69.408 87.352 69.664 88.312 69.664C89.272 69.664 90.024 69.408 90.568 68.896C91.144 68.352 91.56 67.552 91.816 66.496C92.072 65.44 92.2 64.16 92.2 62.656C92.2 61.152 92.072 59.888 91.816 58.864C91.56 57.84 91.144 57.072 90.568 56.56C89.992 56.048 89.224 55.792 88.264 55.792C86.888 55.792 85.88 56.368 85.24 57.52C84.632 58.672 84.328 60.384 84.328 62.656Z" fill="#1B0186"/>
<path d="M101.512 60.156C101.512 62.364 101.208 64.332 100.6 66.06C99.992 67.788 99.112 69.244 97.96 70.428C96.808 71.58 95.416 72.46 93.784 73.068C92.152 73.676 90.296 73.98 88.216 73.98C86.296 73.98 84.52 73.676 82.888 73.068C81.288 72.46 79.896 71.58 78.712 70.428C77.56 69.244 76.648 67.788 75.976 66.06C75.336 64.332 75.016 62.364 75.016 60.156C75.016 57.212 75.544 54.732 76.6 52.716C77.688 50.668 79.224 49.116 81.208 48.06C83.192 47.004 85.576 46.476 88.36 46.476C90.92 46.476 93.176 47.004 95.128 48.06C97.112 49.116 98.664 50.668 99.784 52.716C100.936 54.732 101.512 57.212 101.512 60.156ZM84.328 60.156C84.328 61.66 84.456 62.94 84.712 63.996C84.968 65.052 85.384 65.852 85.96 66.396C86.568 66.908 87.352 67.164 88.312 67.164C89.272 67.164 90.024 66.908 90.568 66.396C91.144 65.852 91.56 65.052 91.816 63.996C92.072 62.94 92.2 61.66 92.2 60.156C92.2 58.652 92.072 57.388 91.816 56.364C91.56 55.34 91.144 54.572 90.568 54.06C89.992 53.548 89.224 53.292 88.264 53.292C86.888 53.292 85.88 53.868 85.24 55.02C84.632 56.172 84.328 57.884 84.328 60.156Z" fill="#6002BE"/>
<path d="M101.512 57.656C101.512 59.864 101.208 61.832 100.6 63.56C99.992 65.288 99.112 66.744 97.96 67.928C96.808 69.08 95.416 69.96 93.784 70.568C92.152 71.176 90.296 71.48 88.216 71.48C86.296 71.48 84.52 71.176 82.888 70.568C81.288 69.96 79.896 69.08 78.712 67.928C77.56 66.744 76.648 65.288 75.976 63.56C75.336 61.832 75.016 59.864 75.016 57.656C75.016 54.712 75.544 52.232 76.6 50.216C77.688 48.168 79.224 46.616 81.208 45.56C83.192 44.504 85.576 43.976 88.36 43.976C90.92 43.976 93.176 44.504 95.128 45.56C97.112 46.616 98.664 48.168 99.784 50.216C100.936 52.232 101.512 54.712 101.512 57.656ZM84.328 57.656C84.328 59.16 84.456 60.44 84.712 61.496C84.968 62.552 85.384 63.352 85.96 63.896C86.568 64.408 87.352 64.664 88.312 64.664C89.272 64.664 90.024 64.408 90.568 63.896C91.144 63.352 91.56 62.552 91.816 61.496C92.072 60.44 92.2 59.16 92.2 57.656C92.2 56.152 92.072 54.888 91.816 53.864C91.56 52.84 91.144 52.072 90.568 51.56C89.992 51.048 89.224 50.792 88.264 50.792C86.888 50.792 85.88 51.368 85.24 52.52C84.632 53.672 84.328 55.384 84.328 57.656Z" fill="#9402C6"/>
<path d="M101.512 55.156C101.512 57.364 101.208 59.332 100.6 61.06C99.992 62.788 99.112 64.244 97.96 65.428C96.808 66.58 95.416 67.46 93.784 68.068C92.152 68.676 90.296 68.98 88.216 68.98C86.296 68.98 84.52 68.676 82.888 68.068C81.288 67.46 79.896 66.58 78.712 65.428C77.56 64.244 76.648 62.788 75.976 61.06C75.336 59.332 75.016 57.364 75.016 55.156C75.016 52.212 75.544 49.732 76.6 47.716C77.688 45.668 79.224 44.116 81.208 43.06C83.192 42.004 85.576 41.476 88.36 41.476C90.92 41.476 93.176 42.004 95.128 43.06C97.112 44.116 98.664 45.668 99.784 47.716C100.936 49.732 101.512 52.212 101.512 55.156ZM84.328 55.156C84.328 56.66 84.456 57.94 84.712 58.996C84.968 60.052 85.384 60.852 85.96 61.396C86.568 61.908 87.352 62.164 88.312 62.164C89.272 62.164 90.024 61.908 90.568 61.396C91.144 60.852 91.56 60.052 91.816 58.996C92.072 57.94 92.2 56.66 92.2 55.156C92.2 53.652 92.072 52.388 91.816 51.364C91.56 50.34 91.144 49.572 90.568 49.06C89.992 48.548 89.224 48.292 88.264 48.292C86.888 48.292 85.88 48.868 85.24 50.02C84.632 51.172 84.328 52.884 84.328 55.156Z" fill="#CD0099"/>
<path d="M101.512 52.656C101.512 54.864 101.208 56.832 100.6 58.56C99.992 60.288 99.112 61.744 97.96 62.928C96.808 64.08 95.416 64.96 93.784 65.568C92.152 66.176 90.296 66.48 88.216 66.48C86.296 66.48 84.52 66.176 82.888 65.568C81.288 64.96 79.896 64.08 78.712 62.928C77.56 61.744 76.648 60.288 75.976 58.56C75.336 56.832 75.016 54.864 75.016 52.656C75.016 49.712 75.544 47.232 76.6 45.216C77.688 43.168 79.224 41.616 81.208 40.56C83.192 39.504 85.576 38.976 88.36 38.976C90.92 38.976 93.176 39.504 95.128 40.56C97.112 41.616 98.664 43.168 99.784 45.216C100.936 47.232 101.512 49.712 101.512 52.656ZM84.328 52.656C84.328 54.16 84.456 55.44 84.712 56.496C84.968 57.552 85.384 58.352 85.96 58.896C86.568 59.408 87.352 59.664 88.312 59.664C89.272 59.664 90.024 59.408 90.568 58.896C91.144 58.352 91.56 57.552 91.816 56.496C92.072 55.44 92.2 54.16 92.2 52.656C92.2 51.152 92.072 49.888 91.816 48.864C91.56 47.84 91.144 47.072 90.568 46.56C89.992 46.048 89.224 45.792 88.264 45.792C86.888 45.792 85.88 46.368 85.24 47.52C84.632 48.672 84.328 50.384 84.328 52.656Z" fill="#E50061"/>
<path d="M101.512 50.156C101.512 52.364 101.208 54.332 100.6 56.06C99.992 57.788 99.112 59.244 97.96 60.428C96.808 61.58 95.416 62.46 93.784 63.068C92.152 63.676 90.296 63.98 88.216 63.98C86.296 63.98 84.52 63.676 82.888 63.068C81.288 62.46 79.896 61.58 78.712 60.428C77.56 59.244 76.648 57.788 75.976 56.06C75.336 54.332 75.016 52.364 75.016 50.156C75.016 47.212 75.544 44.732 76.6 42.716C77.688 40.668 79.224 39.116 81.208 38.06C83.192 37.004 85.576 36.476 88.36 36.476C90.92 36.476 93.176 37.004 95.128 38.06C97.112 39.116 98.664 40.668 99.784 42.716C100.936 44.732 101.512 47.212 101.512 50.156ZM84.328 50.156C84.328 51.66 84.456 52.94 84.712 53.996C84.968 55.052 85.384 55.852 85.96 56.396C86.568 56.908 87.352 57.164 88.312 57.164C89.272 57.164 90.024 56.908 90.568 56.396C91.144 55.852 91.56 55.052 91.816 53.996C92.072 52.94 92.2 51.66 92.2 50.156C92.2 48.652 92.072 47.388 91.816 46.364C91.56 45.34 91.144 44.572 90.568 44.06C89.992 43.548 89.224 43.292 88.264 43.292C86.888 43.292 85.88 43.868 85.24 45.02C84.632 46.172 84.328 47.884 84.328 50.156Z" fill="#E1290A"/>
<path d="M101.512 47.656C101.512 49.864 101.208 51.832 100.6 53.56C99.992 55.288 99.112 56.744 97.96 57.928C96.808 59.08 95.416 59.96 93.784 60.568C92.152 61.176 90.296 61.48 88.216 61.48C86.296 61.48 84.52 61.176 82.888 60.568C81.288 59.96 79.896 59.08 78.712 57.928C77.56 56.744 76.648 55.288 75.976 53.56C75.336 51.832 75.016 49.864 75.016 47.656C75.016 44.712 75.544 42.232 76.6 40.216C77.688 38.168 79.224 36.616 81.208 35.56C83.192 34.504 85.576 33.976 88.36 33.976C90.92 33.976 93.176 34.504 95.128 35.56C97.112 36.616 98.664 38.168 99.784 40.216C100.936 42.232 101.512 44.712 101.512 47.656ZM84.328 47.656C84.328 49.16 84.456 50.44 84.712 51.496C84.968 52.552 85.384 53.352 85.96 53.896C86.568 54.408 87.352 54.664 88.312 54.664C89.272 54.664 90.024 54.408 90.568 53.896C91.144 53.352 91.56 52.552 91.816 51.496C92.072 50.44 92.2 49.16 92.2 47.656C92.2 46.152 92.072 44.888 91.816 43.864C91.56 42.84 91.144 42.072 90.568 41.56C89.992 41.048 89.224 40.792 88.264 40.792C86.888 40.792 85.88 41.368 85.24 42.52C84.632 43.672 84.328 45.384 84.328 47.656Z" fill="#E05307"/>
<path d="M101.512 45.156C101.512 47.364 101.208 49.332 100.6 51.06C99.992 52.788 99.112 54.244 97.96 55.428C96.808 56.58 95.416 57.46 93.784 58.068C92.152 58.676 90.296 58.98 88.216 58.98C86.296 58.98 84.52 58.676 82.888 58.068C81.288 57.46 79.896 56.58 78.712 55.428C77.56 54.244 76.648 52.788 75.976 51.06C75.336 49.332 75.016 47.364 75.016 45.156C75.016 42.212 75.544 39.732 76.6 37.716C77.688 35.668 79.224 34.116 81.208 33.06C83.192 32.004 85.576 31.476 88.36 31.476C90.92 31.476 93.176 32.004 95.128 33.06C97.112 34.116 98.664 35.668 99.784 37.716C100.936 39.732 101.512 42.212 101.512 45.156ZM84.328 45.156C84.328 46.66 84.456 47.94 84.712 48.996C84.968 50.052 85.384 50.852 85.96 51.396C86.568 51.908 87.352 52.164 88.312 52.164C89.272 52.164 90.024 51.908 90.568 51.396C91.144 50.852 91.56 50.052 91.816 48.996C92.072 47.94 92.2 46.66 92.2 45.156C92.2 43.652 92.072 42.388 91.816 41.364C91.56 40.34 91.144 39.572 90.568 39.06C89.992 38.548 89.224 38.292 88.264 38.292C86.888 38.292 85.88 38.868 85.24 40.02C84.632 41.172 84.328 42.884 84.328 45.156Z" fill="#E27706"/>
<path d="M101.512 42.656C101.512 44.864 101.208 46.832 100.6 48.56C99.992 50.288 99.112 51.744 97.96 52.928C96.808 54.08 95.416 54.96 93.784 55.568C92.152 56.176 90.296 56.48 88.216 56.48C86.296 56.48 84.52 56.176 82.888 55.568C81.288 54.96 79.896 54.08 78.712 52.928C77.56 51.744 76.648 50.288 75.976 48.56C75.336 46.832 75.016 44.864 75.016 42.656C75.016 39.712 75.544 37.232 76.6 35.216C77.688 33.168 79.224 31.616 81.208 30.56C83.192 29.504 85.576 28.976 88.36 28.976C90.92 28.976 93.176 29.504 95.128 30.56C97.112 31.616 98.664 33.168 99.784 35.216C100.936 37.232 101.512 39.712 101.512 42.656ZM84.328 42.656C84.328 44.16 84.456 45.44 84.712 46.496C84.968 47.552 85.384 48.352 85.96 48.896C86.568 49.408 87.352 49.664 88.312 49.664C89.272 49.664 90.024 49.408 90.568 48.896C91.144 48.352 91.56 47.552 91.816 46.496C92.072 45.44 92.2 44.16 92.2 42.656C92.2 41.152 92.072 39.888 91.816 38.864C91.56 37.84 91.144 37.072 90.568 36.56C89.992 36.048 89.224 35.792 88.264 35.792C86.888 35.792 85.88 36.368 85.24 37.52C84.632 38.672 84.328 40.384 84.328 42.656Z" fill="#E0B516"/>
<path d="M101.512 40.156C101.512 42.364 101.208 44.332 100.6 46.06C99.992 47.788 99.112 49.244 97.96 50.428C96.808 51.58 95.416 52.46 93.784 53.068C92.152 53.676 90.296 53.98 88.216 53.98C86.296 53.98 84.52 53.676 82.888 53.068C81.288 52.46 79.896 51.58 78.712 50.428C77.56 49.244 76.648 47.788 75.976 46.06C75.336 44.332 75.016 42.364 75.016 40.156C75.016 37.212 75.544 34.732 76.6 32.716C77.688 30.668 79.224 29.116 81.208 28.06C83.192 27.004 85.576 26.476 88.36 26.476C90.92 26.476 93.176 27.004 95.128 28.06C97.112 29.116 98.664 30.668 99.784 32.716C100.936 34.732 101.512 37.212 101.512 40.156ZM84.328 40.156C84.328 41.66 84.456 42.94 84.712 43.996C84.968 45.052 85.384 45.852 85.96 46.396C86.568 46.908 87.352 47.164 88.312 47.164C89.272 47.164 90.024 46.908 90.568 46.396C91.144 45.852 91.56 45.052 91.816 43.996C92.072 42.94 92.2 41.66 92.2 40.156C92.2 38.652 92.072 37.388 91.816 36.364C91.56 35.34 91.144 34.572 90.568 34.06C89.992 33.548 89.224 33.292 88.264 33.292C86.888 33.292 85.88 33.868 85.24 35.02C84.632 36.172 84.328 37.884 84.328 40.156Z" fill="#FBCB15"/>
<path d="M101.512 37.656C101.512 39.864 101.208 41.832 100.6 43.56C99.992 45.288 99.112 46.744 97.96 47.928C96.808 49.08 95.416 49.96 93.784 50.568C92.152 51.176 90.296 51.48 88.216 51.48C86.296 51.48 84.52 51.176 82.888 50.568C81.288 49.96 79.896 49.08 78.712 47.928C77.56 46.744 76.648 45.288 75.976 43.56C75.336 41.832 75.016 39.864 75.016 37.656C75.016 34.712 75.544 32.232 76.6 30.216C77.688 28.168 79.224 26.616 81.208 25.56C83.192 24.504 85.576 23.976 88.36 23.976C90.92 23.976 93.176 24.504 95.128 25.56C97.112 26.616 98.664 28.168 99.784 30.216C100.936 32.232 101.512 34.712 101.512 37.656ZM84.328 37.656C84.328 39.16 84.456 40.44 84.712 41.496C84.968 42.552 85.384 43.352 85.96 43.896C86.568 44.408 87.352 44.664 88.312 44.664C89.272 44.664 90.024 44.408 90.568 43.896C91.144 43.352 91.56 42.552 91.816 41.496C92.072 40.44 92.2 39.16 92.2 37.656C92.2 36.152 92.072 34.888 91.816 33.864C91.56 32.84 91.144 32.072 90.568 31.56C89.992 31.048 89.224 30.792 88.264 30.792C86.888 30.792 85.88 31.368 85.24 32.52C84.632 33.672 84.328 35.384 84.328 37.656Z" fill="white"/>
<path d="M123.2 58.976C123.712 58.976 124.24 59.008 124.784 59.072C125.328 59.136 125.728 59.2 125.984 59.264L125.168 67.904C124.848 67.84 124.448 67.776 123.968 67.712C123.52 67.648 122.88 67.616 122.048 67.616C121.472 67.616 120.848 67.68 120.176 67.808C119.536 67.904 118.912 68.128 118.304 68.48C117.728 68.832 117.248 69.36 116.864 70.064C116.512 70.768 116.336 71.728 116.336 72.944V86H107.168V59.456H113.984L115.424 63.68H115.856C116.336 62.816 116.96 62.032 117.728 61.328C118.496 60.592 119.344 60.016 120.272 59.6C121.232 59.184 122.208 58.976 123.2 58.976Z" fill="#04AFD2"/>
<path d="M123.2 56.476C123.712 56.476 124.24 56.508 124.784 56.572C125.328 56.636 125.728 56.7 125.984 56.764L125.168 65.404C124.848 65.34 124.448 65.276 123.968 65.212C123.52 65.148 122.88 65.116 122.048 65.116C121.472 65.116 120.848 65.18 120.176 65.308C119.536 65.404 118.912 65.628 118.304 65.98C117.728 66.332 117.248 66.86 116.864 67.564C116.512 68.268 116.336 69.228 116.336 70.444V83.5H107.168V56.956H113.984L115.424 61.18H115.856C116.336 60.316 116.96 59.532 117.728 58.828C118.496 58.092 119.344 57.516 120.272 57.1C121.232 56.684 122.208 56.476 123.2 56.476Z" fill="#0472A7"/>
<path d="M123.2 53.976C123.712 53.976 124.24 54.008 124.784 54.072C125.328 54.136 125.728 54.2 125.984 54.264L125.168 62.904C124.848 62.84 124.448 62.776 123.968 62.712C123.52 62.648 122.88 62.616 122.048 62.616C121.472 62.616 120.848 62.68 120.176 62.808C119.536 62.904 118.912 63.128 118.304 63.48C117.728 63.832 117.248 64.36 116.864 65.064C116.512 65.768 116.336 66.728 116.336 67.944V81H107.168V54.456H113.984L115.424 58.68H115.856C116.336 57.816 116.96 57.032 117.728 56.328C118.496 55.592 119.344 55.016 120.272 54.6C121.232 54.184 122.208 53.976 123.2 53.976Z" fill="#063BA0"/>
<path d="M123.2 51.476C123.712 51.476 124.24 51.508 124.784 51.572C125.328 51.636 125.728 51.7 125.984 51.764L125.168 60.404C124.848 60.34 124.448 60.276 123.968 60.212C123.52 60.148 122.88 60.116 122.048 60.116C121.472 60.116 120.848 60.18 120.176 60.308C119.536 60.404 118.912 60.628 118.304 60.98C117.728 61.332 117.248 61.86 116.864 62.564C116.512 63.268 116.336 64.228 116.336 65.444V78.5H107.168V51.956H113.984L115.424 56.18H115.856C116.336 55.316 116.96 54.532 117.728 53.828C118.496 53.092 119.344 52.516 120.272 52.1C121.232 51.684 122.208 51.476 123.2 51.476Z" fill="#082990"/>
<path d="M123.2 48.976C123.712 48.976 124.24 49.008 124.784 49.072C125.328 49.136 125.728 49.2 125.984 49.264L125.168 57.904C124.848 57.84 124.448 57.776 123.968 57.712C123.52 57.648 122.88 57.616 122.048 57.616C121.472 57.616 120.848 57.68 120.176 57.808C119.536 57.904 118.912 58.128 118.304 58.48C117.728 58.832 117.248 59.36 116.864 60.064C116.512 60.768 116.336 61.728 116.336 62.944V76H107.168V49.456H113.984L115.424 53.68H115.856C116.336 52.816 116.96 52.032 117.728 51.328C118.496 50.592 119.344 50.016 120.272 49.6C121.232 49.184 122.208 48.976 123.2 48.976Z" fill="#1B0186"/>
<path d="M123.2 46.476C123.712 46.476 124.24 46.508 124.784 46.572C125.328 46.636 125.728 46.7 125.984 46.764L125.168 55.404C124.848 55.34 124.448 55.276 123.968 55.212C123.52 55.148 122.88 55.116 122.048 55.116C121.472 55.116 120.848 55.18 120.176 55.308C119.536 55.404 118.912 55.628 118.304 55.98C117.728 56.332 117.248 56.86 116.864 57.564C116.512 58.268 116.336 59.228 116.336 60.444V73.5H107.168V46.956H113.984L115.424 51.18H115.856C116.336 50.316 116.96 49.532 117.728 48.828C118.496 48.092 119.344 47.516 120.272 47.1C121.232 46.684 122.208 46.476 123.2 46.476Z" fill="#6002BE"/>
<path d="M123.2 43.976C123.712 43.976 124.24 44.008 124.784 44.072C125.328 44.136 125.728 44.2 125.984 44.264L125.168 52.904C124.848 52.84 124.448 52.776 123.968 52.712C123.52 52.648 122.88 52.616 122.048 52.616C121.472 52.616 120.848 52.68 120.176 52.808C119.536 52.904 118.912 53.128 118.304 53.48C117.728 53.832 117.248 54.36 116.864 55.064C116.512 55.768 116.336 56.728 116.336 57.944V71H107.168V44.456H113.984L115.424 48.68H115.856C116.336 47.816 116.96 47.032 117.728 46.328C118.496 45.592 119.344 45.016 120.272 44.6C121.232 44.184 122.208 43.976 123.2 43.976Z" fill="#9402C6"/>
<path d="M123.2 41.476C123.712 41.476 124.24 41.508 124.784 41.572C125.328 41.636 125.728 41.7 125.984 41.764L125.168 50.404C124.848 50.34 124.448 50.276 123.968 50.212C123.52 50.148 122.88 50.116 122.048 50.116C121.472 50.116 120.848 50.18 120.176 50.308C119.536 50.404 118.912 50.628 118.304 50.98C117.728 51.332 117.248 51.86 116.864 52.564C116.512 53.268 116.336 54.228 116.336 55.444V68.5H107.168V41.956H113.984L115.424 46.18H115.856C116.336 45.316 116.96 44.532 117.728 43.828C118.496 43.092 119.344 42.516 120.272 42.1C121.232 41.684 122.208 41.476 123.2 41.476Z" fill="#CD0099"/>
<path d="M123.2 38.976C123.712 38.976 124.24 39.008 124.784 39.072C125.328 39.136 125.728 39.2 125.984 39.264L125.168 47.904C124.848 47.84 124.448 47.776 123.968 47.712C123.52 47.648 122.88 47.616 122.048 47.616C121.472 47.616 120.848 47.68 120.176 47.808C119.536 47.904 118.912 48.128 118.304 48.48C117.728 48.832 117.248 49.36 116.864 50.064C116.512 50.768 116.336 51.728 116.336 52.944V66H107.168V39.456H113.984L115.424 43.68H115.856C116.336 42.816 116.96 42.032 117.728 41.328C118.496 40.592 119.344 40.016 120.272 39.6C121.232 39.184 122.208 38.976 123.2 38.976Z" fill="#E50061"/>
<path d="M123.2 36.476C123.712 36.476 124.24 36.508 124.784 36.572C125.328 36.636 125.728 36.7 125.984 36.764L125.168 45.404C124.848 45.34 124.448 45.276 123.968 45.212C123.52 45.148 122.88 45.116 122.048 45.116C121.472 45.116 120.848 45.18 120.176 45.308C119.536 45.404 118.912 45.628 118.304 45.98C117.728 46.332 117.248 46.86 116.864 47.564C116.512 48.268 116.336 49.228 116.336 50.444V63.5H107.168V36.956H113.984L115.424 41.18H115.856C116.336 40.316 116.96 39.532 117.728 38.828C118.496 38.092 119.344 37.516 120.272 37.1C121.232 36.684 122.208 36.476 123.2 36.476Z" fill="#E1290A"/>
<path d="M123.2 33.976C123.712 33.976 124.24 34.008 124.784 34.072C125.328 34.136 125.728 34.2 125.984 34.264L125.168 42.904C124.848 42.84 124.448 42.776 123.968 42.712C123.52 42.648 122.88 42.616 122.048 42.616C121.472 42.616 120.848 42.68 120.176 42.808C119.536 42.904 118.912 43.128 118.304 43.48C117.728 43.832 117.248 44.36 116.864 45.064C116.512 45.768 116.336 46.728 116.336 47.944V61H107.168V34.456H113.984L115.424 38.68H115.856C116.336 37.816 116.96 37.032 117.728 36.328C118.496 35.592 119.344 35.016 120.272 34.6C121.232 34.184 122.208 33.976 123.2 33.976Z" fill="#E05307"/>
<path d="M123.2 31.476C123.712 31.476 124.24 31.508 124.784 31.572C125.328 31.636 125.728 31.7 125.984 31.764L125.168 40.404C124.848 40.34 124.448 40.276 123.968 40.212C123.52 40.148 122.88 40.116 122.048 40.116C121.472 40.116 120.848 40.18 120.176 40.308C119.536 40.404 118.912 40.628 118.304 40.98C117.728 41.332 117.248 41.86 116.864 42.564C116.512 43.268 116.336 44.228 116.336 45.444V58.5H107.168V31.956H113.984L115.424 36.18H115.856C116.336 35.316 116.96 34.532 117.728 33.828C118.496 33.092 119.344 32.516 120.272 32.1C121.232 31.684 122.208 31.476 123.2 31.476Z" fill="#E27706"/>
<path d="M123.2 28.976C123.712 28.976 124.24 29.008 124.784 29.072C125.328 29.136 125.728 29.2 125.984 29.264L125.168 37.904C124.848 37.84 124.448 37.776 123.968 37.712C123.52 37.648 122.88 37.616 122.048 37.616C121.472 37.616 120.848 37.68 120.176 37.808C119.536 37.904 118.912 38.128 118.304 38.48C117.728 38.832 117.248 39.36 116.864 40.064C116.512 40.768 116.336 41.728 116.336 42.944V56H107.168V29.456H113.984L115.424 33.68H115.856C116.336 32.816 116.96 32.032 117.728 31.328C118.496 30.592 119.344 30.016 120.272 29.6C121.232 29.184 122.208 28.976 123.2 28.976Z" fill="#E0B516"/>
<path d="M123.2 26.476C123.712 26.476 124.24 26.508 124.784 26.572C125.328 26.636 125.728 26.7 125.984 26.764L125.168 35.404C124.848 35.34 124.448 35.276 123.968 35.212C123.52 35.148 122.88 35.116 122.048 35.116C121.472 35.116 120.848 35.18 120.176 35.308C119.536 35.404 118.912 35.628 118.304 35.98C117.728 36.332 117.248 36.86 116.864 37.564C116.512 38.268 116.336 39.228 116.336 40.444V53.5H107.168V26.956H113.984L115.424 31.18H115.856C116.336 30.316 116.96 29.532 117.728 28.828C118.496 28.092 119.344 27.516 120.272 27.1C121.232 26.684 122.208 26.476 123.2 26.476Z" fill="#FBCB15"/>
<path d="M123.2 23.976C123.712 23.976 124.24 24.008 124.784 24.072C125.328 24.136 125.728 24.2 125.984 24.264L125.168 32.904C124.848 32.84 124.448 32.776 123.968 32.712C123.52 32.648 122.88 32.616 122.048 32.616C121.472 32.616 120.848 32.68 120.176 32.808C119.536 32.904 118.912 33.128 118.304 33.48C117.728 33.832 117.248 34.36 116.864 35.064C116.512 35.768 116.336 36.728 116.336 37.944V51H107.168V24.456H113.984L115.424 28.68H115.856C116.336 27.816 116.96 27.032 117.728 26.328C118.496 25.592 119.344 25.016 120.272 24.6C121.232 24.184 122.208 23.976 123.2 23.976Z" fill="white"/>
<path d="M139.384 59.456V86H130.216V59.456H139.384ZM134.824 48.752C136.136 48.752 137.272 49.024 138.232 49.568C139.224 50.112 139.72 51.2 139.72 52.832C139.72 54.4 139.224 55.472 138.232 56.048C137.272 56.592 136.136 56.864 134.824 56.864C133.48 56.864 132.328 56.592 131.368 56.048C130.44 55.472 129.976 54.4 129.976 52.832C129.976 51.2 130.44 50.112 131.368 49.568C132.328 49.024 133.48 48.752 134.824 48.752Z" fill="#04AFD2"/>
<path d="M139.384 56.956V83.5H130.216V56.956H139.384ZM134.824 46.252C136.136 46.252 137.272 46.524 138.232 47.068C139.224 47.612 139.72 48.7 139.72 50.332C139.72 51.9 139.224 52.972 138.232 53.548C137.272 54.092 136.136 54.364 134.824 54.364C133.48 54.364 132.328 54.092 131.368 53.548C130.44 52.972 129.976 51.9 129.976 50.332C129.976 48.7 130.44 47.612 131.368 47.068C132.328 46.524 133.48 46.252 134.824 46.252Z" fill="#0472A7"/>
<path d="M139.384 54.456V81H130.216V54.456H139.384ZM134.824 43.752C136.136 43.752 137.272 44.024 138.232 44.568C139.224 45.112 139.72 46.2 139.72 47.832C139.72 49.4 139.224 50.472 138.232 51.048C137.272 51.592 136.136 51.864 134.824 51.864C133.48 51.864 132.328 51.592 131.368 51.048C130.44 50.472 129.976 49.4 129.976 47.832C129.976 46.2 130.44 45.112 131.368 44.568C132.328 44.024 133.48 43.752 134.824 43.752Z" fill="#063BA0"/>
<path d="M139.384 51.956V78.5H130.216V51.956H139.384ZM134.824 41.252C136.136 41.252 137.272 41.524 138.232 42.068C139.224 42.612 139.72 43.7 139.72 45.332C139.72 46.9 139.224 47.972 138.232 48.548C137.272 49.092 136.136 49.364 134.824 49.364C133.48 49.364 132.328 49.092 131.368 48.548C130.44 47.972 129.976 46.9 129.976 45.332C129.976 43.7 130.44 42.612 131.368 42.068C132.328 41.524 133.48 41.252 134.824 41.252Z" fill="#082990"/>
<path d="M139.384 49.456V76H130.216V49.456H139.384ZM134.824 38.752C136.136 38.752 137.272 39.024 138.232 39.568C139.224 40.112 139.72 41.2 139.72 42.832C139.72 44.4 139.224 45.472 138.232 46.048C137.272 46.592 136.136 46.864 134.824 46.864C133.48 46.864 132.328 46.592 131.368 46.048C130.44 45.472 129.976 44.4 129.976 42.832C129.976 41.2 130.44 40.112 131.368 39.568C132.328 39.024 133.48 38.752 134.824 38.752Z" fill="#1B0186"/>
<path d="M139.384 46.956V73.5H130.216V46.956H139.384ZM134.824 36.252C136.136 36.252 137.272 36.524 138.232 37.068C139.224 37.612 139.72 38.7 139.72 40.332C139.72 41.9 139.224 42.972 138.232 43.548C137.272 44.092 136.136 44.364 134.824 44.364C133.48 44.364 132.328 44.092 131.368 43.548C130.44 42.972 129.976 41.9 129.976 40.332C129.976 38.7 130.44 37.612 131.368 37.068C132.328 36.524 133.48 36.252 134.824 36.252Z" fill="#6002BE"/>
<path d="M139.384 44.456V71H130.216V44.456H139.384ZM134.824 33.752C136.136 33.752 137.272 34.024 138.232 34.568C139.224 35.112 139.72 36.2 139.72 37.832C139.72 39.4 139.224 40.472 138.232 41.048C137.272 41.592 136.136 41.864 134.824 41.864C133.48 41.864 132.328 41.592 131.368 41.048C130.44 40.472 129.976 39.4 129.976 37.832C129.976 36.2 130.44 35.112 131.368 34.568C132.328 34.024 133.48 33.752 134.824 33.752Z" fill="#9402C6"/>
<path d="M139.384 41.956V68.5H130.216V41.956H139.384ZM134.824 31.252C136.136 31.252 137.272 31.524 138.232 32.068C139.224 32.612 139.72 33.7 139.72 35.332C139.72 36.9 139.224 37.972 138.232 38.548C137.272 39.092 136.136 39.364 134.824 39.364C133.48 39.364 132.328 39.092 131.368 38.548C130.44 37.972 129.976 36.9 129.976 35.332C129.976 33.7 130.44 32.612 131.368 32.068C132.328 31.524 133.48 31.252 134.824 31.252Z" fill="#CD0099"/>
<path d="M139.384 39.456V66H130.216V39.456H139.384ZM134.824 28.752C136.136 28.752 137.272 29.024 138.232 29.568C139.224 30.112 139.72 31.2 139.72 32.832C139.72 34.4 139.224 35.472 138.232 36.048C137.272 36.592 136.136 36.864 134.824 36.864C133.48 36.864 132.328 36.592 131.368 36.048C130.44 35.472 129.976 34.4 129.976 32.832C129.976 31.2 130.44 30.112 131.368 29.568C132.328 29.024 133.48 28.752 134.824 28.752Z" fill="#E50061"/>
<path d="M139.384 36.956V63.5H130.216V36.956H139.384ZM134.824 26.252C136.136 26.252 137.272 26.524 138.232 27.068C139.224 27.612 139.72 28.7 139.72 30.332C139.72 31.9 139.224 32.972 138.232 33.548C137.272 34.092 136.136 34.364 134.824 34.364C133.48 34.364 132.328 34.092 131.368 33.548C130.44 32.972 129.976 31.9 129.976 30.332C129.976 28.7 130.44 27.612 131.368 27.068C132.328 26.524 133.48 26.252 134.824 26.252Z" fill="#E1290A"/>
<path d="M139.384 34.456V61H130.216V34.456H139.384ZM134.824 23.752C136.136 23.752 137.272 24.024 138.232 24.568C139.224 25.112 139.72 26.2 139.72 27.832C139.72 29.4 139.224 30.472 138.232 31.048C137.272 31.592 136.136 31.864 134.824 31.864C133.48 31.864 132.328 31.592 131.368 31.048C130.44 30.472 129.976 29.4 129.976 27.832C129.976 26.2 130.44 25.112 131.368 24.568C132.328 24.024 133.48 23.752 134.824 23.752Z" fill="#E05307"/>
<path d="M139.384 31.956V58.5H130.216V31.956H139.384ZM134.824 21.252C136.136 21.252 137.272 21.524 138.232 22.068C139.224 22.612 139.72 23.7 139.72 25.332C139.72 26.9 139.224 27.972 138.232 28.548C137.272 29.092 136.136 29.364 134.824 29.364C133.48 29.364 132.328 29.092 131.368 28.548C130.44 27.972 129.976 26.9 129.976 25.332C129.976 23.7 130.44 22.612 131.368 22.068C132.328 21.524 133.48 21.252 134.824 21.252Z" fill="#E27706"/>
<path d="M139.384 29.456V56H130.216V29.456H139.384ZM134.824 18.752C136.136 18.752 137.272 19.024 138.232 19.568C139.224 20.112 139.72 21.2 139.72 22.832C139.72 24.4 139.224 25.472 138.232 26.048C137.272 26.592 136.136 26.864 134.824 26.864C133.48 26.864 132.328 26.592 131.368 26.048C130.44 25.472 129.976 24.4 129.976 22.832C129.976 21.2 130.44 20.112 131.368 19.568C132.328 19.024 133.48 18.752 134.824 18.752Z" fill="#E0B516"/>
<path d="M139.384 26.956V53.5H130.216V26.956H139.384ZM134.824 16.252C136.136 16.252 137.272 16.524 138.232 17.068C139.224 17.612 139.72 18.7 139.72 20.332C139.72 21.9 139.224 22.972 138.232 23.548C137.272 24.092 136.136 24.364 134.824 24.364C133.48 24.364 132.328 24.092 131.368 23.548C130.44 22.972 129.976 21.9 129.976 20.332C129.976 18.7 130.44 17.612 131.368 17.068C132.328 16.524 133.48 16.252 134.824 16.252Z" fill="#FBCB15"/>
<path d="M139.384 24.456V51H130.216V24.456H139.384ZM134.824 13.752C136.136 13.752 137.272 14.024 138.232 14.568C139.224 15.112 139.72 16.2 139.72 17.832C139.72 19.4 139.224 20.472 138.232 21.048C137.272 21.592 136.136 21.864 134.824 21.864C133.48 21.864 132.328 21.592 131.368 21.048C130.44 20.472 129.976 19.4 129.976 17.832C129.976 16.2 130.44 15.112 131.368 14.568C132.328 14.024 133.48 13.752 134.824 13.752Z" fill="white"/>
<path d="M166.136 86H144.152V80.768L155.144 66.464H144.776V59.456H165.608V65.12L155.096 78.992H166.136V86Z" fill="#04AFD2"/>
<path d="M166.136 83.5H144.152V78.268L155.144 63.964H144.776V56.956H165.608V62.62L155.096 76.492H166.136V83.5Z" fill="#0472A7"/>
<path d="M166.136 81H144.152V75.768L155.144 61.464H144.776V54.456H165.608V60.12L155.096 73.992H166.136V81Z" fill="#063BA0"/>
<path d="M166.136 78.5H144.152V73.268L155.144 58.964H144.776V51.956H165.608V57.62L155.096 71.492H166.136V78.5Z" fill="#082990"/>
<path d="M166.136 76H144.152V70.768L155.144 56.464H144.776V49.456H165.608V55.12L155.096 68.992H166.136V76Z" fill="#1B0186"/>
<path d="M166.136 73.5H144.152V68.268L155.144 53.964H144.776V46.956H165.608V52.62L155.096 66.492H166.136V73.5Z" fill="#6002BE"/>
<path d="M166.136 71H144.152V65.768L155.144 51.464H144.776V44.456H165.608V50.12L155.096 63.992H166.136V71Z" fill="#9402C6"/>
<path d="M166.136 68.5H144.152V63.268L155.144 48.964H144.776V41.956H165.608V47.62L155.096 61.492H166.136V68.5Z" fill="#CD0099"/>
<path d="M166.136 66H144.152V60.768L155.144 46.464H144.776V39.456H165.608V45.12L155.096 58.992H166.136V66Z" fill="#E50061"/>
<path d="M166.136 63.5H144.152V58.268L155.144 43.964H144.776V36.956H165.608V42.62L155.096 56.492H166.136V63.5Z" fill="#E1290A"/>
<path d="M166.136 61H144.152V55.768L155.144 41.464H144.776V34.456H165.608V40.12L155.096 53.992H166.136V61Z" fill="#E05307"/>
<path d="M166.136 58.5H144.152V53.268L155.144 38.964H144.776V31.956H165.608V37.62L155.096 51.492H166.136V58.5Z" fill="#E27706"/>
<path d="M166.136 56H144.152V50.768L155.144 36.464H144.776V29.456H165.608V35.12L155.096 48.992H166.136V56Z" fill="#E0B516"/>
<path d="M166.136 53.5H144.152V48.268L155.144 33.964H144.776V26.956H165.608V32.62L155.096 46.492H166.136V53.5Z" fill="#FBCB15"/>
<path d="M166.136 51H144.152V45.768L155.144 31.464H144.776V24.456H165.608V30.12L155.096 43.992H166.136V51Z" fill="white"/>
<path d="M183.12 58.976C185.712 58.976 187.936 59.424 189.792 60.32C191.68 61.216 193.12 62.56 194.112 64.352C195.136 66.144 195.648 68.4 195.648 71.12V75.2H179.28C179.344 76.576 179.856 77.712 180.816 78.608C181.808 79.504 183.232 79.952 185.088 79.952C186.752 79.952 188.272 79.792 189.648 79.472C191.024 79.152 192.448 78.64 193.92 77.936V84.512C192.64 85.184 191.232 85.68 189.696 86C188.192 86.32 186.288 86.48 183.984 86.48C181.296 86.48 178.896 86.016 176.784 85.088C174.704 84.128 173.056 82.64 171.84 80.624C170.624 78.608 170.016 76.032 170.016 72.896C170.016 69.696 170.56 67.072 171.648 65.024C172.768 62.976 174.304 61.456 176.256 60.464C178.24 59.472 180.528 58.976 183.12 58.976ZM183.456 65.216C182.368 65.216 181.456 65.552 180.72 66.224C180.016 66.896 179.6 67.968 179.472 69.44H187.344C187.344 68.64 187.184 67.936 186.864 67.328C186.576 66.688 186.144 66.176 185.568 65.792C184.992 65.408 184.288 65.216 183.456 65.216Z" fill="#04AFD2"/>
<path d="M183.12 56.476C185.712 56.476 187.936 56.924 189.792 57.82C191.68 58.716 193.12 60.06 194.112 61.852C195.136 63.644 195.648 65.9 195.648 68.62V72.7H179.28C179.344 74.076 179.856 75.212 180.816 76.108C181.808 77.004 183.232 77.452 185.088 77.452C186.752 77.452 188.272 77.292 189.648 76.972C191.024 76.652 192.448 76.14 193.92 75.436V82.012C192.64 82.684 191.232 83.18 189.696 83.5C188.192 83.82 186.288 83.98 183.984 83.98C181.296 83.98 178.896 83.516 176.784 82.588C174.704 81.628 173.056 80.14 171.84 78.124C170.624 76.108 170.016 73.532 170.016 70.396C170.016 67.196 170.56 64.572 171.648 62.524C172.768 60.476 174.304 58.956 176.256 57.964C178.24 56.972 180.528 56.476 183.12 56.476ZM183.456 62.716C182.368 62.716 181.456 63.052 180.72 63.724C180.016 64.396 179.6 65.468 179.472 66.94H187.344C187.344 66.14 187.184 65.436 186.864 64.828C186.576 64.188 186.144 63.676 185.568 63.292C184.992 62.908 184.288 62.716 183.456 62.716Z" fill="#0472A7"/>
<path d="M183.12 53.976C185.712 53.976 187.936 54.424 189.792 55.32C191.68 56.216 193.12 57.56 194.112 59.352C195.136 61.144 195.648 63.4 195.648 66.12V70.2H179.28C179.344 71.576 179.856 72.712 180.816 73.608C181.808 74.504 183.232 74.952 185.088 74.952C186.752 74.952 188.272 74.792 189.648 74.472C191.024 74.152 192.448 73.64 193.92 72.936V79.512C192.64 80.184 191.232 80.68 189.696 81C188.192 81.32 186.288 81.48 183.984 81.48C181.296 81.48 178.896 81.016 176.784 80.088C174.704 79.128 173.056 77.64 171.84 75.624C170.624 73.608 170.016 71.032 170.016 67.896C170.016 64.696 170.56 62.072 171.648 60.024C172.768 57.976 174.304 56.456 176.256 55.464C178.24 54.472 180.528 53.976 183.12 53.976ZM183.456 60.216C182.368 60.216 181.456 60.552 180.72 61.224C180.016 61.896 179.6 62.968 179.472 64.44H187.344C187.344 63.64 187.184 62.936 186.864 62.328C186.576 61.688 186.144 61.176 185.568 60.792C184.992 60.408 184.288 60.216 183.456 60.216Z" fill="#063BA0"/>
<path d="M183.12 51.476C185.712 51.476 187.936 51.924 189.792 52.82C191.68 53.716 193.12 55.06 194.112 56.852C195.136 58.644 195.648 60.9 195.648 63.62V67.7H179.28C179.344 69.076 179.856 70.212 180.816 71.108C181.808 72.004 183.232 72.452 185.088 72.452C186.752 72.452 188.272 72.292 189.648 71.972C191.024 71.652 192.448 71.14 193.92 70.436V77.012C192.64 77.684 191.232 78.18 189.696 78.5C188.192 78.82 186.288 78.98 183.984 78.98C181.296 78.98 178.896 78.516 176.784 77.588C174.704 76.628 173.056 75.14 171.84 73.124C170.624 71.108 170.016 68.532 170.016 65.396C170.016 62.196 170.56 59.572 171.648 57.524C172.768 55.476 174.304 53.956 176.256 52.964C178.24 51.972 180.528 51.476 183.12 51.476ZM183.456 57.716C182.368 57.716 181.456 58.052 180.72 58.724C180.016 59.396 179.6 60.468 179.472 61.94H187.344C187.344 61.14 187.184 60.436 186.864 59.828C186.576 59.188 186.144 58.676 185.568 58.292C184.992 57.908 184.288 57.716 183.456 57.716Z" fill="#082990"/>
<path d="M183.12 48.976C185.712 48.976 187.936 49.424 189.792 50.32C191.68 51.216 193.12 52.56 194.112 54.352C195.136 56.144 195.648 58.4 195.648 61.12V65.2H179.28C179.344 66.576 179.856 67.712 180.816 68.608C181.808 69.504 183.232 69.952 185.088 69.952C186.752 69.952 188.272 69.792 189.648 69.472C191.024 69.152 192.448 68.64 193.92 67.936V74.512C192.64 75.184 191.232 75.68 189.696 76C188.192 76.32 186.288 76.48 183.984 76.48C181.296 76.48 178.896 76.016 176.784 75.088C174.704 74.128 173.056 72.64 171.84 70.624C170.624 68.608 170.016 66.032 170.016 62.896C170.016 59.696 170.56 57.072 171.648 55.024C172.768 52.976 174.304 51.456 176.256 50.464C178.24 49.472 180.528 48.976 183.12 48.976ZM183.456 55.216C182.368 55.216 181.456 55.552 180.72 56.224C180.016 56.896 179.6 57.968 179.472 59.44H187.344C187.344 58.64 187.184 57.936 186.864 57.328C186.576 56.688 186.144 56.176 185.568 55.792C184.992 55.408 184.288 55.216 183.456 55.216Z" fill="#1B0186"/>
<path d="M183.12 46.476C185.712 46.476 187.936 46.924 189.792 47.82C191.68 48.716 193.12 50.06 194.112 51.852C195.136 53.644 195.648 55.9 195.648 58.62V62.7H179.28C179.344 64.076 179.856 65.212 180.816 66.108C181.808 67.004 183.232 67.452 185.088 67.452C186.752 67.452 188.272 67.292 189.648 66.972C191.024 66.652 192.448 66.14 193.92 65.436V72.012C192.64 72.684 191.232 73.18 189.696 73.5C188.192 73.82 186.288 73.98 183.984 73.98C181.296 73.98 178.896 73.516 176.784 72.588C174.704 71.628 173.056 70.14 171.84 68.124C170.624 66.108 170.016 63.532 170.016 60.396C170.016 57.196 170.56 54.572 171.648 52.524C172.768 50.476 174.304 48.956 176.256 47.964C178.24 46.972 180.528 46.476 183.12 46.476ZM183.456 52.716C182.368 52.716 181.456 53.052 180.72 53.724C180.016 54.396 179.6 55.468 179.472 56.94H187.344C187.344 56.14 187.184 55.436 186.864 54.828C186.576 54.188 186.144 53.676 185.568 53.292C184.992 52.908 184.288 52.716 183.456 52.716Z" fill="#6002BE"/>
<path d="M183.12 43.976C185.712 43.976 187.936 44.424 189.792 45.32C191.68 46.216 193.12 47.56 194.112 49.352C195.136 51.144 195.648 53.4 195.648 56.12V60.2H179.28C179.344 61.576 179.856 62.712 180.816 63.608C181.808 64.504 183.232 64.952 185.088 64.952C186.752 64.952 188.272 64.792 189.648 64.472C191.024 64.152 192.448 63.64 193.92 62.936V69.512C192.64 70.184 191.232 70.68 189.696 71C188.192 71.32 186.288 71.48 183.984 71.48C181.296 71.48 178.896 71.016 176.784 70.088C174.704 69.128 173.056 67.64 171.84 65.624C170.624 63.608 170.016 61.032 170.016 57.896C170.016 54.696 170.56 52.072 171.648 50.024C172.768 47.976 174.304 46.456 176.256 45.464C178.24 44.472 180.528 43.976 183.12 43.976ZM183.456 50.216C182.368 50.216 181.456 50.552 180.72 51.224C180.016 51.896 179.6 52.968 179.472 54.44H187.344C187.344 53.64 187.184 52.936 186.864 52.328C186.576 51.688 186.144 51.176 185.568 50.792C184.992 50.408 184.288 50.216 183.456 50.216Z" fill="#9402C6"/>
<path d="M183.12 41.476C185.712 41.476 187.936 41.924 189.792 42.82C191.68 43.716 193.12 45.06 194.112 46.852C195.136 48.644 195.648 50.9 195.648 53.62V57.7H179.28C179.344 59.076 179.856 60.212 180.816 61.108C181.808 62.004 183.232 62.452 185.088 62.452C186.752 62.452 188.272 62.292 189.648 61.972C191.024 61.652 192.448 61.14 193.92 60.436V67.012C192.64 67.684 191.232 68.18 189.696 68.5C188.192 68.82 186.288 68.98 183.984 68.98C181.296 68.98 178.896 68.516 176.784 67.588C174.704 66.628 173.056 65.14 171.84 63.124C170.624 61.108 170.016 58.532 170.016 55.396C170.016 52.196 170.56 49.572 171.648 47.524C172.768 45.476 174.304 43.956 176.256 42.964C178.24 41.972 180.528 41.476 183.12 41.476ZM183.456 47.716C182.368 47.716 181.456 48.052 180.72 48.724C180.016 49.396 179.6 50.468 179.472 51.94H187.344C187.344 51.14 187.184 50.436 186.864 49.828C186.576 49.188 186.144 48.676 185.568 48.292C184.992 47.908 184.288 47.716 183.456 47.716Z" fill="#CD0099"/>
<path d="M183.12 38.976C185.712 38.976 187.936 39.424 189.792 40.32C191.68 41.216 193.12 42.56 194.112 44.352C195.136 46.144 195.648 48.4 195.648 51.12V55.2H179.28C179.344 56.576 179.856 57.712 180.816 58.608C181.808 59.504 183.232 59.952 185.088 59.952C186.752 59.952 188.272 59.792 189.648 59.472C191.024 59.152 192.448 58.64 193.92 57.936V64.512C192.64 65.184 191.232 65.68 189.696 66C188.192 66.32 186.288 66.48 183.984 66.48C181.296 66.48 178.896 66.016 176.784 65.088C174.704 64.128 173.056 62.64 171.84 60.624C170.624 58.608 170.016 56.032 170.016 52.896C170.016 49.696 170.56 47.072 171.648 45.024C172.768 42.976 174.304 41.456 176.256 40.464C178.24 39.472 180.528 38.976 183.12 38.976ZM183.456 45.216C182.368 45.216 181.456 45.552 180.72 46.224C180.016 46.896 179.6 47.968 179.472 49.44H187.344C187.344 48.64 187.184 47.936 186.864 47.328C186.576 46.688 186.144 46.176 185.568 45.792C184.992 45.408 184.288 45.216 183.456 45.216Z" fill="#E50061"/>
<path d="M183.12 36.476C185.712 36.476 187.936 36.924 189.792 37.82C191.68 38.716 193.12 40.06 194.112 41.852C195.136 43.644 195.648 45.9 195.648 48.62V52.7H179.28C179.344 54.076 179.856 55.212 180.816 56.108C181.808 57.004 183.232 57.452 185.088 57.452C186.752 57.452 188.272 57.292 189.648 56.972C191.024 56.652 192.448 56.14 193.92 55.436V62.012C192.64 62.684 191.232 63.18 189.696 63.5C188.192 63.82 186.288 63.98 183.984 63.98C181.296 63.98 178.896 63.516 176.784 62.588C174.704 61.628 173.056 60.14 171.84 58.124C170.624 56.108 170.016 53.532 170.016 50.396C170.016 47.196 170.56 44.572 171.648 42.524C172.768 40.476 174.304 38.956 176.256 37.964C178.24 36.972 180.528 36.476 183.12 36.476ZM183.456 42.716C182.368 42.716 181.456 43.052 180.72 43.724C180.016 44.396 179.6 45.468 179.472 46.94H187.344C187.344 46.14 187.184 45.436 186.864 44.828C186.576 44.188 186.144 43.676 185.568 43.292C184.992 42.908 184.288 42.716 183.456 42.716Z" fill="#E1290A"/>
<path d="M183.12 33.976C185.712 33.976 187.936 34.424 189.792 35.32C191.68 36.216 193.12 37.56 194.112 39.352C195.136 41.144 195.648 43.4 195.648 46.12V50.2H179.28C179.344 51.576 179.856 52.712 180.816 53.608C181.808 54.504 183.232 54.952 185.088 54.952C186.752 54.952 188.272 54.792 189.648 54.472C191.024 54.152 192.448 53.64 193.92 52.936V59.512C192.64 60.184 191.232 60.68 189.696 61C188.192 61.32 186.288 61.48 183.984 61.48C181.296 61.48 178.896 61.016 176.784 60.088C174.704 59.128 173.056 57.64 171.84 55.624C170.624 53.608 170.016 51.032 170.016 47.896C170.016 44.696 170.56 42.072 171.648 40.024C172.768 37.976 174.304 36.456 176.256 35.464C178.24 34.472 180.528 33.976 183.12 33.976ZM183.456 40.216C182.368 40.216 181.456 40.552 180.72 41.224C180.016 41.896 179.6 42.968 179.472 44.44H187.344C187.344 43.64 187.184 42.936 186.864 42.328C186.576 41.688 186.144 41.176 185.568 40.792C184.992 40.408 184.288 40.216 183.456 40.216Z" fill="#E05307"/>
<path d="M183.12 31.476C185.712 31.476 187.936 31.924 189.792 32.82C191.68 33.716 193.12 35.06 194.112 36.852C195.136 38.644 195.648 40.9 195.648 43.62V47.7H179.28C179.344 49.076 179.856 50.212 180.816 51.108C181.808 52.004 183.232 52.452 185.088 52.452C186.752 52.452 188.272 52.292 189.648 51.972C191.024 51.652 192.448 51.14 193.92 50.436V57.012C192.64 57.684 191.232 58.18 189.696 58.5C188.192 58.82 186.288 58.98 183.984 58.98C181.296 58.98 178.896 58.516 176.784 57.588C174.704 56.628 173.056 55.14 171.84 53.124C170.624 51.108 170.016 48.532 170.016 45.396C170.016 42.196 170.56 39.572 171.648 37.524C172.768 35.476 174.304 33.956 176.256 32.964C178.24 31.972 180.528 31.476 183.12 31.476ZM183.456 37.716C182.368 37.716 181.456 38.052 180.72 38.724C180.016 39.396 179.6 40.468 179.472 41.94H187.344C187.344 41.14 187.184 40.436 186.864 39.828C186.576 39.188 186.144 38.676 185.568 38.292C184.992 37.908 184.288 37.716 183.456 37.716Z" fill="#E27706"/>
<path d="M183.12 28.976C185.712 28.976 187.936 29.424 189.792 30.32C191.68 31.216 193.12 32.56 194.112 34.352C195.136 36.144 195.648 38.4 195.648 41.12V45.2H179.28C179.344 46.576 179.856 47.712 180.816 48.608C181.808 49.504 183.232 49.952 185.088 49.952C186.752 49.952 188.272 49.792 189.648 49.472C191.024 49.152 192.448 48.64 193.92 47.936V54.512C192.64 55.184 191.232 55.68 189.696 56C188.192 56.32 186.288 56.48 183.984 56.48C181.296 56.48 178.896 56.016 176.784 55.088C174.704 54.128 173.056 52.64 171.84 50.624C170.624 48.608 170.016 46.032 170.016 42.896C170.016 39.696 170.56 37.072 171.648 35.024C172.768 32.976 174.304 31.456 176.256 30.464C178.24 29.472 180.528 28.976 183.12 28.976ZM183.456 35.216C182.368 35.216 181.456 35.552 180.72 36.224C180.016 36.896 179.6 37.968 179.472 39.44H187.344C187.344 38.64 187.184 37.936 186.864 37.328C186.576 36.688 186.144 36.176 185.568 35.792C184.992 35.408 184.288 35.216 183.456 35.216Z" fill="#E0B516"/>
<path d="M183.12 26.476C185.712 26.476 187.936 26.924 189.792 27.82C191.68 28.716 193.12 30.06 194.112 31.852C195.136 33.644 195.648 35.9 195.648 38.62V42.7H179.28C179.344 44.076 179.856 45.212 180.816 46.108C181.808 47.004 183.232 47.452 185.088 47.452C186.752 47.452 188.272 47.292 189.648 46.972C191.024 46.652 192.448 46.14 193.92 45.436V52.012C192.64 52.684 191.232 53.18 189.696 53.5C188.192 53.82 186.288 53.98 183.984 53.98C181.296 53.98 178.896 53.516 176.784 52.588C174.704 51.628 173.056 50.14 171.84 48.124C170.624 46.108 170.016 43.532 170.016 40.396C170.016 37.196 170.56 34.572 171.648 32.524C172.768 30.476 174.304 28.956 176.256 27.964C178.24 26.972 180.528 26.476 183.12 26.476ZM183.456 32.716C182.368 32.716 181.456 33.052 180.72 33.724C180.016 34.396 179.6 35.468 179.472 36.94H187.344C187.344 36.14 187.184 35.436 186.864 34.828C186.576 34.188 186.144 33.676 185.568 33.292C184.992 32.908 184.288 32.716 183.456 32.716Z" fill="#FBCB15"/>
<path d="M183.12 23.976C185.712 23.976 187.936 24.424 189.792 25.32C191.68 26.216 193.12 27.56 194.112 29.352C195.136 31.144 195.648 33.4 195.648 36.12V40.2H179.28C179.344 41.576 179.856 42.712 180.816 43.608C181.808 44.504 183.232 44.952 185.088 44.952C186.752 44.952 188.272 44.792 189.648 44.472C191.024 44.152 192.448 43.64 193.92 42.936V49.512C192.64 50.184 191.232 50.68 189.696 51C188.192 51.32 186.288 51.48 183.984 51.48C181.296 51.48 178.896 51.016 176.784 50.088C174.704 49.128 173.056 47.64 171.84 45.624C170.624 43.608 170.016 41.032 170.016 37.896C170.016 34.696 170.56 32.072 171.648 30.024C172.768 27.976 174.304 26.456 176.256 25.464C178.24 24.472 180.528 23.976 183.12 23.976ZM183.456 30.216C182.368 30.216 181.456 30.552 180.72 31.224C180.016 31.896 179.6 32.968 179.472 34.44H187.344C187.344 33.64 187.184 32.936 186.864 32.328C186.576 31.688 186.144 31.176 185.568 30.792C184.992 30.408 184.288 30.216 183.456 30.216Z" fill="white"/>
<path d="M209.424 86.48C206.704 86.48 204.448 85.312 202.656 82.976C200.896 80.64 200.016 77.232 200.016 72.752C200.016 68.208 200.912 64.784 202.704 62.48C204.528 60.144 206.88 58.976 209.76 58.976C210.944 58.976 211.968 59.152 212.832 59.504C213.696 59.824 214.448 60.288 215.088 60.896C215.728 61.472 216.272 62.128 216.72 62.864H216.912C216.784 62.192 216.672 61.264 216.576 60.08C216.512 58.896 216.48 57.744 216.48 56.624V49.52H225.696V86H218.784L216.816 82.64H216.48C216.064 83.344 215.536 83.984 214.896 84.56C214.256 85.136 213.488 85.6 212.592 85.952C211.696 86.304 210.64 86.48 209.424 86.48ZM213.168 79.232C214.64 79.232 215.68 78.768 216.288 77.84C216.896 76.912 217.216 75.488 217.248 73.568V72.848C217.248 70.768 216.944 69.168 216.336 68.048C215.76 66.928 214.672 66.368 213.072 66.368C211.984 66.368 211.072 66.896 210.336 67.952C209.632 69.008 209.28 70.656 209.28 72.896C209.28 75.104 209.632 76.72 210.336 77.744C211.072 78.736 212.016 79.232 213.168 79.232Z" fill="#04AFD2"/>
<path d="M209.424 83.98C206.704 83.98 204.448 82.812 202.656 80.476C200.896 78.14 200.016 74.732 200.016 70.252C200.016 65.708 200.912 62.284 202.704 59.98C204.528 57.644 206.88 56.476 209.76 56.476C210.944 56.476 211.968 56.652 212.832 57.004C213.696 57.324 214.448 57.788 215.088 58.396C215.728 58.972 216.272 59.628 216.72 60.364H216.912C216.784 59.692 216.672 58.764 216.576 57.58C216.512 56.396 216.48 55.244 216.48 54.124V47.02H225.696V83.5H218.784L216.816 80.14H216.48C216.064 80.844 215.536 81.484 214.896 82.06C214.256 82.636 213.488 83.1 212.592 83.452C211.696 83.804 210.64 83.98 209.424 83.98ZM213.168 76.732C214.64 76.732 215.68 76.268 216.288 75.34C216.896 74.412 217.216 72.988 217.248 71.068V70.348C217.248 68.268 216.944 66.668 216.336 65.548C215.76 64.428 214.672 63.868 213.072 63.868C211.984 63.868 211.072 64.396 210.336 65.452C209.632 66.508 209.28 68.156 209.28 70.396C209.28 72.604 209.632 74.22 210.336 75.244C211.072 76.236 212.016 76.732 213.168 76.732Z" fill="#0472A7"/>
<path d="M209.424 81.48C206.704 81.48 204.448 80.312 202.656 77.976C200.896 75.64 200.016 72.232 200.016 67.752C200.016 63.208 200.912 59.784 202.704 57.48C204.528 55.144 206.88 53.976 209.76 53.976C210.944 53.976 211.968 54.152 212.832 54.504C213.696 54.824 214.448 55.288 215.088 55.896C215.728 56.472 216.272 57.128 216.72 57.864H216.912C216.784 57.192 216.672 56.264 216.576 55.08C216.512 53.896 216.48 52.744 216.48 51.624V44.52H225.696V81H218.784L216.816 77.64H216.48C216.064 78.344 215.536 78.984 214.896 79.56C214.256 80.136 213.488 80.6 212.592 80.952C211.696 81.304 210.64 81.48 209.424 81.48ZM213.168 74.232C214.64 74.232 215.68 73.768 216.288 72.84C216.896 71.912 217.216 70.488 217.248 68.568V67.848C217.248 65.768 216.944 64.168 216.336 63.048C215.76 61.928 214.672 61.368 213.072 61.368C211.984 61.368 211.072 61.896 210.336 62.952C209.632 64.008 209.28 65.656 209.28 67.896C209.28 70.104 209.632 71.72 210.336 72.744C211.072 73.736 212.016 74.232 213.168 74.232Z" fill="#063BA0"/>
<path d="M209.424 78.98C206.704 78.98 204.448 77.812 202.656 75.476C200.896 73.14 200.016 69.732 200.016 65.252C200.016 60.708 200.912 57.284 202.704 54.98C204.528 52.644 206.88 51.476 209.76 51.476C210.944 51.476 211.968 51.652 212.832 52.004C213.696 52.324 214.448 52.788 215.088 53.396C215.728 53.972 216.272 54.628 216.72 55.364H216.912C216.784 54.692 216.672 53.764 216.576 52.58C216.512 51.396 216.48 50.244 216.48 49.124V42.02H225.696V78.5H218.784L216.816 75.14H216.48C216.064 75.844 215.536 76.484 214.896 77.06C214.256 77.636 213.488 78.1 212.592 78.452C211.696 78.804 210.64 78.98 209.424 78.98ZM213.168 71.732C214.64 71.732 215.68 71.268 216.288 70.34C216.896 69.412 217.216 67.988 217.248 66.068V65.348C217.248 63.268 216.944 61.668 216.336 60.548C215.76 59.428 214.672 58.868 213.072 58.868C211.984 58.868 211.072 59.396 210.336 60.452C209.632 61.508 209.28 63.156 209.28 65.396C209.28 67.604 209.632 69.22 210.336 70.244C211.072 71.236 212.016 71.732 213.168 71.732Z" fill="#082990"/>
<path d="M209.424 76.48C206.704 76.48 204.448 75.312 202.656 72.976C200.896 70.64 200.016 67.232 200.016 62.752C200.016 58.208 200.912 54.784 202.704 52.48C204.528 50.144 206.88 48.976 209.76 48.976C210.944 48.976 211.968 49.152 212.832 49.504C213.696 49.824 214.448 50.288 215.088 50.896C215.728 51.472 216.272 52.128 216.72 52.864H216.912C216.784 52.192 216.672 51.264 216.576 50.08C216.512 48.896 216.48 47.744 216.48 46.624V39.52H225.696V76H218.784L216.816 72.64H216.48C216.064 73.344 215.536 73.984 214.896 74.56C214.256 75.136 213.488 75.6 212.592 75.952C211.696 76.304 210.64 76.48 209.424 76.48ZM213.168 69.232C214.64 69.232 215.68 68.768 216.288 67.84C216.896 66.912 217.216 65.488 217.248 63.568V62.848C217.248 60.768 216.944 59.168 216.336 58.048C215.76 56.928 214.672 56.368 213.072 56.368C211.984 56.368 211.072 56.896 210.336 57.952C209.632 59.008 209.28 60.656 209.28 62.896C209.28 65.104 209.632 66.72 210.336 67.744C211.072 68.736 212.016 69.232 213.168 69.232Z" fill="#1B0186"/>
<path d="M209.424 73.98C206.704 73.98 204.448 72.812 202.656 70.476C200.896 68.14 200.016 64.732 200.016 60.252C200.016 55.708 200.912 52.284 202.704 49.98C204.528 47.644 206.88 46.476 209.76 46.476C210.944 46.476 211.968 46.652 212.832 47.004C213.696 47.324 214.448 47.788 215.088 48.396C215.728 48.972 216.272 49.628 216.72 50.364H216.912C216.784 49.692 216.672 48.764 216.576 47.58C216.512 46.396 216.48 45.244 216.48 44.124V37.02H225.696V73.5H218.784L216.816 70.14H216.48C216.064 70.844 215.536 71.484 214.896 72.06C214.256 72.636 213.488 73.1 212.592 73.452C211.696 73.804 210.64 73.98 209.424 73.98ZM213.168 66.732C214.64 66.732 215.68 66.268 216.288 65.34C216.896 64.412 217.216 62.988 217.248 61.068V60.348C217.248 58.268 216.944 56.668 216.336 55.548C215.76 54.428 214.672 53.868 213.072 53.868C211.984 53.868 211.072 54.396 210.336 55.452C209.632 56.508 209.28 58.156 209.28 60.396C209.28 62.604 209.632 64.22 210.336 65.244C211.072 66.236 212.016 66.732 213.168 66.732Z" fill="#6002BE"/>
<path d="M209.424 71.48C206.704 71.48 204.448 70.312 202.656 67.976C200.896 65.64 200.016 62.232 200.016 57.752C200.016 53.208 200.912 49.784 202.704 47.48C204.528 45.144 206.88 43.976 209.76 43.976C210.944 43.976 211.968 44.152 212.832 44.504C213.696 44.824 214.448 45.288 215.088 45.896C215.728 46.472 216.272 47.128 216.72 47.864H216.912C216.784 47.192 216.672 46.264 216.576 45.08C216.512 43.896 216.48 42.744 216.48 41.624V34.52H225.696V71H218.784L216.816 67.64H216.48C216.064 68.344 215.536 68.984 214.896 69.56C214.256 70.136 213.488 70.6 212.592 70.952C211.696 71.304 210.64 71.48 209.424 71.48ZM213.168 64.232C214.64 64.232 215.68 63.768 216.288 62.84C216.896 61.912 217.216 60.488 217.248 58.568V57.848C217.248 55.768 216.944 54.168 216.336 53.048C215.76 51.928 214.672 51.368 213.072 51.368C211.984 51.368 211.072 51.896 210.336 52.952C209.632 54.008 209.28 55.656 209.28 57.896C209.28 60.104 209.632 61.72 210.336 62.744C211.072 63.736 212.016 64.232 213.168 64.232Z" fill="#9402C6"/>
<path d="M209.424 68.98C206.704 68.98 204.448 67.812 202.656 65.476C200.896 63.14 200.016 59.732 200.016 55.252C200.016 50.708 200.912 47.284 202.704 44.98C204.528 42.644 206.88 41.476 209.76 41.476C210.944 41.476 211.968 41.652 212.832 42.004C213.696 42.324 214.448 42.788 215.088 43.396C215.728 43.972 216.272 44.628 216.72 45.364H216.912C216.784 44.692 216.672 43.764 216.576 42.58C216.512 41.396 216.48 40.244 216.48 39.124V32.02H225.696V68.5H218.784L216.816 65.14H216.48C216.064 65.844 215.536 66.484 214.896 67.06C214.256 67.636 213.488 68.1 212.592 68.452C211.696 68.804 210.64 68.98 209.424 68.98ZM213.168 61.732C214.64 61.732 215.68 61.268 216.288 60.34C216.896 59.412 217.216 57.988 217.248 56.068V55.348C217.248 53.268 216.944 51.668 216.336 50.548C215.76 49.428 214.672 48.868 213.072 48.868C211.984 48.868 211.072 49.396 210.336 50.452C209.632 51.508 209.28 53.156 209.28 55.396C209.28 57.604 209.632 59.22 210.336 60.244C211.072 61.236 212.016 61.732 213.168 61.732Z" fill="#CD0099"/>
<path d="M209.424 66.48C206.704 66.48 204.448 65.312 202.656 62.976C200.896 60.64 200.016 57.232 200.016 52.752C200.016 48.208 200.912 44.784 202.704 42.48C204.528 40.144 206.88 38.976 209.76 38.976C210.944 38.976 211.968 39.152 212.832 39.504C213.696 39.824 214.448 40.288 215.088 40.896C215.728 41.472 216.272 42.128 216.72 42.864H216.912C216.784 42.192 216.672 41.264 216.576 40.08C216.512 38.896 216.48 37.744 216.48 36.624V29.52H225.696V66H218.784L216.816 62.64H216.48C216.064 63.344 215.536 63.984 214.896 64.56C214.256 65.136 213.488 65.6 212.592 65.952C211.696 66.304 210.64 66.48 209.424 66.48ZM213.168 59.232C214.64 59.232 215.68 58.768 216.288 57.84C216.896 56.912 217.216 55.488 217.248 53.568V52.848C217.248 50.768 216.944 49.168 216.336 48.048C215.76 46.928 214.672 46.368 213.072 46.368C211.984 46.368 211.072 46.896 210.336 47.952C209.632 49.008 209.28 50.656 209.28 52.896C209.28 55.104 209.632 56.72 210.336 57.744C211.072 58.736 212.016 59.232 213.168 59.232Z" fill="#E50061"/>
<path d="M209.424 63.98C206.704 63.98 204.448 62.812 202.656 60.476C200.896 58.14 200.016 54.732 200.016 50.252C200.016 45.708 200.912 42.284 202.704 39.98C204.528 37.644 206.88 36.476 209.76 36.476C210.944 36.476 211.968 36.652 212.832 37.004C213.696 37.324 214.448 37.788 215.088 38.396C215.728 38.972 216.272 39.628 216.72 40.364H216.912C216.784 39.692 216.672 38.764 216.576 37.58C216.512 36.396 216.48 35.244 216.48 34.124V27.02H225.696V63.5H218.784L216.816 60.14H216.48C216.064 60.844 215.536 61.484 214.896 62.06C214.256 62.636 213.488 63.1 212.592 63.452C211.696 63.804 210.64 63.98 209.424 63.98ZM213.168 56.732C214.64 56.732 215.68 56.268 216.288 55.34C216.896 54.412 217.216 52.988 217.248 51.068V50.348C217.248 48.268 216.944 46.668 216.336 45.548C215.76 44.428 214.672 43.868 213.072 43.868C211.984 43.868 211.072 44.396 210.336 45.452C209.632 46.508 209.28 48.156 209.28 50.396C209.28 52.604 209.632 54.22 210.336 55.244C211.072 56.236 212.016 56.732 213.168 56.732Z" fill="#E1290A"/>
<path d="M209.424 61.48C206.704 61.48 204.448 60.312 202.656 57.976C200.896 55.64 200.016 52.232 200.016 47.752C200.016 43.208 200.912 39.784 202.704 37.48C204.528 35.144 206.88 33.976 209.76 33.976C210.944 33.976 211.968 34.152 212.832 34.504C213.696 34.824 214.448 35.288 215.088 35.896C215.728 36.472 216.272 37.128 216.72 37.864H216.912C216.784 37.192 216.672 36.264 216.576 35.08C216.512 33.896 216.48 32.744 216.48 31.624V24.52H225.696V61H218.784L216.816 57.64H216.48C216.064 58.344 215.536 58.984 214.896 59.56C214.256 60.136 213.488 60.6 212.592 60.952C211.696 61.304 210.64 61.48 209.424 61.48ZM213.168 54.232C214.64 54.232 215.68 53.768 216.288 52.84C216.896 51.912 217.216 50.488 217.248 48.568V47.848C217.248 45.768 216.944 44.168 216.336 43.048C215.76 41.928 214.672 41.368 213.072 41.368C211.984 41.368 211.072 41.896 210.336 42.952C209.632 44.008 209.28 45.656 209.28 47.896C209.28 50.104 209.632 51.72 210.336 52.744C211.072 53.736 212.016 54.232 213.168 54.232Z" fill="#E05307"/>
<path d="M209.424 58.98C206.704 58.98 204.448 57.812 202.656 55.476C200.896 53.14 200.016 49.732 200.016 45.252C200.016 40.708 200.912 37.284 202.704 34.98C204.528 32.644 206.88 31.476 209.76 31.476C210.944 31.476 211.968 31.652 212.832 32.004C213.696 32.324 214.448 32.788 215.088 33.396C215.728 33.972 216.272 34.628 216.72 35.364H216.912C216.784 34.692 216.672 33.764 216.576 32.58C216.512 31.396 216.48 30.244 216.48 29.124V22.02H225.696V58.5H218.784L216.816 55.14H216.48C216.064 55.844 215.536 56.484 214.896 57.06C214.256 57.636 213.488 58.1 212.592 58.452C211.696 58.804 210.64 58.98 209.424 58.98ZM213.168 51.732C214.64 51.732 215.68 51.268 216.288 50.34C216.896 49.412 217.216 47.988 217.248 46.068V45.348C217.248 43.268 216.944 41.668 216.336 40.548C215.76 39.428 214.672 38.868 213.072 38.868C211.984 38.868 211.072 39.396 210.336 40.452C209.632 41.508 209.28 43.156 209.28 45.396C209.28 47.604 209.632 49.22 210.336 50.244C211.072 51.236 212.016 51.732 213.168 51.732Z" fill="#E27706"/>
<path d="M209.424 56.48C206.704 56.48 204.448 55.312 202.656 52.976C200.896 50.64 200.016 47.232 200.016 42.752C200.016 38.208 200.912 34.784 202.704 32.48C204.528 30.144 206.88 28.976 209.76 28.976C210.944 28.976 211.968 29.152 212.832 29.504C213.696 29.824 214.448 30.288 215.088 30.896C215.728 31.472 216.272 32.128 216.72 32.864H216.912C216.784 32.192 216.672 31.264 216.576 30.08C216.512 28.896 216.48 27.744 216.48 26.624V19.52H225.696V56H218.784L216.816 52.64H216.48C216.064 53.344 215.536 53.984 214.896 54.56C214.256 55.136 213.488 55.6 212.592 55.952C211.696 56.304 210.64 56.48 209.424 56.48ZM213.168 49.232C214.64 49.232 215.68 48.768 216.288 47.84C216.896 46.912 217.216 45.488 217.248 43.568V42.848C217.248 40.768 216.944 39.168 216.336 38.048C215.76 36.928 214.672 36.368 213.072 36.368C211.984 36.368 211.072 36.896 210.336 37.952C209.632 39.008 209.28 40.656 209.28 42.896C209.28 45.104 209.632 46.72 210.336 47.744C211.072 48.736 212.016 49.232 213.168 49.232Z" fill="#E0B516"/>
<path d="M209.424 53.98C206.704 53.98 204.448 52.812 202.656 50.476C200.896 48.14 200.016 44.732 200.016 40.252C200.016 35.708 200.912 32.284 202.704 29.98C204.528 27.644 206.88 26.476 209.76 26.476C210.944 26.476 211.968 26.652 212.832 27.004C213.696 27.324 214.448 27.788 215.088 28.396C215.728 28.972 216.272 29.628 216.72 30.364H216.912C216.784 29.692 216.672 28.764 216.576 27.58C216.512 26.396 216.48 25.244 216.48 24.124V17.02H225.696V53.5H218.784L216.816 50.14H216.48C216.064 50.844 215.536 51.484 214.896 52.06C214.256 52.636 213.488 53.1 212.592 53.452C211.696 53.804 210.64 53.98 209.424 53.98ZM213.168 46.732C214.64 46.732 215.68 46.268 216.288 45.34C216.896 44.412 217.216 42.988 217.248 41.068V40.348C217.248 38.268 216.944 36.668 216.336 35.548C215.76 34.428 214.672 33.868 213.072 33.868C211.984 33.868 211.072 34.396 210.336 35.452C209.632 36.508 209.28 38.156 209.28 40.396C209.28 42.604 209.632 44.22 210.336 45.244C211.072 46.236 212.016 46.732 213.168 46.732Z" fill="#FBCB15"/>
<path d="M209.424 51.48C206.704 51.48 204.448 50.312 202.656 47.976C200.896 45.64 200.016 42.232 200.016 37.752C200.016 33.208 200.912 29.784 202.704 27.48C204.528 25.144 206.88 23.976 209.76 23.976C210.944 23.976 211.968 24.152 212.832 24.504C213.696 24.824 214.448 25.288 215.088 25.896C215.728 26.472 216.272 27.128 216.72 27.864H216.912C216.784 27.192 216.672 26.264 216.576 25.08C216.512 23.896 216.48 22.744 216.48 21.624V14.52H225.696V51H218.784L216.816 47.64H216.48C216.064 48.344 215.536 48.984 214.896 49.56C214.256 50.136 213.488 50.6 212.592 50.952C211.696 51.304 210.64 51.48 209.424 51.48ZM213.168 44.232C214.64 44.232 215.68 43.768 216.288 42.84C216.896 41.912 217.216 40.488 217.248 38.568V37.848C217.248 35.768 216.944 34.168 216.336 33.048C215.76 31.928 214.672 31.368 213.072 31.368C211.984 31.368 211.072 31.896 210.336 32.952C209.632 34.008 209.28 35.656 209.28 37.896C209.28 40.104 209.632 41.72 210.336 42.744C211.072 43.736 212.016 44.232 213.168 44.232Z" fill="white"/>
</svg>
