<svg width="100" height="100" viewBox="0 0 100 100" fill="none" xmlns="http://www.w3.org/2000/svg">
<g opacity="0.25" clip-path="url(#clip0_39_817)">
<g filter="url(#filter0_f_39_817)">
<mask id="path-1-outside-1_39_817" maskUnits="userSpaceOnUse" x="34" y="76" width="33" height="39" fill="black">
<rect fill="white" x="34" y="76" width="33" height="39"/>
<path d="M53.352 113.64C49.768 113.64 46.6533 113 44.008 111.72C41.3627 110.44 39.3147 108.456 37.864 105.768C36.4133 103.08 35.688 99.6453 35.688 95.464C35.688 91.1547 36.4987 87.656 38.12 84.968C39.7413 82.2373 41.9387 80.232 44.712 78.952C47.528 77.6293 50.728 76.968 54.312 76.968C56.488 76.968 58.536 77.2027 60.456 77.672C62.4187 78.1413 64.232 78.8027 65.896 79.656L62.312 88.68C60.8613 88.04 59.496 87.528 58.216 87.144C56.9787 86.76 55.6773 86.568 54.312 86.568C53.0747 86.568 51.9867 86.888 51.048 87.528C50.1093 88.168 49.384 89.1493 48.872 90.472C48.36 91.752 48.104 93.3947 48.104 95.4C48.104 97.448 48.36 99.0907 48.872 100.328C49.4267 101.565 50.1733 102.483 51.112 103.08C52.0507 103.635 53.1387 103.912 54.376 103.912C56.1253 103.912 57.8747 103.635 59.624 103.08C61.416 102.525 63.1013 101.757 64.68 100.776V110.504C63.2293 111.443 61.5867 112.211 59.752 112.808C57.9173 113.363 55.784 113.64 53.352 113.64Z"/>
</mask>
<path d="M53.352 113.64C49.768 113.64 46.6533 113 44.008 111.72C41.3627 110.44 39.3147 108.456 37.864 105.768C36.4133 103.08 35.688 99.6453 35.688 95.464C35.688 91.1547 36.4987 87.656 38.12 84.968C39.7413 82.2373 41.9387 80.232 44.712 78.952C47.528 77.6293 50.728 76.968 54.312 76.968C56.488 76.968 58.536 77.2027 60.456 77.672C62.4187 78.1413 64.232 78.8027 65.896 79.656L62.312 88.68C60.8613 88.04 59.496 87.528 58.216 87.144C56.9787 86.76 55.6773 86.568 54.312 86.568C53.0747 86.568 51.9867 86.888 51.048 87.528C50.1093 88.168 49.384 89.1493 48.872 90.472C48.36 91.752 48.104 93.3947 48.104 95.4C48.104 97.448 48.36 99.0907 48.872 100.328C49.4267 101.565 50.1733 102.483 51.112 103.08C52.0507 103.635 53.1387 103.912 54.376 103.912C56.1253 103.912 57.8747 103.635 59.624 103.08C61.416 102.525 63.1013 101.757 64.68 100.776V110.504C63.2293 111.443 61.5867 112.211 59.752 112.808C57.9173 113.363 55.784 113.64 53.352 113.64Z" fill="#04AFD2"/>
<path d="M44.008 111.72L43.6813 112.395L44.008 111.72ZM37.864 105.768L37.204 106.124L37.204 106.124L37.864 105.768ZM38.12 84.968L38.7622 85.3554L38.7649 85.3509L38.12 84.968ZM44.712 78.952L45.0263 79.633L45.0309 79.6308L44.712 78.952ZM60.456 77.672L60.2779 78.4006L60.2816 78.4014L60.456 77.672ZM65.896 79.656L66.593 79.9328L66.8445 79.2996L66.2382 78.9886L65.896 79.656ZM62.312 88.68L62.0093 89.3662L62.7216 89.6805L63.009 88.9568L62.312 88.68ZM58.216 87.144L57.9937 87.8603L58.0005 87.8624L58.216 87.144ZM51.048 87.528L50.6255 86.9083L50.6255 86.9083L51.048 87.528ZM48.872 90.472L49.5684 90.7506L49.5714 90.7427L48.872 90.472ZM48.872 100.328L48.179 100.615L48.1832 100.625L48.1876 100.635L48.872 100.328ZM51.112 103.08L50.7093 103.713L50.7198 103.719L50.7305 103.726L51.112 103.08ZM59.624 103.08L59.4022 102.364L59.3973 102.365L59.624 103.08ZM64.68 100.776H65.43V99.4267L64.2841 100.139L64.68 100.776ZM64.68 110.504L65.0874 111.134L65.43 110.912V110.504H64.68ZM59.752 112.808L59.969 113.526L59.9766 113.524L59.9842 113.521L59.752 112.808ZM53.352 112.89C49.8567 112.89 46.8583 112.266 44.3347 111.045L43.6813 112.395C46.4484 113.734 49.6793 114.39 53.352 114.39V112.89ZM44.3347 111.045C41.837 109.836 39.903 107.967 38.524 105.412L37.204 106.124C38.7264 108.945 40.8883 111.044 43.6813 112.395L44.3347 111.045ZM38.524 105.412C37.1502 102.866 36.438 99.5647 36.438 95.464H34.938C34.938 99.726 35.6765 103.294 37.204 106.124L38.524 105.412ZM36.438 95.464C36.438 91.2423 37.233 87.8907 38.7622 85.3554L37.4778 84.5806C35.7644 87.4213 34.938 91.067 34.938 95.464H36.438ZM38.7649 85.3509C40.312 82.7453 42.3965 80.8467 45.0263 79.633L44.3977 78.271C41.4809 79.6173 39.1707 81.7294 37.4751 84.5851L38.7649 85.3509ZM45.0309 79.6308C47.733 78.3617 50.8215 77.718 54.312 77.718V76.218C50.6345 76.218 47.323 76.897 44.3931 78.2732L45.0309 79.6308ZM54.312 77.718C56.434 77.718 58.4217 77.9468 60.2779 78.4005L60.6341 76.9434C58.6503 76.4585 56.542 76.218 54.312 76.218V77.718ZM60.2816 78.4014C62.1906 78.8579 63.947 79.4994 65.5538 80.3234L66.2382 78.9886C64.517 78.1059 62.6467 77.4247 60.6304 76.9426L60.2816 78.4014ZM65.199 79.3792L61.615 88.4032L63.009 88.9568L66.593 79.9328L65.199 79.3792ZM62.6147 87.9938C61.1407 87.3435 59.7461 86.82 58.4315 86.4256L58.0005 87.8624C59.2459 88.236 60.5819 88.7365 62.0093 89.3662L62.6147 87.9938ZM58.4383 86.4277C57.1252 86.0202 55.7486 85.818 54.312 85.818V87.318C55.606 87.318 56.8321 87.4998 57.9937 87.8603L58.4383 86.4277ZM54.312 85.818C52.938 85.818 51.6998 86.1758 50.6255 86.9083L51.4705 88.1477C52.2735 87.6002 53.2113 87.318 54.312 87.318V85.818ZM50.6255 86.9083C49.5332 87.653 48.7257 88.7723 48.1726 90.2013L49.5714 90.7427C50.0423 89.5264 50.6854 88.6829 51.4705 88.1477L50.6255 86.9083ZM48.1756 90.1935C47.616 91.5926 47.354 93.3389 47.354 95.4H48.854C48.854 93.4504 49.104 91.9114 49.5684 90.7505L48.1756 90.1935ZM47.354 95.4C47.354 97.4996 47.6149 99.2515 48.179 100.615L49.565 100.041C49.1051 98.9299 48.854 97.3964 48.854 95.4H47.354ZM48.1876 100.635C48.7891 101.976 49.6222 103.021 50.7093 103.713L51.5147 102.447C50.7245 101.944 50.0643 101.154 49.5564 100.021L48.1876 100.635ZM50.7305 103.726C51.7996 104.357 53.0229 104.662 54.376 104.662V103.162C53.2544 103.162 52.3017 102.912 51.4935 102.434L50.7305 103.726ZM54.376 104.662C56.206 104.662 58.0317 104.372 59.8507 103.795L59.3973 102.365C57.7177 102.898 56.0447 103.162 54.376 103.162V104.662ZM59.8458 103.796C61.6984 103.223 63.4424 102.428 65.076 101.413L64.2841 100.139C62.7603 101.086 61.1336 101.828 59.4022 102.364L59.8458 103.796ZM63.93 100.776V110.504H65.43V100.776H63.93ZM64.2726 109.874C62.8824 110.774 61.2998 111.515 59.5198 112.095L59.9842 113.521C61.8736 112.906 63.5763 112.111 65.0874 111.134L64.2726 109.874ZM59.535 112.09C57.7866 112.619 55.7292 112.89 53.352 112.89V114.39C55.8388 114.39 58.048 114.107 59.969 113.526L59.535 112.09Z" fill="black" mask="url(#path-1-outside-1_39_817)"/>
<mask id="path-3-outside-2_39_817" maskUnits="userSpaceOnUse" x="34" y="72" width="33" height="39" fill="black">
<rect fill="white" x="34" y="72" width="33" height="39"/>
<path d="M53.352 109.64C49.768 109.64 46.6533 109 44.008 107.72C41.3627 106.44 39.3147 104.456 37.864 101.768C36.4133 99.08 35.688 95.6453 35.688 91.464C35.688 87.1547 36.4987 83.656 38.12 80.968C39.7413 78.2373 41.9387 76.232 44.712 74.952C47.528 73.6293 50.728 72.968 54.312 72.968C56.488 72.968 58.536 73.2027 60.456 73.672C62.4187 74.1413 64.232 74.8027 65.896 75.656L62.312 84.68C60.8613 84.04 59.496 83.528 58.216 83.144C56.9787 82.76 55.6773 82.568 54.312 82.568C53.0747 82.568 51.9867 82.888 51.048 83.528C50.1093 84.168 49.384 85.1493 48.872 86.472C48.36 87.752 48.104 89.3947 48.104 91.4C48.104 93.448 48.36 95.0907 48.872 96.328C49.4267 97.5653 50.1733 98.4827 51.112 99.08C52.0507 99.6347 53.1387 99.912 54.376 99.912C56.1253 99.912 57.8747 99.6347 59.624 99.08C61.416 98.5253 63.1013 97.7573 64.68 96.776V106.504C63.2293 107.443 61.5867 108.211 59.752 108.808C57.9173 109.363 55.784 109.64 53.352 109.64Z"/>
</mask>
<path d="M53.352 109.64C49.768 109.64 46.6533 109 44.008 107.72C41.3627 106.44 39.3147 104.456 37.864 101.768C36.4133 99.08 35.688 95.6453 35.688 91.464C35.688 87.1547 36.4987 83.656 38.12 80.968C39.7413 78.2373 41.9387 76.232 44.712 74.952C47.528 73.6293 50.728 72.968 54.312 72.968C56.488 72.968 58.536 73.2027 60.456 73.672C62.4187 74.1413 64.232 74.8027 65.896 75.656L62.312 84.68C60.8613 84.04 59.496 83.528 58.216 83.144C56.9787 82.76 55.6773 82.568 54.312 82.568C53.0747 82.568 51.9867 82.888 51.048 83.528C50.1093 84.168 49.384 85.1493 48.872 86.472C48.36 87.752 48.104 89.3947 48.104 91.4C48.104 93.448 48.36 95.0907 48.872 96.328C49.4267 97.5653 50.1733 98.4827 51.112 99.08C52.0507 99.6347 53.1387 99.912 54.376 99.912C56.1253 99.912 57.8747 99.6347 59.624 99.08C61.416 98.5253 63.1013 97.7573 64.68 96.776V106.504C63.2293 107.443 61.5867 108.211 59.752 108.808C57.9173 109.363 55.784 109.64 53.352 109.64Z" fill="#0472A7"/>
<path d="M44.008 107.72L43.6813 108.395L44.008 107.72ZM37.864 101.768L37.204 102.124L37.204 102.124L37.864 101.768ZM38.12 80.968L38.7622 81.3554L38.7649 81.3509L38.12 80.968ZM44.712 74.952L45.0263 75.633L45.0309 75.6308L44.712 74.952ZM60.456 73.672L60.2779 74.4006L60.2816 74.4014L60.456 73.672ZM65.896 75.656L66.593 75.9328L66.8445 75.2996L66.2382 74.9886L65.896 75.656ZM62.312 84.68L62.0093 85.3662L62.7216 85.6805L63.009 84.9568L62.312 84.68ZM58.216 83.144L57.9937 83.8603L58.0005 83.8624L58.216 83.144ZM51.048 83.528L50.6255 82.9083L50.6255 82.9083L51.048 83.528ZM48.872 86.472L49.5684 86.7506L49.5714 86.7427L48.872 86.472ZM48.872 96.328L48.179 96.6148L48.1832 96.6248L48.1876 96.6348L48.872 96.328ZM51.112 99.08L50.7093 99.7127L50.7198 99.7194L50.7305 99.7257L51.112 99.08ZM59.624 99.08L59.4022 98.3635L59.3973 98.3651L59.624 99.08ZM64.68 96.776H65.43V95.4267L64.2841 96.139L64.68 96.776ZM64.68 106.504L65.0874 107.134L65.43 106.912V106.504H64.68ZM59.752 108.808L59.969 109.526L59.9766 109.524L59.9842 109.521L59.752 108.808ZM53.352 108.89C49.8567 108.89 46.8583 108.266 44.3347 107.045L43.6813 108.395C46.4484 109.734 49.6793 110.39 53.352 110.39V108.89ZM44.3347 107.045C41.837 105.836 39.903 103.967 38.524 101.412L37.204 102.124C38.7264 104.945 40.8883 107.044 43.6813 108.395L44.3347 107.045ZM38.524 101.412C37.1502 98.8661 36.438 95.5647 36.438 91.464H34.938C34.938 95.726 35.6765 99.2939 37.204 102.124L38.524 101.412ZM36.438 91.464C36.438 87.2423 37.233 83.8907 38.7622 81.3554L37.4778 80.5806C35.7644 83.4213 34.938 87.067 34.938 91.464H36.438ZM38.7649 81.3509C40.312 78.7453 42.3965 76.8467 45.0263 75.633L44.3977 74.271C41.4809 75.6173 39.1707 77.7294 37.4751 80.5851L38.7649 81.3509ZM45.0309 75.6308C47.733 74.3617 50.8215 73.718 54.312 73.718V72.218C50.6345 72.218 47.323 72.897 44.3931 74.2732L45.0309 75.6308ZM54.312 73.718C56.434 73.718 58.4217 73.9468 60.2779 74.4005L60.6341 72.9434C58.6503 72.4585 56.542 72.218 54.312 72.218V73.718ZM60.2816 74.4014C62.1906 74.8579 63.947 75.4994 65.5538 76.3234L66.2382 74.9886C64.517 74.1059 62.6467 73.4247 60.6304 72.9426L60.2816 74.4014ZM65.199 75.3792L61.615 84.4032L63.009 84.9568L66.593 75.9328L65.199 75.3792ZM62.6147 83.9938C61.1407 83.3435 59.7461 82.82 58.4315 82.4256L58.0005 83.8624C59.2459 84.236 60.5819 84.7365 62.0093 85.3662L62.6147 83.9938ZM58.4383 82.4277C57.1252 82.0202 55.7486 81.818 54.312 81.818V83.318C55.606 83.318 56.8321 83.4998 57.9937 83.8603L58.4383 82.4277ZM54.312 81.818C52.938 81.818 51.6998 82.1758 50.6255 82.9083L51.4705 84.1477C52.2735 83.6002 53.2113 83.318 54.312 83.318V81.818ZM50.6255 82.9083C49.5332 83.653 48.7257 84.7723 48.1726 86.2013L49.5714 86.7427C50.0423 85.5264 50.6854 84.6829 51.4705 84.1477L50.6255 82.9083ZM48.1756 86.1935C47.616 87.5926 47.354 89.3389 47.354 91.4H48.854C48.854 89.4504 49.104 87.9114 49.5684 86.7505L48.1756 86.1935ZM47.354 91.4C47.354 93.4996 47.6149 95.2515 48.179 96.6148L49.565 96.0412C49.1051 94.9299 48.854 93.3964 48.854 91.4H47.354ZM48.1876 96.6348C48.7891 97.9765 49.6222 99.0209 50.7093 99.7127L51.5147 98.4473C50.7245 97.9444 50.0643 97.1542 49.5564 96.0212L48.1876 96.6348ZM50.7305 99.7257C51.7996 100.357 53.0229 100.662 54.376 100.662V99.162C53.2544 99.162 52.3017 98.9119 51.4935 98.4343L50.7305 99.7257ZM54.376 100.662C56.206 100.662 58.0317 100.372 59.8507 99.7949L59.3973 98.3651C57.7177 98.8976 56.0447 99.162 54.376 99.162V100.662ZM59.8458 99.7965C61.6984 99.223 63.4424 98.4284 65.076 97.413L64.2841 96.139C62.7603 97.0862 61.1336 97.8276 59.4022 98.3635L59.8458 99.7965ZM63.93 96.776V106.504H65.43V96.776H63.93ZM64.2726 105.874C62.8824 106.774 61.2998 107.515 59.5198 108.095L59.9842 109.521C61.8736 108.906 63.5763 108.111 65.0874 107.134L64.2726 105.874ZM59.535 108.09C57.7866 108.619 55.7292 108.89 53.352 108.89V110.39C55.8388 110.39 58.048 110.107 59.969 109.526L59.535 108.09Z" fill="black" mask="url(#path-3-outside-2_39_817)"/>
<mask id="path-5-outside-3_39_817" maskUnits="userSpaceOnUse" x="34" y="68" width="33" height="39" fill="black">
<rect fill="white" x="34" y="68" width="33" height="39"/>
<path d="M53.352 105.64C49.768 105.64 46.6533 105 44.008 103.72C41.3627 102.44 39.3147 100.456 37.864 97.768C36.4133 95.08 35.688 91.6453 35.688 87.464C35.688 83.1547 36.4987 79.656 38.12 76.968C39.7413 74.2373 41.9387 72.232 44.712 70.952C47.528 69.6293 50.728 68.968 54.312 68.968C56.488 68.968 58.536 69.2027 60.456 69.672C62.4187 70.1413 64.232 70.8027 65.896 71.656L62.312 80.68C60.8613 80.04 59.496 79.528 58.216 79.144C56.9787 78.76 55.6773 78.568 54.312 78.568C53.0747 78.568 51.9867 78.888 51.048 79.528C50.1093 80.168 49.384 81.1493 48.872 82.472C48.36 83.752 48.104 85.3947 48.104 87.4C48.104 89.448 48.36 91.0907 48.872 92.328C49.4267 93.5653 50.1733 94.4827 51.112 95.08C52.0507 95.6347 53.1387 95.912 54.376 95.912C56.1253 95.912 57.8747 95.6347 59.624 95.08C61.416 94.5253 63.1013 93.7573 64.68 92.776V102.504C63.2293 103.443 61.5867 104.211 59.752 104.808C57.9173 105.363 55.784 105.64 53.352 105.64Z"/>
</mask>
<path d="M53.352 105.64C49.768 105.64 46.6533 105 44.008 103.72C41.3627 102.44 39.3147 100.456 37.864 97.768C36.4133 95.08 35.688 91.6453 35.688 87.464C35.688 83.1547 36.4987 79.656 38.12 76.968C39.7413 74.2373 41.9387 72.232 44.712 70.952C47.528 69.6293 50.728 68.968 54.312 68.968C56.488 68.968 58.536 69.2027 60.456 69.672C62.4187 70.1413 64.232 70.8027 65.896 71.656L62.312 80.68C60.8613 80.04 59.496 79.528 58.216 79.144C56.9787 78.76 55.6773 78.568 54.312 78.568C53.0747 78.568 51.9867 78.888 51.048 79.528C50.1093 80.168 49.384 81.1493 48.872 82.472C48.36 83.752 48.104 85.3947 48.104 87.4C48.104 89.448 48.36 91.0907 48.872 92.328C49.4267 93.5653 50.1733 94.4827 51.112 95.08C52.0507 95.6347 53.1387 95.912 54.376 95.912C56.1253 95.912 57.8747 95.6347 59.624 95.08C61.416 94.5253 63.1013 93.7573 64.68 92.776V102.504C63.2293 103.443 61.5867 104.211 59.752 104.808C57.9173 105.363 55.784 105.64 53.352 105.64Z" fill="#063BA0"/>
<path d="M44.008 103.72L43.6813 104.395L44.008 103.72ZM37.864 97.768L37.204 98.1242L37.204 98.1242L37.864 97.768ZM38.12 76.968L38.7622 77.3554L38.7649 77.3509L38.12 76.968ZM44.712 70.952L45.0263 71.633L45.0309 71.6308L44.712 70.952ZM60.456 69.672L60.2779 70.4006L60.2816 70.4014L60.456 69.672ZM65.896 71.656L66.593 71.9328L66.8445 71.2996L66.2382 70.9886L65.896 71.656ZM62.312 80.68L62.0093 81.3662L62.7216 81.6805L63.009 80.9568L62.312 80.68ZM58.216 79.144L57.9937 79.8603L58.0005 79.8624L58.216 79.144ZM51.048 79.528L50.6255 78.9083L50.6255 78.9083L51.048 79.528ZM48.872 82.472L49.5684 82.7506L49.5714 82.7427L48.872 82.472ZM48.872 92.328L48.179 92.6148L48.1832 92.6248L48.1876 92.6348L48.872 92.328ZM51.112 95.08L50.7093 95.7127L50.7198 95.7194L50.7305 95.7257L51.112 95.08ZM59.624 95.08L59.4022 94.3635L59.3973 94.3651L59.624 95.08ZM64.68 92.776H65.43V91.4267L64.2841 92.139L64.68 92.776ZM64.68 102.504L65.0874 103.134L65.43 102.912V102.504H64.68ZM59.752 104.808L59.969 105.526L59.9766 105.524L59.9842 105.521L59.752 104.808ZM53.352 104.89C49.8567 104.89 46.8583 104.266 44.3347 103.045L43.6813 104.395C46.4484 105.734 49.6793 106.39 53.352 106.39V104.89ZM44.3347 103.045C41.837 101.836 39.903 99.9669 38.524 97.4118L37.204 98.1242C38.7264 100.945 40.8883 103.044 43.6813 104.395L44.3347 103.045ZM38.524 97.4118C37.1502 94.8661 36.438 91.5647 36.438 87.464H34.938C34.938 91.726 35.6765 95.2939 37.204 98.1242L38.524 97.4118ZM36.438 87.464C36.438 83.2423 37.233 79.8907 38.7622 77.3554L37.4778 76.5806C35.7644 79.4213 34.938 83.067 34.938 87.464H36.438ZM38.7649 77.3509C40.312 74.7453 42.3965 72.8467 45.0263 71.633L44.3977 70.271C41.4809 71.6173 39.1707 73.7294 37.4751 76.5851L38.7649 77.3509ZM45.0309 71.6308C47.733 70.3617 50.8215 69.718 54.312 69.718V68.218C50.6345 68.218 47.323 68.897 44.3931 70.2732L45.0309 71.6308ZM54.312 69.718C56.434 69.718 58.4217 69.9468 60.2779 70.4005L60.6341 68.9434C58.6503 68.4585 56.542 68.218 54.312 68.218V69.718ZM60.2816 70.4014C62.1906 70.8579 63.947 71.4994 65.5538 72.3234L66.2382 70.9886C64.517 70.1059 62.6467 69.4247 60.6304 68.9426L60.2816 70.4014ZM65.199 71.3792L61.615 80.4032L63.009 80.9568L66.593 71.9328L65.199 71.3792ZM62.6147 79.9938C61.1407 79.3435 59.7461 78.82 58.4315 78.4256L58.0005 79.8624C59.2459 80.236 60.5819 80.7365 62.0093 81.3662L62.6147 79.9938ZM58.4383 78.4277C57.1252 78.0202 55.7486 77.818 54.312 77.818V79.318C55.606 79.318 56.8321 79.4998 57.9937 79.8603L58.4383 78.4277ZM54.312 77.818C52.938 77.818 51.6998 78.1758 50.6255 78.9083L51.4705 80.1477C52.2735 79.6002 53.2113 79.318 54.312 79.318V77.818ZM50.6255 78.9083C49.5332 79.653 48.7257 80.7723 48.1726 82.2013L49.5714 82.7427C50.0423 81.5264 50.6854 80.6829 51.4705 80.1477L50.6255 78.9083ZM48.1756 82.1935C47.616 83.5926 47.354 85.3389 47.354 87.4H48.854C48.854 85.4504 49.104 83.9114 49.5684 82.7505L48.1756 82.1935ZM47.354 87.4C47.354 89.4996 47.6149 91.2515 48.179 92.6148L49.565 92.0412C49.1051 90.9299 48.854 89.3964 48.854 87.4H47.354ZM48.1876 92.6348C48.7891 93.9765 49.6222 95.0209 50.7093 95.7127L51.5147 94.4473C50.7245 93.9444 50.0643 93.1542 49.5564 92.0212L48.1876 92.6348ZM50.7305 95.7257C51.7996 96.3575 53.0229 96.662 54.376 96.662V95.162C53.2544 95.162 52.3017 94.9119 51.4935 94.4343L50.7305 95.7257ZM54.376 96.662C56.206 96.662 58.0317 96.3717 59.8507 95.7949L59.3973 94.3651C57.7177 94.8976 56.0447 95.162 54.376 95.162V96.662ZM59.8458 95.7965C61.6984 95.223 63.4424 94.4284 65.076 93.413L64.2841 92.139C62.7603 93.0862 61.1336 93.8276 59.4022 94.3635L59.8458 95.7965ZM63.93 92.776V102.504H65.43V92.776H63.93ZM64.2726 101.874C62.8824 102.774 61.2998 103.515 59.5198 104.095L59.9842 105.521C61.8736 104.906 63.5763 104.111 65.0874 103.134L64.2726 101.874ZM59.535 104.09C57.7866 104.619 55.7292 104.89 53.352 104.89V106.39C55.8388 106.39 58.048 106.107 59.969 105.526L59.535 104.09Z" fill="black" mask="url(#path-5-outside-3_39_817)"/>
<mask id="path-7-outside-4_39_817" maskUnits="userSpaceOnUse" x="34" y="64" width="33" height="39" fill="black">
<rect fill="white" x="34" y="64" width="33" height="39"/>
<path d="M53.352 101.64C49.768 101.64 46.6533 101 44.008 99.72C41.3627 98.44 39.3147 96.456 37.864 93.768C36.4133 91.08 35.688 87.6453 35.688 83.464C35.688 79.1547 36.4987 75.656 38.12 72.968C39.7413 70.2373 41.9387 68.232 44.712 66.952C47.528 65.6293 50.728 64.968 54.312 64.968C56.488 64.968 58.536 65.2027 60.456 65.672C62.4187 66.1413 64.232 66.8027 65.896 67.656L62.312 76.68C60.8613 76.04 59.496 75.528 58.216 75.144C56.9787 74.76 55.6773 74.568 54.312 74.568C53.0747 74.568 51.9867 74.888 51.048 75.528C50.1093 76.168 49.384 77.1493 48.872 78.472C48.36 79.752 48.104 81.3947 48.104 83.4C48.104 85.448 48.36 87.0907 48.872 88.328C49.4267 89.5653 50.1733 90.4827 51.112 91.08C52.0507 91.6347 53.1387 91.912 54.376 91.912C56.1253 91.912 57.8747 91.6347 59.624 91.08C61.416 90.5253 63.1013 89.7573 64.68 88.776V98.504C63.2293 99.4427 61.5867 100.211 59.752 100.808C57.9173 101.363 55.784 101.64 53.352 101.64Z"/>
</mask>
<path d="M53.352 101.64C49.768 101.64 46.6533 101 44.008 99.72C41.3627 98.44 39.3147 96.456 37.864 93.768C36.4133 91.08 35.688 87.6453 35.688 83.464C35.688 79.1547 36.4987 75.656 38.12 72.968C39.7413 70.2373 41.9387 68.232 44.712 66.952C47.528 65.6293 50.728 64.968 54.312 64.968C56.488 64.968 58.536 65.2027 60.456 65.672C62.4187 66.1413 64.232 66.8027 65.896 67.656L62.312 76.68C60.8613 76.04 59.496 75.528 58.216 75.144C56.9787 74.76 55.6773 74.568 54.312 74.568C53.0747 74.568 51.9867 74.888 51.048 75.528C50.1093 76.168 49.384 77.1493 48.872 78.472C48.36 79.752 48.104 81.3947 48.104 83.4C48.104 85.448 48.36 87.0907 48.872 88.328C49.4267 89.5653 50.1733 90.4827 51.112 91.08C52.0507 91.6347 53.1387 91.912 54.376 91.912C56.1253 91.912 57.8747 91.6347 59.624 91.08C61.416 90.5253 63.1013 89.7573 64.68 88.776V98.504C63.2293 99.4427 61.5867 100.211 59.752 100.808C57.9173 101.363 55.784 101.64 53.352 101.64Z" fill="#082990"/>
<path d="M44.008 99.72L43.6813 100.395L44.008 99.72ZM37.864 93.768L37.204 94.1242L37.204 94.1242L37.864 93.768ZM38.12 72.968L38.7622 73.3554L38.7649 73.3509L38.12 72.968ZM44.712 66.952L45.0263 67.633L45.0309 67.6308L44.712 66.952ZM60.456 65.672L60.2779 66.4006L60.2816 66.4014L60.456 65.672ZM65.896 67.656L66.593 67.9328L66.8445 67.2996L66.2382 66.9886L65.896 67.656ZM62.312 76.68L62.0093 77.3662L62.7216 77.6805L63.009 76.9568L62.312 76.68ZM58.216 75.144L57.9937 75.8603L58.0005 75.8624L58.216 75.144ZM51.048 75.528L50.6255 74.9083L50.6255 74.9083L51.048 75.528ZM48.872 78.472L49.5684 78.7506L49.5714 78.7427L48.872 78.472ZM48.872 88.328L48.179 88.6148L48.1832 88.6248L48.1876 88.6348L48.872 88.328ZM51.112 91.08L50.7093 91.7127L50.7198 91.7194L50.7305 91.7257L51.112 91.08ZM59.624 91.08L59.4022 90.3635L59.3973 90.3651L59.624 91.08ZM64.68 88.776H65.43V87.4267L64.2841 88.139L64.68 88.776ZM64.68 98.504L65.0874 99.1337L65.43 98.912V98.504H64.68ZM59.752 100.808L59.969 101.526L59.9766 101.524L59.9842 101.521L59.752 100.808ZM53.352 100.89C49.8567 100.89 46.8583 100.266 44.3347 99.0449L43.6813 100.395C46.4484 101.734 49.6793 102.39 53.352 102.39V100.89ZM44.3347 99.0449C41.837 97.8364 39.903 95.9669 38.524 93.4118L37.204 94.1242C38.7264 96.9451 40.8883 99.0436 43.6813 100.395L44.3347 99.0449ZM38.524 93.4118C37.1502 90.8661 36.438 87.5647 36.438 83.464H34.938C34.938 87.726 35.6765 91.2939 37.204 94.1242L38.524 93.4118ZM36.438 83.464C36.438 79.2423 37.233 75.8907 38.7622 73.3554L37.4778 72.5806C35.7644 75.4213 34.938 79.067 34.938 83.464H36.438ZM38.7649 73.3509C40.312 70.7453 42.3965 68.8467 45.0263 67.633L44.3977 66.271C41.4809 67.6173 39.1707 69.7294 37.4751 72.5851L38.7649 73.3509ZM45.0309 67.6308C47.733 66.3617 50.8215 65.718 54.312 65.718V64.218C50.6345 64.218 47.323 64.897 44.3931 66.2732L45.0309 67.6308ZM54.312 65.718C56.434 65.718 58.4217 65.9468 60.2779 66.4005L60.6341 64.9434C58.6503 64.4585 56.542 64.218 54.312 64.218V65.718ZM60.2816 66.4014C62.1906 66.8579 63.947 67.4994 65.5538 68.3234L66.2382 66.9886C64.517 66.1059 62.6467 65.4247 60.6304 64.9426L60.2816 66.4014ZM65.199 67.3792L61.615 76.4032L63.009 76.9568L66.593 67.9328L65.199 67.3792ZM62.6147 75.9938C61.1407 75.3435 59.7461 74.82 58.4315 74.4256L58.0005 75.8624C59.2459 76.236 60.5819 76.7365 62.0093 77.3662L62.6147 75.9938ZM58.4383 74.4277C57.1252 74.0202 55.7486 73.818 54.312 73.818V75.318C55.606 75.318 56.8321 75.4998 57.9937 75.8603L58.4383 74.4277ZM54.312 73.818C52.938 73.818 51.6998 74.1758 50.6255 74.9083L51.4705 76.1477C52.2735 75.6002 53.2113 75.318 54.312 75.318V73.818ZM50.6255 74.9083C49.5332 75.653 48.7257 76.7723 48.1726 78.2013L49.5714 78.7427C50.0423 77.5264 50.6854 76.6829 51.4705 76.1477L50.6255 74.9083ZM48.1756 78.1935C47.616 79.5926 47.354 81.3389 47.354 83.4H48.854C48.854 81.4504 49.104 79.9114 49.5684 78.7505L48.1756 78.1935ZM47.354 83.4C47.354 85.4996 47.6149 87.2515 48.179 88.6148L49.565 88.0412C49.1051 86.9299 48.854 85.3964 48.854 83.4H47.354ZM48.1876 88.6348C48.7891 89.9765 49.6222 91.0209 50.7093 91.7127L51.5147 90.4473C50.7245 89.9444 50.0643 89.1542 49.5564 88.0212L48.1876 88.6348ZM50.7305 91.7257C51.7996 92.3575 53.0229 92.662 54.376 92.662V91.162C53.2544 91.162 52.3017 90.9119 51.4935 90.4343L50.7305 91.7257ZM54.376 92.662C56.206 92.662 58.0317 92.3717 59.8507 91.7949L59.3973 90.3651C57.7177 90.8976 56.0447 91.162 54.376 91.162V92.662ZM59.8458 91.7965C61.6984 91.223 63.4424 90.4284 65.076 89.413L64.2841 88.139C62.7603 89.0862 61.1336 89.8276 59.4022 90.3635L59.8458 91.7965ZM63.93 88.776V98.504H65.43V88.776H63.93ZM64.2726 97.8743C62.8824 98.7739 61.2998 99.5153 59.5198 100.095L59.9842 101.521C61.8736 100.906 63.5763 100.111 65.0874 99.1337L64.2726 97.8743ZM59.535 100.09C57.7866 100.619 55.7292 100.89 53.352 100.89V102.39C55.8388 102.39 58.048 102.107 59.969 101.526L59.535 100.09Z" fill="black" mask="url(#path-7-outside-4_39_817)"/>
<mask id="path-9-outside-5_39_817" maskUnits="userSpaceOnUse" x="34" y="60" width="33" height="39" fill="black">
<rect fill="white" x="34" y="60" width="33" height="39"/>
<path d="M53.352 97.64C49.768 97.64 46.6533 97 44.008 95.72C41.3627 94.44 39.3147 92.456 37.864 89.768C36.4133 87.08 35.688 83.6453 35.688 79.464C35.688 75.1547 36.4987 71.656 38.12 68.968C39.7413 66.2373 41.9387 64.232 44.712 62.952C47.528 61.6293 50.728 60.968 54.312 60.968C56.488 60.968 58.536 61.2027 60.456 61.672C62.4187 62.1413 64.232 62.8027 65.896 63.656L62.312 72.68C60.8613 72.04 59.496 71.528 58.216 71.144C56.9787 70.76 55.6773 70.568 54.312 70.568C53.0747 70.568 51.9867 70.888 51.048 71.528C50.1093 72.168 49.384 73.1493 48.872 74.472C48.36 75.752 48.104 77.3947 48.104 79.4C48.104 81.448 48.36 83.0907 48.872 84.328C49.4267 85.5653 50.1733 86.4827 51.112 87.08C52.0507 87.6347 53.1387 87.912 54.376 87.912C56.1253 87.912 57.8747 87.6347 59.624 87.08C61.416 86.5253 63.1013 85.7573 64.68 84.776V94.504C63.2293 95.4427 61.5867 96.2107 59.752 96.808C57.9173 97.3627 55.784 97.64 53.352 97.64Z"/>
</mask>
<path d="M53.352 97.64C49.768 97.64 46.6533 97 44.008 95.72C41.3627 94.44 39.3147 92.456 37.864 89.768C36.4133 87.08 35.688 83.6453 35.688 79.464C35.688 75.1547 36.4987 71.656 38.12 68.968C39.7413 66.2373 41.9387 64.232 44.712 62.952C47.528 61.6293 50.728 60.968 54.312 60.968C56.488 60.968 58.536 61.2027 60.456 61.672C62.4187 62.1413 64.232 62.8027 65.896 63.656L62.312 72.68C60.8613 72.04 59.496 71.528 58.216 71.144C56.9787 70.76 55.6773 70.568 54.312 70.568C53.0747 70.568 51.9867 70.888 51.048 71.528C50.1093 72.168 49.384 73.1493 48.872 74.472C48.36 75.752 48.104 77.3947 48.104 79.4C48.104 81.448 48.36 83.0907 48.872 84.328C49.4267 85.5653 50.1733 86.4827 51.112 87.08C52.0507 87.6347 53.1387 87.912 54.376 87.912C56.1253 87.912 57.8747 87.6347 59.624 87.08C61.416 86.5253 63.1013 85.7573 64.68 84.776V94.504C63.2293 95.4427 61.5867 96.2107 59.752 96.808C57.9173 97.3627 55.784 97.64 53.352 97.64Z" fill="#1B0186"/>
<path d="M44.008 95.72L43.6813 96.3951L44.008 95.72ZM37.864 89.768L37.204 90.1242L37.204 90.1242L37.864 89.768ZM38.12 68.968L38.7622 69.3554L38.7649 69.3509L38.12 68.968ZM44.712 62.952L45.0263 63.633L45.0309 63.6308L44.712 62.952ZM60.456 61.672L60.2779 62.4006L60.2816 62.4014L60.456 61.672ZM65.896 63.656L66.593 63.9328L66.8445 63.2996L66.2382 62.9886L65.896 63.656ZM62.312 72.68L62.0093 73.3662L62.7216 73.6805L63.009 72.9568L62.312 72.68ZM58.216 71.144L57.9937 71.8603L58.0005 71.8624L58.216 71.144ZM51.048 71.528L50.6255 70.9083L50.6255 70.9083L51.048 71.528ZM48.872 74.472L49.5684 74.7506L49.5714 74.7427L48.872 74.472ZM48.872 84.328L48.179 84.6148L48.1832 84.6248L48.1876 84.6348L48.872 84.328ZM51.112 87.08L50.7093 87.7127L50.7198 87.7194L50.7305 87.7257L51.112 87.08ZM59.624 87.08L59.4022 86.3635L59.3973 86.3651L59.624 87.08ZM64.68 84.776H65.43V83.4267L64.2841 84.139L64.68 84.776ZM64.68 94.504L65.0874 95.1337L65.43 94.912V94.504H64.68ZM59.752 96.808L59.969 97.5259L59.9766 97.5236L59.9842 97.5212L59.752 96.808ZM53.352 96.89C49.8567 96.89 46.8583 96.266 44.3347 95.0449L43.6813 96.3951C46.4484 97.734 49.6793 98.39 53.352 98.39V96.89ZM44.3347 95.0449C41.837 93.8364 39.903 91.9669 38.524 89.4118L37.204 90.1242C38.7264 92.9451 40.8883 95.0436 43.6813 96.3951L44.3347 95.0449ZM38.524 89.4118C37.1502 86.8661 36.438 83.5647 36.438 79.464H34.938C34.938 83.726 35.6765 87.2939 37.204 90.1242L38.524 89.4118ZM36.438 79.464C36.438 75.2423 37.233 71.8907 38.7622 69.3554L37.4778 68.5806C35.7644 71.4213 34.938 75.067 34.938 79.464H36.438ZM38.7649 69.3509C40.312 66.7453 42.3965 64.8467 45.0263 63.633L44.3977 62.271C41.4809 63.6173 39.1707 65.7294 37.4751 68.5851L38.7649 69.3509ZM45.0309 63.6308C47.733 62.3617 50.8215 61.718 54.312 61.718V60.218C50.6345 60.218 47.323 60.897 44.3931 62.2732L45.0309 63.6308ZM54.312 61.718C56.434 61.718 58.4217 61.9468 60.2779 62.4005L60.6341 60.9434C58.6503 60.4585 56.542 60.218 54.312 60.218V61.718ZM60.2816 62.4014C62.1906 62.8579 63.947 63.4994 65.5538 64.3234L66.2382 62.9886C64.517 62.1059 62.6467 61.4247 60.6304 60.9426L60.2816 62.4014ZM65.199 63.3792L61.615 72.4032L63.009 72.9568L66.593 63.9328L65.199 63.3792ZM62.6147 71.9938C61.1407 71.3435 59.7461 70.82 58.4315 70.4256L58.0005 71.8624C59.2459 72.236 60.5819 72.7365 62.0093 73.3662L62.6147 71.9938ZM58.4383 70.4277C57.1252 70.0202 55.7486 69.818 54.312 69.818V71.318C55.606 71.318 56.8321 71.4998 57.9937 71.8603L58.4383 70.4277ZM54.312 69.818C52.938 69.818 51.6998 70.1758 50.6255 70.9083L51.4705 72.1477C52.2735 71.6002 53.2113 71.318 54.312 71.318V69.818ZM50.6255 70.9083C49.5332 71.653 48.7257 72.7723 48.1726 74.2013L49.5714 74.7427C50.0423 73.5264 50.6854 72.6829 51.4705 72.1477L50.6255 70.9083ZM48.1756 74.1935C47.616 75.5926 47.354 77.3389 47.354 79.4H48.854C48.854 77.4504 49.104 75.9114 49.5684 74.7505L48.1756 74.1935ZM47.354 79.4C47.354 81.4996 47.6149 83.2515 48.179 84.6148L49.565 84.0412C49.1051 82.9299 48.854 81.3964 48.854 79.4H47.354ZM48.1876 84.6348C48.7891 85.9765 49.6222 87.0209 50.7093 87.7127L51.5147 86.4473C50.7245 85.9444 50.0643 85.1542 49.5564 84.0212L48.1876 84.6348ZM50.7305 87.7257C51.7996 88.3575 53.0229 88.662 54.376 88.662V87.162C53.2544 87.162 52.3017 86.9119 51.4935 86.4343L50.7305 87.7257ZM54.376 88.662C56.206 88.662 58.0317 88.3717 59.8507 87.7949L59.3973 86.3651C57.7177 86.8976 56.0447 87.162 54.376 87.162V88.662ZM59.8458 87.7965C61.6984 87.223 63.4424 86.4284 65.076 85.413L64.2841 84.139C62.7603 85.0862 61.1336 85.8276 59.4022 86.3635L59.8458 87.7965ZM63.93 84.776V94.504H65.43V84.776H63.93ZM64.2726 93.8743C62.8824 94.7739 61.2998 95.5153 59.5198 96.0948L59.9842 97.5212C61.8736 96.906 63.5763 96.1115 65.0874 95.1337L64.2726 93.8743ZM59.535 96.0901C57.7866 96.6187 55.7292 96.89 53.352 96.89V98.39C55.8388 98.39 58.048 98.1067 59.969 97.5259L59.535 96.0901Z" fill="black" mask="url(#path-9-outside-5_39_817)"/>
<mask id="path-11-outside-6_39_817" maskUnits="userSpaceOnUse" x="34" y="56" width="33" height="39" fill="black">
<rect fill="white" x="34" y="56" width="33" height="39"/>
<path d="M53.352 93.64C49.768 93.64 46.6533 93 44.008 91.72C41.3627 90.44 39.3147 88.456 37.864 85.768C36.4133 83.08 35.688 79.6453 35.688 75.464C35.688 71.1547 36.4987 67.656 38.12 64.968C39.7413 62.2373 41.9387 60.232 44.712 58.952C47.528 57.6293 50.728 56.968 54.312 56.968C56.488 56.968 58.536 57.2027 60.456 57.672C62.4187 58.1413 64.232 58.8027 65.896 59.656L62.312 68.68C60.8613 68.04 59.496 67.528 58.216 67.144C56.9787 66.76 55.6773 66.568 54.312 66.568C53.0747 66.568 51.9867 66.888 51.048 67.528C50.1093 68.168 49.384 69.1493 48.872 70.472C48.36 71.752 48.104 73.3947 48.104 75.4C48.104 77.448 48.36 79.0907 48.872 80.328C49.4267 81.5653 50.1733 82.4827 51.112 83.08C52.0507 83.6347 53.1387 83.912 54.376 83.912C56.1253 83.912 57.8747 83.6347 59.624 83.08C61.416 82.5253 63.1013 81.7573 64.68 80.776V90.504C63.2293 91.4427 61.5867 92.2107 59.752 92.808C57.9173 93.3627 55.784 93.64 53.352 93.64Z"/>
</mask>
<path d="M53.352 93.64C49.768 93.64 46.6533 93 44.008 91.72C41.3627 90.44 39.3147 88.456 37.864 85.768C36.4133 83.08 35.688 79.6453 35.688 75.464C35.688 71.1547 36.4987 67.656 38.12 64.968C39.7413 62.2373 41.9387 60.232 44.712 58.952C47.528 57.6293 50.728 56.968 54.312 56.968C56.488 56.968 58.536 57.2027 60.456 57.672C62.4187 58.1413 64.232 58.8027 65.896 59.656L62.312 68.68C60.8613 68.04 59.496 67.528 58.216 67.144C56.9787 66.76 55.6773 66.568 54.312 66.568C53.0747 66.568 51.9867 66.888 51.048 67.528C50.1093 68.168 49.384 69.1493 48.872 70.472C48.36 71.752 48.104 73.3947 48.104 75.4C48.104 77.448 48.36 79.0907 48.872 80.328C49.4267 81.5653 50.1733 82.4827 51.112 83.08C52.0507 83.6347 53.1387 83.912 54.376 83.912C56.1253 83.912 57.8747 83.6347 59.624 83.08C61.416 82.5253 63.1013 81.7573 64.68 80.776V90.504C63.2293 91.4427 61.5867 92.2107 59.752 92.808C57.9173 93.3627 55.784 93.64 53.352 93.64Z" fill="#6002BE"/>
<path d="M44.008 91.72L43.6813 92.3951L44.008 91.72ZM37.864 85.768L37.204 86.1242L37.204 86.1242L37.864 85.768ZM38.12 64.968L38.7622 65.3554L38.7649 65.3509L38.12 64.968ZM44.712 58.952L45.0263 59.633L45.0309 59.6308L44.712 58.952ZM60.456 57.672L60.2779 58.4006L60.2816 58.4014L60.456 57.672ZM65.896 59.656L66.593 59.9328L66.8445 59.2996L66.2382 58.9886L65.896 59.656ZM62.312 68.68L62.0093 69.3662L62.7216 69.6805L63.009 68.9568L62.312 68.68ZM58.216 67.144L57.9937 67.8603L58.0005 67.8624L58.216 67.144ZM51.048 67.528L50.6255 66.9083L50.6255 66.9083L51.048 67.528ZM48.872 70.472L49.5684 70.7506L49.5714 70.7427L48.872 70.472ZM48.872 80.328L48.179 80.6148L48.1832 80.6248L48.1876 80.6348L48.872 80.328ZM51.112 83.08L50.7093 83.7127L50.7198 83.7194L50.7305 83.7257L51.112 83.08ZM59.624 83.08L59.4022 82.3635L59.3973 82.3651L59.624 83.08ZM64.68 80.776H65.43V79.4267L64.2841 80.139L64.68 80.776ZM64.68 90.504L65.0874 91.1337L65.43 90.912V90.504H64.68ZM59.752 92.808L59.969 93.5259L59.9766 93.5236L59.9842 93.5212L59.752 92.808ZM53.352 92.89C49.8567 92.89 46.8583 92.266 44.3347 91.0449L43.6813 92.3951C46.4484 93.734 49.6793 94.39 53.352 94.39V92.89ZM44.3347 91.0449C41.837 89.8364 39.903 87.9669 38.524 85.4118L37.204 86.1242C38.7264 88.9451 40.8883 91.0436 43.6813 92.3951L44.3347 91.0449ZM38.524 85.4118C37.1502 82.8661 36.438 79.5647 36.438 75.464H34.938C34.938 79.726 35.6765 83.2939 37.204 86.1242L38.524 85.4118ZM36.438 75.464C36.438 71.2423 37.233 67.8907 38.7622 65.3554L37.4778 64.5806C35.7644 67.4213 34.938 71.067 34.938 75.464H36.438ZM38.7649 65.3509C40.312 62.7453 42.3965 60.8467 45.0263 59.633L44.3977 58.271C41.4809 59.6173 39.1707 61.7294 37.4751 64.5851L38.7649 65.3509ZM45.0309 59.6308C47.733 58.3617 50.8215 57.718 54.312 57.718V56.218C50.6345 56.218 47.323 56.897 44.3931 58.2732L45.0309 59.6308ZM54.312 57.718C56.434 57.718 58.4217 57.9468 60.2779 58.4005L60.6341 56.9434C58.6503 56.4585 56.542 56.218 54.312 56.218V57.718ZM60.2816 58.4014C62.1906 58.8579 63.947 59.4994 65.5538 60.3234L66.2382 58.9886C64.517 58.1059 62.6467 57.4247 60.6304 56.9426L60.2816 58.4014ZM65.199 59.3792L61.615 68.4032L63.009 68.9568L66.593 59.9328L65.199 59.3792ZM62.6147 67.9938C61.1407 67.3435 59.7461 66.82 58.4315 66.4256L58.0005 67.8624C59.2459 68.236 60.5819 68.7365 62.0093 69.3662L62.6147 67.9938ZM58.4383 66.4277C57.1252 66.0202 55.7486 65.818 54.312 65.818V67.318C55.606 67.318 56.8321 67.4998 57.9937 67.8603L58.4383 66.4277ZM54.312 65.818C52.938 65.818 51.6998 66.1758 50.6255 66.9083L51.4705 68.1477C52.2735 67.6002 53.2113 67.318 54.312 67.318V65.818ZM50.6255 66.9083C49.5332 67.653 48.7257 68.7723 48.1726 70.2013L49.5714 70.7427C50.0423 69.5264 50.6854 68.6829 51.4705 68.1477L50.6255 66.9083ZM48.1756 70.1935C47.616 71.5926 47.354 73.3389 47.354 75.4H48.854C48.854 73.4504 49.104 71.9114 49.5684 70.7505L48.1756 70.1935ZM47.354 75.4C47.354 77.4996 47.6149 79.2515 48.179 80.6148L49.565 80.0412C49.1051 78.9299 48.854 77.3964 48.854 75.4H47.354ZM48.1876 80.6348C48.7891 81.9765 49.6222 83.0209 50.7093 83.7127L51.5147 82.4473C50.7245 81.9444 50.0643 81.1542 49.5564 80.0212L48.1876 80.6348ZM50.7305 83.7257C51.7996 84.3575 53.0229 84.662 54.376 84.662V83.162C53.2544 83.162 52.3017 82.9119 51.4935 82.4343L50.7305 83.7257ZM54.376 84.662C56.206 84.662 58.0317 84.3717 59.8507 83.7949L59.3973 82.3651C57.7177 82.8976 56.0447 83.162 54.376 83.162V84.662ZM59.8458 83.7965C61.6984 83.223 63.4424 82.4284 65.076 81.413L64.2841 80.139C62.7603 81.0862 61.1336 81.8276 59.4022 82.3635L59.8458 83.7965ZM63.93 80.776V90.504H65.43V80.776H63.93ZM64.2726 89.8743C62.8824 90.7739 61.2998 91.5153 59.5198 92.0948L59.9842 93.5212C61.8736 92.906 63.5763 92.1115 65.0874 91.1337L64.2726 89.8743ZM59.535 92.0901C57.7866 92.6187 55.7292 92.89 53.352 92.89V94.39C55.8388 94.39 58.048 94.1067 59.969 93.5259L59.535 92.0901Z" fill="black" mask="url(#path-11-outside-6_39_817)"/>
<mask id="path-13-outside-7_39_817" maskUnits="userSpaceOnUse" x="34" y="52" width="33" height="39" fill="black">
<rect fill="white" x="34" y="52" width="33" height="39"/>
<path d="M53.352 89.64C49.768 89.64 46.6533 89 44.008 87.72C41.3627 86.44 39.3147 84.456 37.864 81.768C36.4133 79.08 35.688 75.6453 35.688 71.464C35.688 67.1547 36.4987 63.656 38.12 60.968C39.7413 58.2373 41.9387 56.232 44.712 54.952C47.528 53.6293 50.728 52.968 54.312 52.968C56.488 52.968 58.536 53.2027 60.456 53.672C62.4187 54.1413 64.232 54.8027 65.896 55.656L62.312 64.68C60.8613 64.04 59.496 63.528 58.216 63.144C56.9787 62.76 55.6773 62.568 54.312 62.568C53.0747 62.568 51.9867 62.888 51.048 63.528C50.1093 64.168 49.384 65.1493 48.872 66.472C48.36 67.752 48.104 69.3947 48.104 71.4C48.104 73.448 48.36 75.0907 48.872 76.328C49.4267 77.5653 50.1733 78.4827 51.112 79.08C52.0507 79.6347 53.1387 79.912 54.376 79.912C56.1253 79.912 57.8747 79.6347 59.624 79.08C61.416 78.5253 63.1013 77.7573 64.68 76.776V86.504C63.2293 87.4427 61.5867 88.2107 59.752 88.808C57.9173 89.3627 55.784 89.64 53.352 89.64Z"/>
</mask>
<path d="M53.352 89.64C49.768 89.64 46.6533 89 44.008 87.72C41.3627 86.44 39.3147 84.456 37.864 81.768C36.4133 79.08 35.688 75.6453 35.688 71.464C35.688 67.1547 36.4987 63.656 38.12 60.968C39.7413 58.2373 41.9387 56.232 44.712 54.952C47.528 53.6293 50.728 52.968 54.312 52.968C56.488 52.968 58.536 53.2027 60.456 53.672C62.4187 54.1413 64.232 54.8027 65.896 55.656L62.312 64.68C60.8613 64.04 59.496 63.528 58.216 63.144C56.9787 62.76 55.6773 62.568 54.312 62.568C53.0747 62.568 51.9867 62.888 51.048 63.528C50.1093 64.168 49.384 65.1493 48.872 66.472C48.36 67.752 48.104 69.3947 48.104 71.4C48.104 73.448 48.36 75.0907 48.872 76.328C49.4267 77.5653 50.1733 78.4827 51.112 79.08C52.0507 79.6347 53.1387 79.912 54.376 79.912C56.1253 79.912 57.8747 79.6347 59.624 79.08C61.416 78.5253 63.1013 77.7573 64.68 76.776V86.504C63.2293 87.4427 61.5867 88.2107 59.752 88.808C57.9173 89.3627 55.784 89.64 53.352 89.64Z" fill="#9402C6"/>
<path d="M44.008 87.72L43.6813 88.3951L44.008 87.72ZM37.864 81.768L37.204 82.1242L37.204 82.1242L37.864 81.768ZM38.12 60.968L38.7622 61.3554L38.7649 61.3509L38.12 60.968ZM44.712 54.952L45.0263 55.633L45.0309 55.6308L44.712 54.952ZM60.456 53.672L60.2779 54.4006L60.2816 54.4014L60.456 53.672ZM65.896 55.656L66.593 55.9328L66.8445 55.2996L66.2382 54.9886L65.896 55.656ZM62.312 64.68L62.0093 65.3662L62.7216 65.6805L63.009 64.9568L62.312 64.68ZM58.216 63.144L57.9937 63.8603L58.0005 63.8624L58.216 63.144ZM51.048 63.528L50.6255 62.9083L50.6255 62.9083L51.048 63.528ZM48.872 66.472L49.5684 66.7506L49.5714 66.7427L48.872 66.472ZM48.872 76.328L48.179 76.6148L48.1832 76.6248L48.1876 76.6348L48.872 76.328ZM51.112 79.08L50.7093 79.7127L50.7198 79.7194L50.7305 79.7257L51.112 79.08ZM59.624 79.08L59.4022 78.3635L59.3973 78.3651L59.624 79.08ZM64.68 76.776H65.43V75.4267L64.2841 76.139L64.68 76.776ZM64.68 86.504L65.0874 87.1337L65.43 86.912V86.504H64.68ZM59.752 88.808L59.969 89.5259L59.9766 89.5236L59.9842 89.5212L59.752 88.808ZM53.352 88.89C49.8567 88.89 46.8583 88.266 44.3347 87.0449L43.6813 88.3951C46.4484 89.734 49.6793 90.39 53.352 90.39V88.89ZM44.3347 87.0449C41.837 85.8364 39.903 83.9669 38.524 81.4118L37.204 82.1242C38.7264 84.9451 40.8883 87.0436 43.6813 88.3951L44.3347 87.0449ZM38.524 81.4118C37.1502 78.8661 36.438 75.5647 36.438 71.464H34.938C34.938 75.726 35.6765 79.2939 37.204 82.1242L38.524 81.4118ZM36.438 71.464C36.438 67.2423 37.233 63.8907 38.7622 61.3554L37.4778 60.5806C35.7644 63.4213 34.938 67.067 34.938 71.464H36.438ZM38.7649 61.3509C40.312 58.7453 42.3965 56.8467 45.0263 55.633L44.3977 54.271C41.4809 55.6173 39.1707 57.7294 37.4751 60.5851L38.7649 61.3509ZM45.0309 55.6308C47.733 54.3617 50.8215 53.718 54.312 53.718V52.218C50.6345 52.218 47.323 52.897 44.3931 54.2732L45.0309 55.6308ZM54.312 53.718C56.434 53.718 58.4217 53.9468 60.2779 54.4005L60.6341 52.9434C58.6503 52.4585 56.542 52.218 54.312 52.218V53.718ZM60.2816 54.4014C62.1906 54.8579 63.947 55.4994 65.5538 56.3234L66.2382 54.9886C64.517 54.1059 62.6467 53.4247 60.6304 52.9426L60.2816 54.4014ZM65.199 55.3792L61.615 64.4032L63.009 64.9568L66.593 55.9328L65.199 55.3792ZM62.6147 63.9938C61.1407 63.3435 59.7461 62.82 58.4315 62.4256L58.0005 63.8624C59.2459 64.236 60.5819 64.7365 62.0093 65.3662L62.6147 63.9938ZM58.4383 62.4277C57.1252 62.0202 55.7486 61.818 54.312 61.818V63.318C55.606 63.318 56.8321 63.4998 57.9937 63.8603L58.4383 62.4277ZM54.312 61.818C52.938 61.818 51.6998 62.1758 50.6255 62.9083L51.4705 64.1477C52.2735 63.6002 53.2113 63.318 54.312 63.318V61.818ZM50.6255 62.9083C49.5332 63.653 48.7257 64.7723 48.1726 66.2013L49.5714 66.7427C50.0423 65.5264 50.6854 64.6829 51.4705 64.1477L50.6255 62.9083ZM48.1756 66.1935C47.616 67.5926 47.354 69.3389 47.354 71.4H48.854C48.854 69.4504 49.104 67.9114 49.5684 66.7505L48.1756 66.1935ZM47.354 71.4C47.354 73.4996 47.6149 75.2515 48.179 76.6148L49.565 76.0412C49.1051 74.9299 48.854 73.3964 48.854 71.4H47.354ZM48.1876 76.6348C48.7891 77.9765 49.6222 79.0209 50.7093 79.7127L51.5147 78.4473C50.7245 77.9444 50.0643 77.1542 49.5564 76.0212L48.1876 76.6348ZM50.7305 79.7257C51.7996 80.3575 53.0229 80.662 54.376 80.662V79.162C53.2544 79.162 52.3017 78.9119 51.4935 78.4343L50.7305 79.7257ZM54.376 80.662C56.206 80.662 58.0317 80.3717 59.8507 79.7949L59.3973 78.3651C57.7177 78.8976 56.0447 79.162 54.376 79.162V80.662ZM59.8458 79.7965C61.6984 79.223 63.4424 78.4284 65.076 77.413L64.2841 76.139C62.7603 77.0862 61.1336 77.8276 59.4022 78.3635L59.8458 79.7965ZM63.93 76.776V86.504H65.43V76.776H63.93ZM64.2726 85.8743C62.8824 86.7739 61.2998 87.5153 59.5198 88.0948L59.9842 89.5212C61.8736 88.906 63.5763 88.1115 65.0874 87.1337L64.2726 85.8743ZM59.535 88.0901C57.7866 88.6187 55.7292 88.89 53.352 88.89V90.39C55.8388 90.39 58.048 90.1067 59.969 89.5259L59.535 88.0901Z" fill="black" mask="url(#path-13-outside-7_39_817)"/>
<mask id="path-15-outside-8_39_817" maskUnits="userSpaceOnUse" x="34" y="48" width="33" height="39" fill="black">
<rect fill="white" x="34" y="48" width="33" height="39"/>
<path d="M53.352 85.64C49.768 85.64 46.6533 85 44.008 83.72C41.3627 82.44 39.3147 80.456 37.864 77.768C36.4133 75.08 35.688 71.6453 35.688 67.464C35.688 63.1547 36.4987 59.656 38.12 56.968C39.7413 54.2373 41.9387 52.232 44.712 50.952C47.528 49.6293 50.728 48.968 54.312 48.968C56.488 48.968 58.536 49.2027 60.456 49.672C62.4187 50.1413 64.232 50.8027 65.896 51.656L62.312 60.68C60.8613 60.04 59.496 59.528 58.216 59.144C56.9787 58.76 55.6773 58.568 54.312 58.568C53.0747 58.568 51.9867 58.888 51.048 59.528C50.1093 60.168 49.384 61.1493 48.872 62.472C48.36 63.752 48.104 65.3947 48.104 67.4C48.104 69.448 48.36 71.0907 48.872 72.328C49.4267 73.5653 50.1733 74.4827 51.112 75.08C52.0507 75.6347 53.1387 75.912 54.376 75.912C56.1253 75.912 57.8747 75.6347 59.624 75.08C61.416 74.5253 63.1013 73.7573 64.68 72.776V82.504C63.2293 83.4427 61.5867 84.2107 59.752 84.808C57.9173 85.3627 55.784 85.64 53.352 85.64Z"/>
</mask>
<path d="M53.352 85.64C49.768 85.64 46.6533 85 44.008 83.72C41.3627 82.44 39.3147 80.456 37.864 77.768C36.4133 75.08 35.688 71.6453 35.688 67.464C35.688 63.1547 36.4987 59.656 38.12 56.968C39.7413 54.2373 41.9387 52.232 44.712 50.952C47.528 49.6293 50.728 48.968 54.312 48.968C56.488 48.968 58.536 49.2027 60.456 49.672C62.4187 50.1413 64.232 50.8027 65.896 51.656L62.312 60.68C60.8613 60.04 59.496 59.528 58.216 59.144C56.9787 58.76 55.6773 58.568 54.312 58.568C53.0747 58.568 51.9867 58.888 51.048 59.528C50.1093 60.168 49.384 61.1493 48.872 62.472C48.36 63.752 48.104 65.3947 48.104 67.4C48.104 69.448 48.36 71.0907 48.872 72.328C49.4267 73.5653 50.1733 74.4827 51.112 75.08C52.0507 75.6347 53.1387 75.912 54.376 75.912C56.1253 75.912 57.8747 75.6347 59.624 75.08C61.416 74.5253 63.1013 73.7573 64.68 72.776V82.504C63.2293 83.4427 61.5867 84.2107 59.752 84.808C57.9173 85.3627 55.784 85.64 53.352 85.64Z" fill="#CD0099"/>
<path d="M44.008 83.72L43.6813 84.3951L44.008 83.72ZM37.864 77.768L37.204 78.1242L37.204 78.1242L37.864 77.768ZM38.12 56.968L38.7622 57.3554L38.7649 57.3509L38.12 56.968ZM44.712 50.952L45.0263 51.633L45.0309 51.6308L44.712 50.952ZM60.456 49.672L60.2779 50.4006L60.2816 50.4014L60.456 49.672ZM65.896 51.656L66.593 51.9328L66.8445 51.2996L66.2382 50.9886L65.896 51.656ZM62.312 60.68L62.0093 61.3662L62.7216 61.6805L63.009 60.9568L62.312 60.68ZM58.216 59.144L57.9937 59.8603L58.0005 59.8624L58.216 59.144ZM51.048 59.528L50.6255 58.9083L50.6255 58.9083L51.048 59.528ZM48.872 62.472L49.5684 62.7506L49.5714 62.7427L48.872 62.472ZM48.872 72.328L48.179 72.6148L48.1832 72.6248L48.1876 72.6348L48.872 72.328ZM51.112 75.08L50.7093 75.7127L50.7198 75.7194L50.7305 75.7257L51.112 75.08ZM59.624 75.08L59.4022 74.3635L59.3973 74.3651L59.624 75.08ZM64.68 72.776H65.43V71.4267L64.2841 72.139L64.68 72.776ZM64.68 82.504L65.0874 83.1337L65.43 82.912V82.504H64.68ZM59.752 84.808L59.969 85.5259L59.9766 85.5236L59.9842 85.5212L59.752 84.808ZM53.352 84.89C49.8567 84.89 46.8583 84.266 44.3347 83.0449L43.6813 84.3951C46.4484 85.734 49.6793 86.39 53.352 86.39V84.89ZM44.3347 83.0449C41.837 81.8364 39.903 79.9669 38.524 77.4118L37.204 78.1242C38.7264 80.9451 40.8883 83.0436 43.6813 84.3951L44.3347 83.0449ZM38.524 77.4118C37.1502 74.8661 36.438 71.5647 36.438 67.464H34.938C34.938 71.726 35.6765 75.2939 37.204 78.1242L38.524 77.4118ZM36.438 67.464C36.438 63.2423 37.233 59.8907 38.7622 57.3554L37.4778 56.5806C35.7644 59.4213 34.938 63.067 34.938 67.464H36.438ZM38.7649 57.3509C40.312 54.7453 42.3965 52.8467 45.0263 51.633L44.3977 50.271C41.4809 51.6173 39.1707 53.7294 37.4751 56.5851L38.7649 57.3509ZM45.0309 51.6308C47.733 50.3617 50.8215 49.718 54.312 49.718V48.218C50.6345 48.218 47.323 48.897 44.3931 50.2732L45.0309 51.6308ZM54.312 49.718C56.434 49.718 58.4217 49.9468 60.2779 50.4005L60.6341 48.9434C58.6503 48.4585 56.542 48.218 54.312 48.218V49.718ZM60.2816 50.4014C62.1906 50.8579 63.947 51.4994 65.5538 52.3234L66.2382 50.9886C64.517 50.1059 62.6467 49.4247 60.6304 48.9426L60.2816 50.4014ZM65.199 51.3792L61.615 60.4032L63.009 60.9568L66.593 51.9328L65.199 51.3792ZM62.6147 59.9938C61.1407 59.3435 59.7461 58.82 58.4315 58.4256L58.0005 59.8624C59.2459 60.236 60.5819 60.7365 62.0093 61.3662L62.6147 59.9938ZM58.4383 58.4277C57.1252 58.0202 55.7486 57.818 54.312 57.818V59.318C55.606 59.318 56.8321 59.4998 57.9937 59.8603L58.4383 58.4277ZM54.312 57.818C52.938 57.818 51.6998 58.1758 50.6255 58.9083L51.4705 60.1477C52.2735 59.6002 53.2113 59.318 54.312 59.318V57.818ZM50.6255 58.9083C49.5332 59.653 48.7257 60.7723 48.1726 62.2013L49.5714 62.7427C50.0423 61.5264 50.6854 60.6829 51.4705 60.1477L50.6255 58.9083ZM48.1756 62.1935C47.616 63.5926 47.354 65.3389 47.354 67.4H48.854C48.854 65.4504 49.104 63.9114 49.5684 62.7505L48.1756 62.1935ZM47.354 67.4C47.354 69.4996 47.6149 71.2515 48.179 72.6148L49.565 72.0412C49.1051 70.9299 48.854 69.3964 48.854 67.4H47.354ZM48.1876 72.6348C48.7891 73.9765 49.6222 75.0209 50.7093 75.7127L51.5147 74.4473C50.7245 73.9444 50.0643 73.1542 49.5564 72.0212L48.1876 72.6348ZM50.7305 75.7257C51.7996 76.3575 53.0229 76.662 54.376 76.662V75.162C53.2544 75.162 52.3017 74.9119 51.4935 74.4343L50.7305 75.7257ZM54.376 76.662C56.206 76.662 58.0317 76.3717 59.8507 75.7949L59.3973 74.3651C57.7177 74.8976 56.0447 75.162 54.376 75.162V76.662ZM59.8458 75.7965C61.6984 75.223 63.4424 74.4284 65.076 73.413L64.2841 72.139C62.7603 73.0862 61.1336 73.8276 59.4022 74.3635L59.8458 75.7965ZM63.93 72.776V82.504H65.43V72.776H63.93ZM64.2726 81.8743C62.8824 82.7739 61.2998 83.5153 59.5198 84.0948L59.9842 85.5212C61.8736 84.906 63.5763 84.1115 65.0874 83.1337L64.2726 81.8743ZM59.535 84.0901C57.7866 84.6187 55.7292 84.89 53.352 84.89V86.39C55.8388 86.39 58.048 86.1067 59.969 85.5259L59.535 84.0901Z" fill="black" mask="url(#path-15-outside-8_39_817)"/>
<mask id="path-17-outside-9_39_817" maskUnits="userSpaceOnUse" x="34" y="44" width="33" height="39" fill="black">
<rect fill="white" x="34" y="44" width="33" height="39"/>
<path d="M53.352 81.64C49.768 81.64 46.6533 81 44.008 79.72C41.3627 78.44 39.3147 76.456 37.864 73.768C36.4133 71.08 35.688 67.6453 35.688 63.464C35.688 59.1547 36.4987 55.656 38.12 52.968C39.7413 50.2373 41.9387 48.232 44.712 46.952C47.528 45.6293 50.728 44.968 54.312 44.968C56.488 44.968 58.536 45.2027 60.456 45.672C62.4187 46.1413 64.232 46.8027 65.896 47.656L62.312 56.68C60.8613 56.04 59.496 55.528 58.216 55.144C56.9787 54.76 55.6773 54.568 54.312 54.568C53.0747 54.568 51.9867 54.888 51.048 55.528C50.1093 56.168 49.384 57.1493 48.872 58.472C48.36 59.752 48.104 61.3947 48.104 63.4C48.104 65.448 48.36 67.0907 48.872 68.328C49.4267 69.5653 50.1733 70.4827 51.112 71.08C52.0507 71.6347 53.1387 71.912 54.376 71.912C56.1253 71.912 57.8747 71.6347 59.624 71.08C61.416 70.5253 63.1013 69.7573 64.68 68.776V78.504C63.2293 79.4427 61.5867 80.2107 59.752 80.808C57.9173 81.3627 55.784 81.64 53.352 81.64Z"/>
</mask>
<path d="M53.352 81.64C49.768 81.64 46.6533 81 44.008 79.72C41.3627 78.44 39.3147 76.456 37.864 73.768C36.4133 71.08 35.688 67.6453 35.688 63.464C35.688 59.1547 36.4987 55.656 38.12 52.968C39.7413 50.2373 41.9387 48.232 44.712 46.952C47.528 45.6293 50.728 44.968 54.312 44.968C56.488 44.968 58.536 45.2027 60.456 45.672C62.4187 46.1413 64.232 46.8027 65.896 47.656L62.312 56.68C60.8613 56.04 59.496 55.528 58.216 55.144C56.9787 54.76 55.6773 54.568 54.312 54.568C53.0747 54.568 51.9867 54.888 51.048 55.528C50.1093 56.168 49.384 57.1493 48.872 58.472C48.36 59.752 48.104 61.3947 48.104 63.4C48.104 65.448 48.36 67.0907 48.872 68.328C49.4267 69.5653 50.1733 70.4827 51.112 71.08C52.0507 71.6347 53.1387 71.912 54.376 71.912C56.1253 71.912 57.8747 71.6347 59.624 71.08C61.416 70.5253 63.1013 69.7573 64.68 68.776V78.504C63.2293 79.4427 61.5867 80.2107 59.752 80.808C57.9173 81.3627 55.784 81.64 53.352 81.64Z" fill="#E50061"/>
<path d="M44.008 79.72L43.6813 80.3951L44.008 79.72ZM37.864 73.768L37.204 74.1242L37.204 74.1242L37.864 73.768ZM38.12 52.968L38.7622 53.3554L38.7649 53.3509L38.12 52.968ZM44.712 46.952L45.0263 47.633L45.0309 47.6308L44.712 46.952ZM60.456 45.672L60.2779 46.4006L60.2816 46.4014L60.456 45.672ZM65.896 47.656L66.593 47.9328L66.8445 47.2996L66.2382 46.9886L65.896 47.656ZM62.312 56.68L62.0093 57.3662L62.7216 57.6805L63.009 56.9568L62.312 56.68ZM58.216 55.144L57.9937 55.8603L58.0005 55.8624L58.216 55.144ZM51.048 55.528L50.6255 54.9083L50.6255 54.9083L51.048 55.528ZM48.872 58.472L49.5684 58.7506L49.5714 58.7427L48.872 58.472ZM48.872 68.328L48.179 68.6148L48.1832 68.6248L48.1876 68.6348L48.872 68.328ZM51.112 71.08L50.7093 71.7127L50.7198 71.7194L50.7305 71.7257L51.112 71.08ZM59.624 71.08L59.4022 70.3635L59.3973 70.3651L59.624 71.08ZM64.68 68.776H65.43V67.4267L64.2841 68.139L64.68 68.776ZM64.68 78.504L65.0874 79.1337L65.43 78.912V78.504H64.68ZM59.752 80.808L59.969 81.5259L59.9766 81.5236L59.9842 81.5212L59.752 80.808ZM53.352 80.89C49.8567 80.89 46.8583 80.266 44.3347 79.0449L43.6813 80.3951C46.4484 81.734 49.6793 82.39 53.352 82.39V80.89ZM44.3347 79.0449C41.837 77.8364 39.903 75.9669 38.524 73.4118L37.204 74.1242C38.7264 76.9451 40.8883 79.0436 43.6813 80.3951L44.3347 79.0449ZM38.524 73.4118C37.1502 70.8661 36.438 67.5647 36.438 63.464H34.938C34.938 67.726 35.6765 71.2939 37.204 74.1242L38.524 73.4118ZM36.438 63.464C36.438 59.2423 37.233 55.8907 38.7622 53.3554L37.4778 52.5806C35.7644 55.4213 34.938 59.067 34.938 63.464H36.438ZM38.7649 53.3509C40.312 50.7453 42.3965 48.8467 45.0263 47.633L44.3977 46.271C41.4809 47.6173 39.1707 49.7294 37.4751 52.5851L38.7649 53.3509ZM45.0309 47.6308C47.733 46.3617 50.8215 45.718 54.312 45.718V44.218C50.6345 44.218 47.323 44.897 44.3931 46.2732L45.0309 47.6308ZM54.312 45.718C56.434 45.718 58.4217 45.9468 60.2779 46.4005L60.6341 44.9434C58.6503 44.4585 56.542 44.218 54.312 44.218V45.718ZM60.2816 46.4014C62.1906 46.8579 63.947 47.4994 65.5538 48.3234L66.2382 46.9886C64.517 46.1059 62.6467 45.4247 60.6304 44.9426L60.2816 46.4014ZM65.199 47.3792L61.615 56.4032L63.009 56.9568L66.593 47.9328L65.199 47.3792ZM62.6147 55.9938C61.1407 55.3435 59.7461 54.82 58.4315 54.4256L58.0005 55.8624C59.2459 56.236 60.5819 56.7365 62.0093 57.3662L62.6147 55.9938ZM58.4383 54.4277C57.1252 54.0202 55.7486 53.818 54.312 53.818V55.318C55.606 55.318 56.8321 55.4998 57.9937 55.8603L58.4383 54.4277ZM54.312 53.818C52.938 53.818 51.6998 54.1758 50.6255 54.9083L51.4705 56.1477C52.2735 55.6002 53.2113 55.318 54.312 55.318V53.818ZM50.6255 54.9083C49.5332 55.653 48.7257 56.7723 48.1726 58.2013L49.5714 58.7427C50.0423 57.5264 50.6854 56.6829 51.4705 56.1477L50.6255 54.9083ZM48.1756 58.1935C47.616 59.5926 47.354 61.3389 47.354 63.4H48.854C48.854 61.4504 49.104 59.9114 49.5684 58.7505L48.1756 58.1935ZM47.354 63.4C47.354 65.4996 47.6149 67.2515 48.179 68.6148L49.565 68.0412C49.1051 66.9299 48.854 65.3964 48.854 63.4H47.354ZM48.1876 68.6348C48.7891 69.9765 49.6222 71.0209 50.7093 71.7127L51.5147 70.4473C50.7245 69.9444 50.0643 69.1542 49.5564 68.0212L48.1876 68.6348ZM50.7305 71.7257C51.7996 72.3575 53.0229 72.662 54.376 72.662V71.162C53.2544 71.162 52.3017 70.9119 51.4935 70.4343L50.7305 71.7257ZM54.376 72.662C56.206 72.662 58.0317 72.3717 59.8507 71.7949L59.3973 70.3651C57.7177 70.8976 56.0447 71.162 54.376 71.162V72.662ZM59.8458 71.7965C61.6984 71.223 63.4424 70.4284 65.076 69.413L64.2841 68.139C62.7603 69.0862 61.1336 69.8276 59.4022 70.3635L59.8458 71.7965ZM63.93 68.776V78.504H65.43V68.776H63.93ZM64.2726 77.8743C62.8824 78.7739 61.2998 79.5153 59.5198 80.0948L59.9842 81.5212C61.8736 80.906 63.5763 80.1115 65.0874 79.1337L64.2726 77.8743ZM59.535 80.0901C57.7866 80.6187 55.7292 80.89 53.352 80.89V82.39C55.8388 82.39 58.048 82.1067 59.969 81.5259L59.535 80.0901Z" fill="black" mask="url(#path-17-outside-9_39_817)"/>
<mask id="path-19-outside-10_39_817" maskUnits="userSpaceOnUse" x="34" y="40" width="33" height="39" fill="black">
<rect fill="white" x="34" y="40" width="33" height="39"/>
<path d="M53.352 77.64C49.768 77.64 46.6533 77 44.008 75.72C41.3627 74.44 39.3147 72.456 37.864 69.768C36.4133 67.08 35.688 63.6453 35.688 59.464C35.688 55.1547 36.4987 51.656 38.12 48.968C39.7413 46.2373 41.9387 44.232 44.712 42.952C47.528 41.6293 50.728 40.968 54.312 40.968C56.488 40.968 58.536 41.2027 60.456 41.672C62.4187 42.1413 64.232 42.8027 65.896 43.656L62.312 52.68C60.8613 52.04 59.496 51.528 58.216 51.144C56.9787 50.76 55.6773 50.568 54.312 50.568C53.0747 50.568 51.9867 50.888 51.048 51.528C50.1093 52.168 49.384 53.1493 48.872 54.472C48.36 55.752 48.104 57.3947 48.104 59.4C48.104 61.448 48.36 63.0907 48.872 64.328C49.4267 65.5653 50.1733 66.4827 51.112 67.08C52.0507 67.6347 53.1387 67.912 54.376 67.912C56.1253 67.912 57.8747 67.6347 59.624 67.08C61.416 66.5253 63.1013 65.7573 64.68 64.776V74.504C63.2293 75.4427 61.5867 76.2107 59.752 76.808C57.9173 77.3627 55.784 77.64 53.352 77.64Z"/>
</mask>
<path d="M53.352 77.64C49.768 77.64 46.6533 77 44.008 75.72C41.3627 74.44 39.3147 72.456 37.864 69.768C36.4133 67.08 35.688 63.6453 35.688 59.464C35.688 55.1547 36.4987 51.656 38.12 48.968C39.7413 46.2373 41.9387 44.232 44.712 42.952C47.528 41.6293 50.728 40.968 54.312 40.968C56.488 40.968 58.536 41.2027 60.456 41.672C62.4187 42.1413 64.232 42.8027 65.896 43.656L62.312 52.68C60.8613 52.04 59.496 51.528 58.216 51.144C56.9787 50.76 55.6773 50.568 54.312 50.568C53.0747 50.568 51.9867 50.888 51.048 51.528C50.1093 52.168 49.384 53.1493 48.872 54.472C48.36 55.752 48.104 57.3947 48.104 59.4C48.104 61.448 48.36 63.0907 48.872 64.328C49.4267 65.5653 50.1733 66.4827 51.112 67.08C52.0507 67.6347 53.1387 67.912 54.376 67.912C56.1253 67.912 57.8747 67.6347 59.624 67.08C61.416 66.5253 63.1013 65.7573 64.68 64.776V74.504C63.2293 75.4427 61.5867 76.2107 59.752 76.808C57.9173 77.3627 55.784 77.64 53.352 77.64Z" fill="#E1290A"/>
<path d="M44.008 75.72L43.6813 76.3951L44.008 75.72ZM37.864 69.768L37.204 70.1242L37.204 70.1242L37.864 69.768ZM38.12 48.968L38.7622 49.3554L38.7649 49.3509L38.12 48.968ZM44.712 42.952L45.0263 43.633L45.0309 43.6308L44.712 42.952ZM60.456 41.672L60.2779 42.4006L60.2816 42.4014L60.456 41.672ZM65.896 43.656L66.593 43.9328L66.8445 43.2996L66.2382 42.9886L65.896 43.656ZM62.312 52.68L62.0093 53.3662L62.7216 53.6805L63.009 52.9568L62.312 52.68ZM58.216 51.144L57.9937 51.8603L58.0005 51.8624L58.216 51.144ZM51.048 51.528L50.6255 50.9083L50.6255 50.9083L51.048 51.528ZM48.872 54.472L49.5684 54.7506L49.5714 54.7427L48.872 54.472ZM48.872 64.328L48.179 64.6148L48.1832 64.6248L48.1876 64.6348L48.872 64.328ZM51.112 67.08L50.7093 67.7127L50.7198 67.7194L50.7305 67.7257L51.112 67.08ZM59.624 67.08L59.4022 66.3635L59.3973 66.3651L59.624 67.08ZM64.68 64.776H65.43V63.4267L64.2841 64.139L64.68 64.776ZM64.68 74.504L65.0874 75.1337L65.43 74.912V74.504H64.68ZM59.752 76.808L59.969 77.5259L59.9766 77.5236L59.9842 77.5212L59.752 76.808ZM53.352 76.89C49.8567 76.89 46.8583 76.266 44.3347 75.0449L43.6813 76.3951C46.4484 77.734 49.6793 78.39 53.352 78.39V76.89ZM44.3347 75.0449C41.837 73.8364 39.903 71.9669 38.524 69.4118L37.204 70.1242C38.7264 72.9451 40.8883 75.0436 43.6813 76.3951L44.3347 75.0449ZM38.524 69.4118C37.1502 66.8661 36.438 63.5647 36.438 59.464H34.938C34.938 63.726 35.6765 67.2939 37.204 70.1242L38.524 69.4118ZM36.438 59.464C36.438 55.2423 37.233 51.8907 38.7622 49.3554L37.4778 48.5806C35.7644 51.4213 34.938 55.067 34.938 59.464H36.438ZM38.7649 49.3509C40.312 46.7453 42.3965 44.8467 45.0263 43.633L44.3977 42.271C41.4809 43.6173 39.1707 45.7294 37.4751 48.5851L38.7649 49.3509ZM45.0309 43.6308C47.733 42.3617 50.8215 41.718 54.312 41.718V40.218C50.6345 40.218 47.323 40.897 44.3931 42.2732L45.0309 43.6308ZM54.312 41.718C56.434 41.718 58.4217 41.9468 60.2779 42.4005L60.6341 40.9434C58.6503 40.4585 56.542 40.218 54.312 40.218V41.718ZM60.2816 42.4014C62.1906 42.8579 63.947 43.4994 65.5538 44.3234L66.2382 42.9886C64.517 42.1059 62.6467 41.4247 60.6304 40.9426L60.2816 42.4014ZM65.199 43.3792L61.615 52.4032L63.009 52.9568L66.593 43.9328L65.199 43.3792ZM62.6147 51.9938C61.1407 51.3435 59.7461 50.82 58.4315 50.4256L58.0005 51.8624C59.2459 52.236 60.5819 52.7365 62.0093 53.3662L62.6147 51.9938ZM58.4383 50.4277C57.1252 50.0202 55.7486 49.818 54.312 49.818V51.318C55.606 51.318 56.8321 51.4998 57.9937 51.8603L58.4383 50.4277ZM54.312 49.818C52.938 49.818 51.6998 50.1758 50.6255 50.9083L51.4705 52.1477C52.2735 51.6002 53.2113 51.318 54.312 51.318V49.818ZM50.6255 50.9083C49.5332 51.653 48.7257 52.7723 48.1726 54.2013L49.5714 54.7427C50.0423 53.5264 50.6854 52.6829 51.4705 52.1477L50.6255 50.9083ZM48.1756 54.1935C47.616 55.5926 47.354 57.3389 47.354 59.4H48.854C48.854 57.4504 49.104 55.9114 49.5684 54.7505L48.1756 54.1935ZM47.354 59.4C47.354 61.4996 47.6149 63.2515 48.179 64.6148L49.565 64.0412C49.1051 62.9299 48.854 61.3964 48.854 59.4H47.354ZM48.1876 64.6348C48.7891 65.9765 49.6222 67.0209 50.7093 67.7127L51.5147 66.4473C50.7245 65.9444 50.0643 65.1542 49.5564 64.0212L48.1876 64.6348ZM50.7305 67.7257C51.7996 68.3575 53.0229 68.662 54.376 68.662V67.162C53.2544 67.162 52.3017 66.9119 51.4935 66.4343L50.7305 67.7257ZM54.376 68.662C56.206 68.662 58.0317 68.3717 59.8507 67.7949L59.3973 66.3651C57.7177 66.8976 56.0447 67.162 54.376 67.162V68.662ZM59.8458 67.7965C61.6984 67.223 63.4424 66.4284 65.076 65.413L64.2841 64.139C62.7603 65.0862 61.1336 65.8276 59.4022 66.3635L59.8458 67.7965ZM63.93 64.776V74.504H65.43V64.776H63.93ZM64.2726 73.8743C62.8824 74.7739 61.2998 75.5153 59.5198 76.0948L59.9842 77.5212C61.8736 76.906 63.5763 76.1115 65.0874 75.1337L64.2726 73.8743ZM59.535 76.0901C57.7866 76.6187 55.7292 76.89 53.352 76.89V78.39C55.8388 78.39 58.048 78.1067 59.969 77.5259L59.535 76.0901Z" fill="black" mask="url(#path-19-outside-10_39_817)"/>
<mask id="path-21-outside-11_39_817" maskUnits="userSpaceOnUse" x="34" y="36" width="33" height="39" fill="black">
<rect fill="white" x="34" y="36" width="33" height="39"/>
<path d="M53.352 73.64C49.768 73.64 46.6533 73 44.008 71.72C41.3627 70.44 39.3147 68.456 37.864 65.768C36.4133 63.08 35.688 59.6453 35.688 55.464C35.688 51.1547 36.4987 47.656 38.12 44.968C39.7413 42.2373 41.9387 40.232 44.712 38.952C47.528 37.6293 50.728 36.968 54.312 36.968C56.488 36.968 58.536 37.2027 60.456 37.672C62.4187 38.1413 64.232 38.8027 65.896 39.656L62.312 48.68C60.8613 48.04 59.496 47.528 58.216 47.144C56.9787 46.76 55.6773 46.568 54.312 46.568C53.0747 46.568 51.9867 46.888 51.048 47.528C50.1093 48.168 49.384 49.1493 48.872 50.472C48.36 51.752 48.104 53.3947 48.104 55.4C48.104 57.448 48.36 59.0907 48.872 60.328C49.4267 61.5653 50.1733 62.4827 51.112 63.08C52.0507 63.6347 53.1387 63.912 54.376 63.912C56.1253 63.912 57.8747 63.6347 59.624 63.08C61.416 62.5253 63.1013 61.7573 64.68 60.776V70.504C63.2293 71.4427 61.5867 72.2107 59.752 72.808C57.9173 73.3627 55.784 73.64 53.352 73.64Z"/>
</mask>
<path d="M53.352 73.64C49.768 73.64 46.6533 73 44.008 71.72C41.3627 70.44 39.3147 68.456 37.864 65.768C36.4133 63.08 35.688 59.6453 35.688 55.464C35.688 51.1547 36.4987 47.656 38.12 44.968C39.7413 42.2373 41.9387 40.232 44.712 38.952C47.528 37.6293 50.728 36.968 54.312 36.968C56.488 36.968 58.536 37.2027 60.456 37.672C62.4187 38.1413 64.232 38.8027 65.896 39.656L62.312 48.68C60.8613 48.04 59.496 47.528 58.216 47.144C56.9787 46.76 55.6773 46.568 54.312 46.568C53.0747 46.568 51.9867 46.888 51.048 47.528C50.1093 48.168 49.384 49.1493 48.872 50.472C48.36 51.752 48.104 53.3947 48.104 55.4C48.104 57.448 48.36 59.0907 48.872 60.328C49.4267 61.5653 50.1733 62.4827 51.112 63.08C52.0507 63.6347 53.1387 63.912 54.376 63.912C56.1253 63.912 57.8747 63.6347 59.624 63.08C61.416 62.5253 63.1013 61.7573 64.68 60.776V70.504C63.2293 71.4427 61.5867 72.2107 59.752 72.808C57.9173 73.3627 55.784 73.64 53.352 73.64Z" fill="#E05307"/>
<path d="M44.008 71.72L43.6813 72.3951L44.008 71.72ZM37.864 65.768L37.204 66.1242L37.204 66.1242L37.864 65.768ZM38.12 44.968L38.7622 45.3554L38.7649 45.3509L38.12 44.968ZM44.712 38.952L45.0263 39.633L45.0309 39.6308L44.712 38.952ZM60.456 37.672L60.2779 38.4006L60.2816 38.4014L60.456 37.672ZM65.896 39.656L66.593 39.9328L66.8445 39.2996L66.2382 38.9886L65.896 39.656ZM62.312 48.68L62.0093 49.3662L62.7216 49.6805L63.009 48.9568L62.312 48.68ZM58.216 47.144L57.9937 47.8603L58.0005 47.8624L58.216 47.144ZM51.048 47.528L50.6255 46.9083L50.6255 46.9083L51.048 47.528ZM48.872 50.472L49.5684 50.7506L49.5714 50.7427L48.872 50.472ZM48.872 60.328L48.179 60.6148L48.1832 60.6248L48.1876 60.6348L48.872 60.328ZM51.112 63.08L50.7093 63.7127L50.7198 63.7194L50.7305 63.7257L51.112 63.08ZM59.624 63.08L59.4022 62.3635L59.3973 62.3651L59.624 63.08ZM64.68 60.776H65.43V59.4267L64.2841 60.139L64.68 60.776ZM64.68 70.504L65.0874 71.1337L65.43 70.912V70.504H64.68ZM59.752 72.808L59.969 73.5259L59.9766 73.5236L59.9842 73.5212L59.752 72.808ZM53.352 72.89C49.8567 72.89 46.8583 72.266 44.3347 71.0449L43.6813 72.3951C46.4484 73.734 49.6793 74.39 53.352 74.39V72.89ZM44.3347 71.0449C41.837 69.8364 39.903 67.9669 38.524 65.4118L37.204 66.1242C38.7264 68.9451 40.8883 71.0436 43.6813 72.3951L44.3347 71.0449ZM38.524 65.4118C37.1502 62.8661 36.438 59.5647 36.438 55.464H34.938C34.938 59.726 35.6765 63.2939 37.204 66.1242L38.524 65.4118ZM36.438 55.464C36.438 51.2423 37.233 47.8907 38.7622 45.3554L37.4778 44.5806C35.7644 47.4213 34.938 51.067 34.938 55.464H36.438ZM38.7649 45.3509C40.312 42.7453 42.3965 40.8467 45.0263 39.633L44.3977 38.271C41.4809 39.6173 39.1707 41.7294 37.4751 44.5851L38.7649 45.3509ZM45.0309 39.6308C47.733 38.3617 50.8215 37.718 54.312 37.718V36.218C50.6345 36.218 47.323 36.897 44.3931 38.2732L45.0309 39.6308ZM54.312 37.718C56.434 37.718 58.4217 37.9468 60.2779 38.4005L60.6341 36.9434C58.6503 36.4585 56.542 36.218 54.312 36.218V37.718ZM60.2816 38.4014C62.1906 38.8579 63.947 39.4994 65.5538 40.3234L66.2382 38.9886C64.517 38.1059 62.6467 37.4247 60.6304 36.9426L60.2816 38.4014ZM65.199 39.3792L61.615 48.4032L63.009 48.9568L66.593 39.9328L65.199 39.3792ZM62.6147 47.9938C61.1407 47.3435 59.7461 46.82 58.4315 46.4256L58.0005 47.8624C59.2459 48.236 60.5819 48.7365 62.0093 49.3662L62.6147 47.9938ZM58.4383 46.4277C57.1252 46.0202 55.7486 45.818 54.312 45.818V47.318C55.606 47.318 56.8321 47.4998 57.9937 47.8603L58.4383 46.4277ZM54.312 45.818C52.938 45.818 51.6998 46.1758 50.6255 46.9083L51.4705 48.1477C52.2735 47.6002 53.2113 47.318 54.312 47.318V45.818ZM50.6255 46.9083C49.5332 47.653 48.7257 48.7723 48.1726 50.2013L49.5714 50.7427C50.0423 49.5264 50.6854 48.6829 51.4705 48.1477L50.6255 46.9083ZM48.1756 50.1935C47.616 51.5926 47.354 53.3389 47.354 55.4H48.854C48.854 53.4504 49.104 51.9114 49.5684 50.7505L48.1756 50.1935ZM47.354 55.4C47.354 57.4996 47.6149 59.2515 48.179 60.6148L49.565 60.0412C49.1051 58.9299 48.854 57.3964 48.854 55.4H47.354ZM48.1876 60.6348C48.7891 61.9765 49.6222 63.0209 50.7093 63.7127L51.5147 62.4473C50.7245 61.9444 50.0643 61.1542 49.5564 60.0212L48.1876 60.6348ZM50.7305 63.7257C51.7996 64.3575 53.0229 64.662 54.376 64.662V63.162C53.2544 63.162 52.3017 62.9119 51.4935 62.4343L50.7305 63.7257ZM54.376 64.662C56.206 64.662 58.0317 64.3717 59.8507 63.7949L59.3973 62.3651C57.7177 62.8976 56.0447 63.162 54.376 63.162V64.662ZM59.8458 63.7965C61.6984 63.223 63.4424 62.4284 65.076 61.413L64.2841 60.139C62.7603 61.0862 61.1336 61.8276 59.4022 62.3635L59.8458 63.7965ZM63.93 60.776V70.504H65.43V60.776H63.93ZM64.2726 69.8743C62.8824 70.7739 61.2998 71.5153 59.5198 72.0948L59.9842 73.5212C61.8736 72.906 63.5763 72.1115 65.0874 71.1337L64.2726 69.8743ZM59.535 72.0901C57.7866 72.6187 55.7292 72.89 53.352 72.89V74.39C55.8388 74.39 58.048 74.1067 59.969 73.5259L59.535 72.0901Z" fill="black" mask="url(#path-21-outside-11_39_817)"/>
<mask id="path-23-outside-12_39_817" maskUnits="userSpaceOnUse" x="34" y="32" width="33" height="39" fill="black">
<rect fill="white" x="34" y="32" width="33" height="39"/>
<path d="M53.352 69.64C49.768 69.64 46.6533 69 44.008 67.72C41.3627 66.44 39.3147 64.456 37.864 61.768C36.4133 59.08 35.688 55.6453 35.688 51.464C35.688 47.1547 36.4987 43.656 38.12 40.968C39.7413 38.2373 41.9387 36.232 44.712 34.952C47.528 33.6293 50.728 32.968 54.312 32.968C56.488 32.968 58.536 33.2027 60.456 33.672C62.4187 34.1413 64.232 34.8027 65.896 35.656L62.312 44.68C60.8613 44.04 59.496 43.528 58.216 43.144C56.9787 42.76 55.6773 42.568 54.312 42.568C53.0747 42.568 51.9867 42.888 51.048 43.528C50.1093 44.168 49.384 45.1493 48.872 46.472C48.36 47.752 48.104 49.3947 48.104 51.4C48.104 53.448 48.36 55.0907 48.872 56.328C49.4267 57.5653 50.1733 58.4827 51.112 59.08C52.0507 59.6347 53.1387 59.912 54.376 59.912C56.1253 59.912 57.8747 59.6347 59.624 59.08C61.416 58.5253 63.1013 57.7573 64.68 56.776V66.504C63.2293 67.4427 61.5867 68.2107 59.752 68.808C57.9173 69.3627 55.784 69.64 53.352 69.64Z"/>
</mask>
<path d="M53.352 69.64C49.768 69.64 46.6533 69 44.008 67.72C41.3627 66.44 39.3147 64.456 37.864 61.768C36.4133 59.08 35.688 55.6453 35.688 51.464C35.688 47.1547 36.4987 43.656 38.12 40.968C39.7413 38.2373 41.9387 36.232 44.712 34.952C47.528 33.6293 50.728 32.968 54.312 32.968C56.488 32.968 58.536 33.2027 60.456 33.672C62.4187 34.1413 64.232 34.8027 65.896 35.656L62.312 44.68C60.8613 44.04 59.496 43.528 58.216 43.144C56.9787 42.76 55.6773 42.568 54.312 42.568C53.0747 42.568 51.9867 42.888 51.048 43.528C50.1093 44.168 49.384 45.1493 48.872 46.472C48.36 47.752 48.104 49.3947 48.104 51.4C48.104 53.448 48.36 55.0907 48.872 56.328C49.4267 57.5653 50.1733 58.4827 51.112 59.08C52.0507 59.6347 53.1387 59.912 54.376 59.912C56.1253 59.912 57.8747 59.6347 59.624 59.08C61.416 58.5253 63.1013 57.7573 64.68 56.776V66.504C63.2293 67.4427 61.5867 68.2107 59.752 68.808C57.9173 69.3627 55.784 69.64 53.352 69.64Z" fill="#E27706"/>
<path d="M44.008 67.72L43.6813 68.3951L44.008 67.72ZM37.864 61.768L37.204 62.1242L37.204 62.1242L37.864 61.768ZM38.12 40.968L38.7622 41.3554L38.7649 41.3509L38.12 40.968ZM44.712 34.952L45.0263 35.633L45.0309 35.6308L44.712 34.952ZM60.456 33.672L60.2779 34.4006L60.2816 34.4014L60.456 33.672ZM65.896 35.656L66.593 35.9328L66.8445 35.2996L66.2382 34.9886L65.896 35.656ZM62.312 44.68L62.0093 45.3662L62.7216 45.6805L63.009 44.9568L62.312 44.68ZM58.216 43.144L57.9937 43.8603L58.0005 43.8624L58.216 43.144ZM51.048 43.528L50.6255 42.9083L50.6255 42.9083L51.048 43.528ZM48.872 46.472L49.5684 46.7506L49.5714 46.7427L48.872 46.472ZM48.872 56.328L48.179 56.6148L48.1832 56.6248L48.1876 56.6348L48.872 56.328ZM51.112 59.08L50.7093 59.7127L50.7198 59.7194L50.7305 59.7257L51.112 59.08ZM59.624 59.08L59.4022 58.3635L59.3973 58.3651L59.624 59.08ZM64.68 56.776H65.43V55.4267L64.2841 56.139L64.68 56.776ZM64.68 66.504L65.0874 67.1337L65.43 66.912V66.504H64.68ZM59.752 68.808L59.969 69.5259L59.9766 69.5236L59.9842 69.5212L59.752 68.808ZM53.352 68.89C49.8567 68.89 46.8583 68.266 44.3347 67.0449L43.6813 68.3951C46.4484 69.734 49.6793 70.39 53.352 70.39V68.89ZM44.3347 67.0449C41.837 65.8364 39.903 63.9669 38.524 61.4118L37.204 62.1242C38.7264 64.9451 40.8883 67.0436 43.6813 68.3951L44.3347 67.0449ZM38.524 61.4118C37.1502 58.8661 36.438 55.5647 36.438 51.464H34.938C34.938 55.726 35.6765 59.2939 37.204 62.1242L38.524 61.4118ZM36.438 51.464C36.438 47.2423 37.233 43.8907 38.7622 41.3554L37.4778 40.5806C35.7644 43.4213 34.938 47.067 34.938 51.464H36.438ZM38.7649 41.3509C40.312 38.7453 42.3965 36.8467 45.0263 35.633L44.3977 34.271C41.4809 35.6173 39.1707 37.7294 37.4751 40.5851L38.7649 41.3509ZM45.0309 35.6308C47.733 34.3617 50.8215 33.718 54.312 33.718V32.218C50.6345 32.218 47.323 32.897 44.3931 34.2732L45.0309 35.6308ZM54.312 33.718C56.434 33.718 58.4217 33.9468 60.2779 34.4005L60.6341 32.9434C58.6503 32.4585 56.542 32.218 54.312 32.218V33.718ZM60.2816 34.4014C62.1906 34.8579 63.947 35.4994 65.5538 36.3234L66.2382 34.9886C64.517 34.1059 62.6467 33.4247 60.6304 32.9426L60.2816 34.4014ZM65.199 35.3792L61.615 44.4032L63.009 44.9568L66.593 35.9328L65.199 35.3792ZM62.6147 43.9938C61.1407 43.3435 59.7461 42.82 58.4315 42.4256L58.0005 43.8624C59.2459 44.236 60.5819 44.7365 62.0093 45.3662L62.6147 43.9938ZM58.4383 42.4277C57.1252 42.0202 55.7486 41.818 54.312 41.818V43.318C55.606 43.318 56.8321 43.4998 57.9937 43.8603L58.4383 42.4277ZM54.312 41.818C52.938 41.818 51.6998 42.1758 50.6255 42.9083L51.4705 44.1477C52.2735 43.6002 53.2113 43.318 54.312 43.318V41.818ZM50.6255 42.9083C49.5332 43.653 48.7257 44.7723 48.1726 46.2013L49.5714 46.7427C50.0423 45.5264 50.6854 44.6829 51.4705 44.1477L50.6255 42.9083ZM48.1756 46.1935C47.616 47.5926 47.354 49.3389 47.354 51.4H48.854C48.854 49.4504 49.104 47.9114 49.5684 46.7505L48.1756 46.1935ZM47.354 51.4C47.354 53.4996 47.6149 55.2515 48.179 56.6148L49.565 56.0412C49.1051 54.9299 48.854 53.3964 48.854 51.4H47.354ZM48.1876 56.6348C48.7891 57.9765 49.6222 59.0209 50.7093 59.7127L51.5147 58.4473C50.7245 57.9444 50.0643 57.1542 49.5564 56.0212L48.1876 56.6348ZM50.7305 59.7257C51.7996 60.3575 53.0229 60.662 54.376 60.662V59.162C53.2544 59.162 52.3017 58.9119 51.4935 58.4343L50.7305 59.7257ZM54.376 60.662C56.206 60.662 58.0317 60.3717 59.8507 59.7949L59.3973 58.3651C57.7177 58.8976 56.0447 59.162 54.376 59.162V60.662ZM59.8458 59.7965C61.6984 59.223 63.4424 58.4284 65.076 57.413L64.2841 56.139C62.7603 57.0862 61.1336 57.8276 59.4022 58.3635L59.8458 59.7965ZM63.93 56.776V66.504H65.43V56.776H63.93ZM64.2726 65.8743C62.8824 66.7739 61.2998 67.5153 59.5198 68.0948L59.9842 69.5212C61.8736 68.906 63.5763 68.1115 65.0874 67.1337L64.2726 65.8743ZM59.535 68.0901C57.7866 68.6187 55.7292 68.89 53.352 68.89V70.39C55.8388 70.39 58.048 70.1067 59.969 69.5259L59.535 68.0901Z" fill="black" mask="url(#path-23-outside-12_39_817)"/>
<mask id="path-25-outside-13_39_817" maskUnits="userSpaceOnUse" x="34" y="28" width="33" height="39" fill="black">
<rect fill="white" x="34" y="28" width="33" height="39"/>
<path d="M53.352 65.64C49.768 65.64 46.6533 65 44.008 63.72C41.3627 62.44 39.3147 60.456 37.864 57.768C36.4133 55.08 35.688 51.6453 35.688 47.464C35.688 43.1547 36.4987 39.656 38.12 36.968C39.7413 34.2373 41.9387 32.232 44.712 30.952C47.528 29.6293 50.728 28.968 54.312 28.968C56.488 28.968 58.536 29.2027 60.456 29.672C62.4187 30.1413 64.232 30.8027 65.896 31.656L62.312 40.68C60.8613 40.04 59.496 39.528 58.216 39.144C56.9787 38.76 55.6773 38.568 54.312 38.568C53.0747 38.568 51.9867 38.888 51.048 39.528C50.1093 40.168 49.384 41.1493 48.872 42.472C48.36 43.752 48.104 45.3947 48.104 47.4C48.104 49.448 48.36 51.0907 48.872 52.328C49.4267 53.5653 50.1733 54.4827 51.112 55.08C52.0507 55.6347 53.1387 55.912 54.376 55.912C56.1253 55.912 57.8747 55.6347 59.624 55.08C61.416 54.5253 63.1013 53.7573 64.68 52.776V62.504C63.2293 63.4427 61.5867 64.2107 59.752 64.808C57.9173 65.3627 55.784 65.64 53.352 65.64Z"/>
</mask>
<path d="M53.352 65.64C49.768 65.64 46.6533 65 44.008 63.72C41.3627 62.44 39.3147 60.456 37.864 57.768C36.4133 55.08 35.688 51.6453 35.688 47.464C35.688 43.1547 36.4987 39.656 38.12 36.968C39.7413 34.2373 41.9387 32.232 44.712 30.952C47.528 29.6293 50.728 28.968 54.312 28.968C56.488 28.968 58.536 29.2027 60.456 29.672C62.4187 30.1413 64.232 30.8027 65.896 31.656L62.312 40.68C60.8613 40.04 59.496 39.528 58.216 39.144C56.9787 38.76 55.6773 38.568 54.312 38.568C53.0747 38.568 51.9867 38.888 51.048 39.528C50.1093 40.168 49.384 41.1493 48.872 42.472C48.36 43.752 48.104 45.3947 48.104 47.4C48.104 49.448 48.36 51.0907 48.872 52.328C49.4267 53.5653 50.1733 54.4827 51.112 55.08C52.0507 55.6347 53.1387 55.912 54.376 55.912C56.1253 55.912 57.8747 55.6347 59.624 55.08C61.416 54.5253 63.1013 53.7573 64.68 52.776V62.504C63.2293 63.4427 61.5867 64.2107 59.752 64.808C57.9173 65.3627 55.784 65.64 53.352 65.64Z" fill="#E0B516"/>
<path d="M44.008 63.72L43.6813 64.3951L44.008 63.72ZM37.864 57.768L37.204 58.1242L37.204 58.1242L37.864 57.768ZM38.12 36.968L38.7622 37.3554L38.7649 37.3509L38.12 36.968ZM44.712 30.952L45.0263 31.633L45.0309 31.6308L44.712 30.952ZM60.456 29.672L60.2779 30.4006L60.2816 30.4014L60.456 29.672ZM65.896 31.656L66.593 31.9328L66.8445 31.2996L66.2382 30.9886L65.896 31.656ZM62.312 40.68L62.0093 41.3662L62.7216 41.6805L63.009 40.9568L62.312 40.68ZM58.216 39.144L57.9937 39.8603L58.0005 39.8624L58.216 39.144ZM51.048 39.528L50.6255 38.9083L50.6255 38.9083L51.048 39.528ZM48.872 42.472L49.5684 42.7506L49.5714 42.7427L48.872 42.472ZM48.872 52.328L48.179 52.6148L48.1832 52.6248L48.1876 52.6348L48.872 52.328ZM51.112 55.08L50.7093 55.7127L50.7198 55.7194L50.7305 55.7257L51.112 55.08ZM59.624 55.08L59.4022 54.3635L59.3973 54.3651L59.624 55.08ZM64.68 52.776H65.43V51.4267L64.2841 52.139L64.68 52.776ZM64.68 62.504L65.0874 63.1337L65.43 62.912V62.504H64.68ZM59.752 64.808L59.969 65.5259L59.9766 65.5236L59.9842 65.5212L59.752 64.808ZM53.352 64.89C49.8567 64.89 46.8583 64.266 44.3347 63.0449L43.6813 64.3951C46.4484 65.734 49.6793 66.39 53.352 66.39V64.89ZM44.3347 63.0449C41.837 61.8364 39.903 59.9669 38.524 57.4118L37.204 58.1242C38.7264 60.9451 40.8883 63.0436 43.6813 64.3951L44.3347 63.0449ZM38.524 57.4118C37.1502 54.8661 36.438 51.5647 36.438 47.464H34.938C34.938 51.726 35.6765 55.2939 37.204 58.1242L38.524 57.4118ZM36.438 47.464C36.438 43.2423 37.233 39.8907 38.7622 37.3554L37.4778 36.5806C35.7644 39.4213 34.938 43.067 34.938 47.464H36.438ZM38.7649 37.3509C40.312 34.7453 42.3965 32.8467 45.0263 31.633L44.3977 30.271C41.4809 31.6173 39.1707 33.7294 37.4751 36.5851L38.7649 37.3509ZM45.0309 31.6308C47.733 30.3617 50.8215 29.718 54.312 29.718V28.218C50.6345 28.218 47.323 28.897 44.3931 30.2732L45.0309 31.6308ZM54.312 29.718C56.434 29.718 58.4217 29.9468 60.2779 30.4005L60.6341 28.9434C58.6503 28.4585 56.542 28.218 54.312 28.218V29.718ZM60.2816 30.4014C62.1906 30.8579 63.947 31.4994 65.5538 32.3234L66.2382 30.9886C64.517 30.1059 62.6467 29.4247 60.6304 28.9426L60.2816 30.4014ZM65.199 31.3792L61.615 40.4032L63.009 40.9568L66.593 31.9328L65.199 31.3792ZM62.6147 39.9938C61.1407 39.3435 59.7461 38.82 58.4315 38.4256L58.0005 39.8624C59.2459 40.236 60.5819 40.7365 62.0093 41.3662L62.6147 39.9938ZM58.4383 38.4277C57.1252 38.0202 55.7486 37.818 54.312 37.818V39.318C55.606 39.318 56.8321 39.4998 57.9937 39.8603L58.4383 38.4277ZM54.312 37.818C52.938 37.818 51.6998 38.1758 50.6255 38.9083L51.4705 40.1477C52.2735 39.6002 53.2113 39.318 54.312 39.318V37.818ZM50.6255 38.9083C49.5332 39.653 48.7257 40.7723 48.1726 42.2013L49.5714 42.7427C50.0423 41.5264 50.6854 40.6829 51.4705 40.1477L50.6255 38.9083ZM48.1756 42.1935C47.616 43.5926 47.354 45.3389 47.354 47.4H48.854C48.854 45.4504 49.104 43.9114 49.5684 42.7505L48.1756 42.1935ZM47.354 47.4C47.354 49.4996 47.6149 51.2515 48.179 52.6148L49.565 52.0412C49.1051 50.9299 48.854 49.3964 48.854 47.4H47.354ZM48.1876 52.6348C48.7891 53.9765 49.6222 55.0209 50.7093 55.7127L51.5147 54.4473C50.7245 53.9444 50.0643 53.1542 49.5564 52.0212L48.1876 52.6348ZM50.7305 55.7257C51.7996 56.3575 53.0229 56.662 54.376 56.662V55.162C53.2544 55.162 52.3017 54.9119 51.4935 54.4343L50.7305 55.7257ZM54.376 56.662C56.206 56.662 58.0317 56.3717 59.8507 55.7949L59.3973 54.3651C57.7177 54.8976 56.0447 55.162 54.376 55.162V56.662ZM59.8458 55.7965C61.6984 55.223 63.4424 54.4284 65.076 53.413L64.2841 52.139C62.7603 53.0862 61.1336 53.8276 59.4022 54.3635L59.8458 55.7965ZM63.93 52.776V62.504H65.43V52.776H63.93ZM64.2726 61.8743C62.8824 62.7739 61.2998 63.5153 59.5198 64.0948L59.9842 65.5212C61.8736 64.906 63.5763 64.1115 65.0874 63.1337L64.2726 61.8743ZM59.535 64.0901C57.7866 64.6187 55.7292 64.89 53.352 64.89V66.39C55.8388 66.39 58.048 66.1067 59.969 65.5259L59.535 64.0901Z" fill="black" mask="url(#path-25-outside-13_39_817)"/>
<mask id="path-27-outside-14_39_817" maskUnits="userSpaceOnUse" x="34" y="24" width="33" height="39" fill="black">
<rect fill="white" x="34" y="24" width="33" height="39"/>
<path d="M53.352 61.64C49.768 61.64 46.6533 61 44.008 59.72C41.3627 58.44 39.3147 56.456 37.864 53.768C36.4133 51.08 35.688 47.6453 35.688 43.464C35.688 39.1547 36.4987 35.656 38.12 32.968C39.7413 30.2373 41.9387 28.232 44.712 26.952C47.528 25.6293 50.728 24.968 54.312 24.968C56.488 24.968 58.536 25.2027 60.456 25.672C62.4187 26.1413 64.232 26.8027 65.896 27.656L62.312 36.68C60.8613 36.04 59.496 35.528 58.216 35.144C56.9787 34.76 55.6773 34.568 54.312 34.568C53.0747 34.568 51.9867 34.888 51.048 35.528C50.1093 36.168 49.384 37.1493 48.872 38.472C48.36 39.752 48.104 41.3947 48.104 43.4C48.104 45.448 48.36 47.0907 48.872 48.328C49.4267 49.5653 50.1733 50.4827 51.112 51.08C52.0507 51.6347 53.1387 51.912 54.376 51.912C56.1253 51.912 57.8747 51.6347 59.624 51.08C61.416 50.5253 63.1013 49.7573 64.68 48.776V58.504C63.2293 59.4427 61.5867 60.2107 59.752 60.808C57.9173 61.3627 55.784 61.64 53.352 61.64Z"/>
</mask>
<path d="M53.352 61.64C49.768 61.64 46.6533 61 44.008 59.72C41.3627 58.44 39.3147 56.456 37.864 53.768C36.4133 51.08 35.688 47.6453 35.688 43.464C35.688 39.1547 36.4987 35.656 38.12 32.968C39.7413 30.2373 41.9387 28.232 44.712 26.952C47.528 25.6293 50.728 24.968 54.312 24.968C56.488 24.968 58.536 25.2027 60.456 25.672C62.4187 26.1413 64.232 26.8027 65.896 27.656L62.312 36.68C60.8613 36.04 59.496 35.528 58.216 35.144C56.9787 34.76 55.6773 34.568 54.312 34.568C53.0747 34.568 51.9867 34.888 51.048 35.528C50.1093 36.168 49.384 37.1493 48.872 38.472C48.36 39.752 48.104 41.3947 48.104 43.4C48.104 45.448 48.36 47.0907 48.872 48.328C49.4267 49.5653 50.1733 50.4827 51.112 51.08C52.0507 51.6347 53.1387 51.912 54.376 51.912C56.1253 51.912 57.8747 51.6347 59.624 51.08C61.416 50.5253 63.1013 49.7573 64.68 48.776V58.504C63.2293 59.4427 61.5867 60.2107 59.752 60.808C57.9173 61.3627 55.784 61.64 53.352 61.64Z" fill="#FBCB15"/>
<path d="M44.008 59.72L43.6813 60.3951L44.008 59.72ZM37.864 53.768L37.204 54.1242L37.204 54.1242L37.864 53.768ZM38.12 32.968L38.7622 33.3554L38.7649 33.3509L38.12 32.968ZM44.712 26.952L45.0263 27.633L45.0309 27.6308L44.712 26.952ZM60.456 25.672L60.2779 26.4006L60.2816 26.4014L60.456 25.672ZM65.896 27.656L66.593 27.9328L66.8445 27.2996L66.2382 26.9886L65.896 27.656ZM62.312 36.68L62.0093 37.3662L62.7216 37.6805L63.009 36.9568L62.312 36.68ZM58.216 35.144L57.9937 35.8603L58.0005 35.8624L58.216 35.144ZM51.048 35.528L50.6255 34.9083L50.6255 34.9083L51.048 35.528ZM48.872 38.472L49.5684 38.7506L49.5714 38.7427L48.872 38.472ZM48.872 48.328L48.179 48.6148L48.1832 48.6248L48.1876 48.6348L48.872 48.328ZM51.112 51.08L50.7093 51.7127L50.7198 51.7194L50.7305 51.7257L51.112 51.08ZM59.624 51.08L59.4022 50.3635L59.3973 50.3651L59.624 51.08ZM64.68 48.776H65.43V47.4267L64.2841 48.139L64.68 48.776ZM64.68 58.504L65.0874 59.1337L65.43 58.912V58.504H64.68ZM59.752 60.808L59.969 61.5259L59.9766 61.5236L59.9842 61.5212L59.752 60.808ZM53.352 60.89C49.8567 60.89 46.8583 60.266 44.3347 59.0449L43.6813 60.3951C46.4484 61.734 49.6793 62.39 53.352 62.39V60.89ZM44.3347 59.0449C41.837 57.8364 39.903 55.9669 38.524 53.4118L37.204 54.1242C38.7264 56.9451 40.8883 59.0436 43.6813 60.3951L44.3347 59.0449ZM38.524 53.4118C37.1502 50.8661 36.438 47.5647 36.438 43.464H34.938C34.938 47.726 35.6765 51.2939 37.204 54.1242L38.524 53.4118ZM36.438 43.464C36.438 39.2423 37.233 35.8907 38.7622 33.3554L37.4778 32.5806C35.7644 35.4213 34.938 39.067 34.938 43.464H36.438ZM38.7649 33.3509C40.312 30.7453 42.3965 28.8467 45.0263 27.633L44.3977 26.271C41.4809 27.6173 39.1707 29.7294 37.4751 32.5851L38.7649 33.3509ZM45.0309 27.6308C47.733 26.3617 50.8215 25.718 54.312 25.718V24.218C50.6345 24.218 47.323 24.897 44.3931 26.2732L45.0309 27.6308ZM54.312 25.718C56.434 25.718 58.4217 25.9468 60.2779 26.4005L60.6341 24.9434C58.6503 24.4585 56.542 24.218 54.312 24.218V25.718ZM60.2816 26.4014C62.1906 26.8579 63.947 27.4994 65.5538 28.3234L66.2382 26.9886C64.517 26.1059 62.6467 25.4247 60.6304 24.9426L60.2816 26.4014ZM65.199 27.3792L61.615 36.4032L63.009 36.9568L66.593 27.9328L65.199 27.3792ZM62.6147 35.9938C61.1407 35.3435 59.7461 34.82 58.4315 34.4256L58.0005 35.8624C59.2459 36.236 60.5819 36.7365 62.0093 37.3662L62.6147 35.9938ZM58.4383 34.4277C57.1252 34.0202 55.7486 33.818 54.312 33.818V35.318C55.606 35.318 56.8321 35.4998 57.9937 35.8603L58.4383 34.4277ZM54.312 33.818C52.938 33.818 51.6998 34.1758 50.6255 34.9083L51.4705 36.1477C52.2735 35.6002 53.2113 35.318 54.312 35.318V33.818ZM50.6255 34.9083C49.5332 35.653 48.7257 36.7723 48.1726 38.2013L49.5714 38.7427C50.0423 37.5264 50.6854 36.6829 51.4705 36.1477L50.6255 34.9083ZM48.1756 38.1935C47.616 39.5926 47.354 41.3389 47.354 43.4H48.854C48.854 41.4504 49.104 39.9114 49.5684 38.7505L48.1756 38.1935ZM47.354 43.4C47.354 45.4996 47.6149 47.2515 48.179 48.6148L49.565 48.0412C49.1051 46.9299 48.854 45.3964 48.854 43.4H47.354ZM48.1876 48.6348C48.7891 49.9765 49.6222 51.0209 50.7093 51.7127L51.5147 50.4473C50.7245 49.9444 50.0643 49.1542 49.5564 48.0212L48.1876 48.6348ZM50.7305 51.7257C51.7996 52.3575 53.0229 52.662 54.376 52.662V51.162C53.2544 51.162 52.3017 50.9119 51.4935 50.4343L50.7305 51.7257ZM54.376 52.662C56.206 52.662 58.0317 52.3717 59.8507 51.7949L59.3973 50.3651C57.7177 50.8976 56.0447 51.162 54.376 51.162V52.662ZM59.8458 51.7965C61.6984 51.223 63.4424 50.4284 65.076 49.413L64.2841 48.139C62.7603 49.0862 61.1336 49.8276 59.4022 50.3635L59.8458 51.7965ZM63.93 48.776V58.504H65.43V48.776H63.93ZM64.2726 57.8743C62.8824 58.7739 61.2998 59.5153 59.5198 60.0948L59.9842 61.5212C61.8736 60.906 63.5763 60.1115 65.0874 59.1337L64.2726 57.8743ZM59.535 60.0901C57.7866 60.6187 55.7292 60.89 53.352 60.89V62.39C55.8388 62.39 58.048 62.1067 59.969 61.5259L59.535 60.0901Z" fill="black" mask="url(#path-27-outside-14_39_817)"/>
<mask id="path-29-outside-15_39_817" maskUnits="userSpaceOnUse" x="34" y="20" width="33" height="39" fill="black">
<rect fill="white" x="34" y="20" width="33" height="39"/>
<path d="M53.352 57.64C49.768 57.64 46.6533 57 44.008 55.72C41.3627 54.44 39.3147 52.456 37.864 49.768C36.4133 47.08 35.688 43.6453 35.688 39.464C35.688 35.1547 36.4987 31.656 38.12 28.968C39.7413 26.2373 41.9387 24.232 44.712 22.952C47.528 21.6293 50.728 20.968 54.312 20.968C56.488 20.968 58.536 21.2027 60.456 21.672C62.4187 22.1413 64.232 22.8027 65.896 23.656L62.312 32.68C60.8613 32.04 59.496 31.528 58.216 31.144C56.9787 30.76 55.6773 30.568 54.312 30.568C53.0747 30.568 51.9867 30.888 51.048 31.528C50.1093 32.168 49.384 33.1493 48.872 34.472C48.36 35.752 48.104 37.3947 48.104 39.4C48.104 41.448 48.36 43.0907 48.872 44.328C49.4267 45.5653 50.1733 46.4827 51.112 47.08C52.0507 47.6347 53.1387 47.912 54.376 47.912C56.1253 47.912 57.8747 47.6347 59.624 47.08C61.416 46.5253 63.1013 45.7573 64.68 44.776V54.504C63.2293 55.4427 61.5867 56.2107 59.752 56.808C57.9173 57.3627 55.784 57.64 53.352 57.64Z"/>
</mask>
<path d="M53.352 57.64C49.768 57.64 46.6533 57 44.008 55.72C41.3627 54.44 39.3147 52.456 37.864 49.768C36.4133 47.08 35.688 43.6453 35.688 39.464C35.688 35.1547 36.4987 31.656 38.12 28.968C39.7413 26.2373 41.9387 24.232 44.712 22.952C47.528 21.6293 50.728 20.968 54.312 20.968C56.488 20.968 58.536 21.2027 60.456 21.672C62.4187 22.1413 64.232 22.8027 65.896 23.656L62.312 32.68C60.8613 32.04 59.496 31.528 58.216 31.144C56.9787 30.76 55.6773 30.568 54.312 30.568C53.0747 30.568 51.9867 30.888 51.048 31.528C50.1093 32.168 49.384 33.1493 48.872 34.472C48.36 35.752 48.104 37.3947 48.104 39.4C48.104 41.448 48.36 43.0907 48.872 44.328C49.4267 45.5653 50.1733 46.4827 51.112 47.08C52.0507 47.6347 53.1387 47.912 54.376 47.912C56.1253 47.912 57.8747 47.6347 59.624 47.08C61.416 46.5253 63.1013 45.7573 64.68 44.776V54.504C63.2293 55.4427 61.5867 56.2107 59.752 56.808C57.9173 57.3627 55.784 57.64 53.352 57.64Z" fill="white"/>
<path d="M44.008 55.72L43.6813 56.3951L44.008 55.72ZM37.864 49.768L37.204 50.1242L37.204 50.1242L37.864 49.768ZM38.12 28.968L38.7622 29.3554L38.7649 29.3509L38.12 28.968ZM44.712 22.952L45.0263 23.633L45.0309 23.6308L44.712 22.952ZM60.456 21.672L60.2779 22.4006L60.2816 22.4014L60.456 21.672ZM65.896 23.656L66.593 23.9328L66.8445 23.2996L66.2382 22.9886L65.896 23.656ZM62.312 32.68L62.0093 33.3662L62.7216 33.6805L63.009 32.9568L62.312 32.68ZM58.216 31.144L57.9937 31.8603L58.0005 31.8624L58.216 31.144ZM51.048 31.528L50.6255 30.9083L50.6255 30.9083L51.048 31.528ZM48.872 34.472L49.5684 34.7506L49.5714 34.7427L48.872 34.472ZM48.872 44.328L48.179 44.6148L48.1832 44.6248L48.1876 44.6348L48.872 44.328ZM51.112 47.08L50.7093 47.7127L50.7198 47.7194L50.7305 47.7257L51.112 47.08ZM59.624 47.08L59.4022 46.3635L59.3973 46.3651L59.624 47.08ZM64.68 44.776H65.43V43.4267L64.2841 44.139L64.68 44.776ZM64.68 54.504L65.0874 55.1337L65.43 54.912V54.504H64.68ZM59.752 56.808L59.969 57.5259L59.9766 57.5236L59.9842 57.5212L59.752 56.808ZM53.352 56.89C49.8567 56.89 46.8583 56.266 44.3347 55.0449L43.6813 56.3951C46.4484 57.734 49.6793 58.39 53.352 58.39V56.89ZM44.3347 55.0449C41.837 53.8364 39.903 51.9669 38.524 49.4118L37.204 50.1242C38.7264 52.9451 40.8883 55.0436 43.6813 56.3951L44.3347 55.0449ZM38.524 49.4118C37.1502 46.8661 36.438 43.5647 36.438 39.464H34.938C34.938 43.726 35.6765 47.2939 37.204 50.1242L38.524 49.4118ZM36.438 39.464C36.438 35.2423 37.233 31.8907 38.7622 29.3554L37.4778 28.5806C35.7644 31.4213 34.938 35.067 34.938 39.464H36.438ZM38.7649 29.3509C40.312 26.7453 42.3965 24.8467 45.0263 23.633L44.3977 22.271C41.4809 23.6173 39.1707 25.7294 37.4751 28.5851L38.7649 29.3509ZM45.0309 23.6308C47.733 22.3617 50.8215 21.718 54.312 21.718V20.218C50.6345 20.218 47.323 20.897 44.3931 22.2732L45.0309 23.6308ZM54.312 21.718C56.434 21.718 58.4217 21.9468 60.2779 22.4005L60.6341 20.9434C58.6503 20.4585 56.542 20.218 54.312 20.218V21.718ZM60.2816 22.4014C62.1906 22.8579 63.947 23.4994 65.5538 24.3234L66.2382 22.9886C64.517 22.1059 62.6467 21.4247 60.6304 20.9426L60.2816 22.4014ZM65.199 23.3792L61.615 32.4032L63.009 32.9568L66.593 23.9328L65.199 23.3792ZM62.6147 31.9938C61.1407 31.3435 59.7461 30.82 58.4315 30.4256L58.0005 31.8624C59.2459 32.236 60.5819 32.7365 62.0093 33.3662L62.6147 31.9938ZM58.4383 30.4277C57.1252 30.0202 55.7486 29.818 54.312 29.818V31.318C55.606 31.318 56.8321 31.4998 57.9937 31.8603L58.4383 30.4277ZM54.312 29.818C52.938 29.818 51.6998 30.1758 50.6255 30.9083L51.4705 32.1477C52.2735 31.6002 53.2113 31.318 54.312 31.318V29.818ZM50.6255 30.9083C49.5332 31.653 48.7257 32.7723 48.1726 34.2013L49.5714 34.7427C50.0423 33.5264 50.6854 32.6829 51.4705 32.1477L50.6255 30.9083ZM48.1756 34.1935C47.616 35.5926 47.354 37.3389 47.354 39.4H48.854C48.854 37.4504 49.104 35.9114 49.5684 34.7505L48.1756 34.1935ZM47.354 39.4C47.354 41.4996 47.6149 43.2515 48.179 44.6148L49.565 44.0412C49.1051 42.9299 48.854 41.3964 48.854 39.4H47.354ZM48.1876 44.6348C48.7891 45.9765 49.6222 47.0209 50.7093 47.7127L51.5147 46.4473C50.7245 45.9444 50.0643 45.1542 49.5564 44.0212L48.1876 44.6348ZM50.7305 47.7257C51.7996 48.3575 53.0229 48.662 54.376 48.662V47.162C53.2544 47.162 52.3017 46.9119 51.4935 46.4343L50.7305 47.7257ZM54.376 48.662C56.206 48.662 58.0317 48.3717 59.8507 47.7949L59.3973 46.3651C57.7177 46.8976 56.0447 47.162 54.376 47.162V48.662ZM59.8458 47.7965C61.6984 47.223 63.4424 46.4284 65.076 45.413L64.2841 44.139C62.7603 45.0862 61.1336 45.8276 59.4022 46.3635L59.8458 47.7965ZM63.93 44.776V54.504H65.43V44.776H63.93ZM64.2726 53.8743C62.8824 54.7739 61.2998 55.5153 59.5198 56.0948L59.9842 57.5212C61.8736 56.906 63.5763 56.1115 65.0874 55.1337L64.2726 53.8743ZM59.535 56.0901C57.7866 56.6187 55.7292 56.89 53.352 56.89V58.39C55.8388 58.39 58.048 58.1067 59.969 57.5259L59.535 56.0901Z" fill="black" mask="url(#path-29-outside-15_39_817)"/>
</g>
<rect x="0.5" y="0.5" width="99" height="99" stroke="#595959"/>
<path d="M25.4294 35.944C25.0667 35.944 24.7414 36.024 24.4534 36.184C24.1654 36.3333 23.92 36.5573 23.7174 36.856C23.5147 37.144 23.36 37.496 23.2534 37.912C23.1467 38.328 23.0934 38.8027 23.0934 39.336C23.0934 40.0507 23.184 40.6533 23.3654 41.144C23.5467 41.6347 23.824 42.008 24.1974 42.264C24.5707 42.5093 25.04 42.632 25.6054 42.632C26.1067 42.632 26.592 42.5627 27.0614 42.424C27.5414 42.2853 28.0214 42.1147 28.5014 41.912V44.52C28 44.744 27.4827 44.904 26.9494 45C26.4267 45.1067 25.8667 45.16 25.2694 45.16C24.032 45.16 23.0187 44.9147 22.2294 44.424C21.44 43.9333 20.8587 43.2507 20.4854 42.376C20.112 41.4907 19.9254 40.472 19.9254 39.32C19.9254 38.456 20.0427 37.6667 20.2774 36.952C20.5227 36.2267 20.88 35.6027 21.3494 35.08C21.8187 34.5467 22.3947 34.136 23.0774 33.848C23.7707 33.56 24.5654 33.416 25.4614 33.416C26.016 33.416 26.5974 33.48 27.2054 33.608C27.8134 33.736 28.4107 33.9387 28.9974 34.216L28.0534 36.648C27.6374 36.4453 27.216 36.28 26.7894 36.152C26.3627 36.0133 25.9094 35.944 25.4294 35.944ZM39.004 40.552C39.004 41.288 38.9027 41.944 38.7 42.52C38.4973 43.096 38.204 43.5813 37.82 43.976C37.436 44.36 36.972 44.6533 36.428 44.856C35.884 45.0587 35.2653 45.16 34.572 45.16C33.932 45.16 33.34 45.0587 32.796 44.856C32.2627 44.6533 31.7987 44.36 31.404 43.976C31.02 43.5813 30.716 43.096 30.492 42.52C30.2787 41.944 30.172 41.288 30.172 40.552C30.172 39.5707 30.348 38.744 30.7 38.072C31.0627 37.3893 31.5747 36.872 32.236 36.52C32.8973 36.168 33.692 35.992 34.62 35.992C35.4733 35.992 36.2253 36.168 36.876 36.52C37.5373 36.872 38.0547 37.3893 38.428 38.072C38.812 38.744 39.004 39.5707 39.004 40.552ZM33.276 40.552C33.276 41.0533 33.3187 41.48 33.404 41.832C33.4893 42.184 33.628 42.4507 33.82 42.632C34.0227 42.8027 34.284 42.888 34.604 42.888C34.924 42.888 35.1747 42.8027 35.356 42.632C35.548 42.4507 35.6867 42.184 35.772 41.832C35.8573 41.48 35.9 41.0533 35.9 40.552C35.9 40.0507 35.8573 39.6293 35.772 39.288C35.6867 38.9467 35.548 38.6907 35.356 38.52C35.164 38.3493 34.908 38.264 34.588 38.264C34.1293 38.264 33.7933 38.456 33.58 38.84C33.3773 39.224 33.276 39.7947 33.276 40.552ZM51.5435 35.992C52.5568 35.992 53.3302 36.248 53.8635 36.76C54.3968 37.272 54.6635 38.0987 54.6635 39.24V45H51.6075V40.184C51.6075 39.512 51.5168 39.048 51.3355 38.792C51.1542 38.5253 50.8875 38.392 50.5355 38.392C50.0448 38.392 49.7035 38.6107 49.5115 39.048C49.3195 39.4747 49.2235 40.0827 49.2235 40.872V45H46.1675V40.184C46.1675 39.7573 46.1302 39.416 46.0555 39.16C45.9808 38.8933 45.8688 38.7013 45.7195 38.584C45.5702 38.456 45.3782 38.392 45.1435 38.392C44.7915 38.392 44.5142 38.4987 44.3115 38.712C44.1195 38.9253 43.9862 39.2347 43.9115 39.64C43.8368 40.0453 43.7995 40.5413 43.7995 41.128V45H40.7435V36.152H43.0475L43.4955 37.24H43.5755C43.7355 36.9947 43.9382 36.7813 44.1835 36.6C44.4288 36.408 44.7222 36.2587 45.0635 36.152C45.4048 36.0453 45.7942 35.992 46.2315 35.992C46.8822 35.992 47.4155 36.104 47.8315 36.328C48.2582 36.5413 48.6048 36.84 48.8715 37.224H48.9675C49.2448 36.8293 49.6022 36.5253 50.0395 36.312C50.4875 36.0987 50.9888 35.992 51.5435 35.992ZM59.8155 36.152V45H56.7595V36.152H59.8155ZM58.2955 32.584C58.7328 32.584 59.1115 32.6747 59.4315 32.856C59.7622 33.0373 59.9275 33.4 59.9275 33.944C59.9275 34.4667 59.7622 34.824 59.4315 35.016C59.1115 35.1973 58.7328 35.288 58.2955 35.288C57.8475 35.288 57.4635 35.1973 57.1435 35.016C56.8342 34.824 56.6795 34.4667 56.6795 33.944C56.6795 33.4 56.8342 33.0373 57.1435 32.856C57.4635 32.6747 57.8475 32.584 58.2955 32.584ZM67.4826 35.992C68.4 35.992 69.1466 36.248 69.7226 36.76C70.2986 37.272 70.5866 38.0987 70.5866 39.24V45H67.5306V40.168C67.5306 39.5813 67.4453 39.1387 67.2746 38.84C67.104 38.5413 66.832 38.392 66.4586 38.392C65.8826 38.392 65.4933 38.6267 65.2906 39.096C65.0986 39.5653 65.0026 40.2427 65.0026 41.128V45H61.9466V36.152H64.2506L64.6666 37.32H64.7786C64.9706 37.0427 65.1946 36.808 65.4506 36.616C65.7173 36.4133 66.016 36.2587 66.3466 36.152C66.688 36.0453 67.0666 35.992 67.4826 35.992ZM75.4974 35.992C76.116 35.992 76.612 36.1147 76.9854 36.36C77.3694 36.5947 77.6787 36.888 77.9134 37.24H77.9774L78.2014 36.152H80.8414V45.016C80.8414 45.848 80.6707 46.5467 80.3294 47.112C79.988 47.6773 79.4654 48.104 78.7614 48.392C78.068 48.6907 77.188 48.84 76.1214 48.84C75.4067 48.84 74.7774 48.8027 74.2334 48.728C73.6894 48.6533 73.1667 48.52 72.6654 48.328V45.784C73.028 45.9333 73.3694 46.056 73.6894 46.152C74.0094 46.2587 74.3507 46.3333 74.7134 46.376C75.076 46.4293 75.4867 46.456 75.9454 46.456C76.564 46.456 77.0227 46.344 77.3214 46.12C77.6307 45.896 77.7854 45.5707 77.7854 45.144V44.984C77.7854 44.8453 77.7907 44.68 77.8014 44.488C77.8227 44.296 77.8494 44.0933 77.8814 43.88H77.7854C77.5827 44.232 77.2947 44.536 76.9214 44.792C76.548 45.0373 76.0574 45.16 75.4494 45.16C74.5107 45.16 73.748 44.7707 73.1614 43.992C72.5747 43.2133 72.2814 42.0773 72.2814 40.584C72.2814 39.5813 72.4147 38.744 72.6814 38.072C72.9587 37.3893 73.3374 36.872 73.8174 36.52C74.308 36.168 74.868 35.992 75.4974 35.992ZM76.6494 38.36C76.372 38.36 76.1374 38.4453 75.9454 38.616C75.7534 38.7867 75.6094 39.0427 75.5134 39.384C75.428 39.7147 75.3854 40.1307 75.3854 40.632C75.3854 41.4 75.492 41.9547 75.7054 42.296C75.9187 42.6267 76.2494 42.792 76.6974 42.792C76.9427 42.792 77.1507 42.7547 77.3214 42.68C77.492 42.5947 77.6254 42.4773 77.7214 42.328C77.828 42.168 77.9027 41.9707 77.9454 41.736C77.9987 41.5013 78.0254 41.224 78.0254 40.904V40.536C78.0254 40.0773 77.9827 39.688 77.8974 39.368C77.8227 39.0373 77.684 38.7867 77.4814 38.616C77.2894 38.4453 77.012 38.36 76.6494 38.36ZM39.0399 63.528C39.0399 64.1467 38.8799 64.7333 38.5599 65.288C38.2506 65.8427 37.7653 66.296 37.1039 66.648C36.4533 66.9893 35.6053 67.16 34.5599 67.16C34.0373 67.16 33.5786 67.1333 33.1839 67.08C32.7999 67.0373 32.4373 66.9627 32.0959 66.856C31.7546 66.7493 31.4026 66.6107 31.0399 66.44V63.688C31.6586 63.9973 32.2826 64.2373 32.9119 64.408C33.5413 64.568 34.1119 64.648 34.6239 64.648C34.9333 64.648 35.1839 64.6107 35.3759 64.536C35.5679 64.4613 35.7119 64.36 35.8079 64.232C35.9039 64.104 35.9519 63.96 35.9519 63.8C35.9519 63.5973 35.8826 63.4267 35.7439 63.288C35.6053 63.1493 35.3866 63.0053 35.0879 62.856C34.7893 62.7067 34.3893 62.52 33.8879 62.296C33.4613 62.104 33.0773 61.9013 32.7359 61.688C32.3946 61.4747 32.1013 61.2347 31.8559 60.968C31.6213 60.7013 31.4399 60.392 31.3119 60.04C31.1839 59.6773 31.1199 59.2507 31.1199 58.76C31.1199 58.024 31.3013 57.4107 31.6639 56.92C32.0266 56.4187 32.5279 56.0453 33.1679 55.8C33.8186 55.544 34.5706 55.416 35.4239 55.416C36.1706 55.416 36.8426 55.5013 37.4399 55.672C38.0373 55.832 38.5706 56.0187 39.0399 56.232L38.0959 58.616C37.6053 58.392 37.1199 58.216 36.6399 58.088C36.1706 57.9493 35.7333 57.88 35.3279 57.88C35.0613 57.88 34.8426 57.912 34.6719 57.976C34.5013 58.04 34.3733 58.1307 34.2879 58.248C34.2133 58.3547 34.1759 58.4773 34.1759 58.616C34.1759 58.7973 34.2453 58.9573 34.3839 59.096C34.5226 59.2347 34.7519 59.3893 35.0719 59.56C35.4026 59.72 35.8506 59.928 36.4159 60.184C36.9706 60.4293 37.4399 60.7013 37.8239 61C38.2186 61.288 38.5173 61.6347 38.7199 62.04C38.9333 62.4347 39.0399 62.9307 39.0399 63.528ZM49.0743 62.552C49.0743 63.288 48.973 63.944 48.7703 64.52C48.5676 65.096 48.2743 65.5813 47.8903 65.976C47.5063 66.36 47.0423 66.6533 46.4983 66.856C45.9543 67.0587 45.3356 67.16 44.6423 67.16C44.0023 67.16 43.4103 67.0587 42.8663 66.856C42.333 66.6533 41.869 66.36 41.4743 65.976C41.0903 65.5813 40.7863 65.096 40.5623 64.52C40.349 63.944 40.2423 63.288 40.2423 62.552C40.2423 61.5707 40.4183 60.744 40.7703 60.072C41.133 59.3893 41.645 58.872 42.3063 58.52C42.9676 58.168 43.7623 57.992 44.6903 57.992C45.5436 57.992 46.2956 58.168 46.9463 58.52C47.6076 58.872 48.125 59.3893 48.4983 60.072C48.8823 60.744 49.0743 61.5707 49.0743 62.552ZM43.3463 62.552C43.3463 63.0533 43.389 63.48 43.4743 63.832C43.5596 64.184 43.6983 64.4507 43.8903 64.632C44.093 64.8027 44.3543 64.888 44.6743 64.888C44.9943 64.888 45.245 64.8027 45.4263 64.632C45.6183 64.4507 45.757 64.184 45.8423 63.832C45.9276 63.48 45.9703 63.0533 45.9703 62.552C45.9703 62.0507 45.9276 61.6293 45.8423 61.288C45.757 60.9467 45.6183 60.6907 45.4263 60.52C45.2343 60.3493 44.9783 60.264 44.6583 60.264C44.1996 60.264 43.8636 60.456 43.6503 60.84C43.4476 61.224 43.3463 61.7947 43.3463 62.552ZM59.2618 62.552C59.2618 63.288 59.1605 63.944 58.9578 64.52C58.7551 65.096 58.4618 65.5813 58.0778 65.976C57.6938 66.36 57.2298 66.6533 56.6858 66.856C56.1418 67.0587 55.5231 67.16 54.8298 67.16C54.1898 67.16 53.5978 67.0587 53.0538 66.856C52.5205 66.6533 52.0565 66.36 51.6618 65.976C51.2778 65.5813 50.9738 65.096 50.7498 64.52C50.5365 63.944 50.4298 63.288 50.4298 62.552C50.4298 61.5707 50.6058 60.744 50.9578 60.072C51.3205 59.3893 51.8325 58.872 52.4938 58.52C53.1551 58.168 53.9498 57.992 54.8778 57.992C55.7311 57.992 56.4831 58.168 57.1338 58.52C57.7951 58.872 58.3125 59.3893 58.6858 60.072C59.0698 60.744 59.2618 61.5707 59.2618 62.552ZM53.5338 62.552C53.5338 63.0533 53.5765 63.48 53.6618 63.832C53.7471 64.184 53.8858 64.4507 54.0778 64.632C54.2805 64.8027 54.5418 64.888 54.8618 64.888C55.1818 64.888 55.4325 64.8027 55.6138 64.632C55.8058 64.4507 55.9445 64.184 56.0298 63.832C56.1151 63.48 56.1578 63.0533 56.1578 62.552C56.1578 62.0507 56.1151 61.6293 56.0298 61.288C55.9445 60.9467 55.8058 60.6907 55.6138 60.52C55.4218 60.3493 55.1658 60.264 54.8458 60.264C54.3871 60.264 54.0511 60.456 53.8378 60.84C53.6351 61.224 53.5338 61.7947 53.5338 62.552ZM66.5373 57.992C67.4546 57.992 68.2013 58.248 68.7773 58.76C69.3533 59.272 69.6413 60.0987 69.6413 61.24V67H66.5853V62.168C66.5853 61.5813 66.5 61.1387 66.3293 60.84C66.1586 60.5413 65.8866 60.392 65.5133 60.392C64.9373 60.392 64.548 60.6267 64.3453 61.096C64.1533 61.5653 64.0573 62.2427 64.0573 63.128V67H61.0013V58.152H63.3053L63.7213 59.32H63.8333C64.0253 59.0427 64.2493 58.808 64.5053 58.616C64.772 58.4133 65.0706 58.2587 65.4013 58.152C65.7426 58.0453 66.1213 57.992 66.5373 57.992Z" fill="white"/>
</g>
<defs>
<filter id="filter0_f_39_817" x="11.688" y="-3.03198" width="78.208" height="140.672" filterUnits="userSpaceOnUse" color-interpolation-filters="sRGB">
<feFlood flood-opacity="0" result="BackgroundImageFix"/>
<feBlend mode="normal" in="SourceGraphic" in2="BackgroundImageFix" result="shape"/>
<feGaussianBlur stdDeviation="12" result="effect1_foregroundBlur_39_817"/>
</filter>
<clipPath id="clip0_39_817">
<rect width="100" height="100" fill="white"/>
</clipPath>
</defs>
</svg>
